<?xml version="1.0" encoding="utf-8"?>
<svg version="1.1"
	 id="usa_map"
	 xmlns="http://www.w3.org/2000/svg" x="0px" y="0px"
	 viewBox="0 0 593.4 318.3"
	 style="enable-background:new 0 0 593.4 318.3;" xml:space="preserve">
<style type="text/css">
	.st0{fill:none;}
	.st1{fill:none;stroke:black;stroke-opacity:0.15;stroke-miterlimit:10;}
	.st2{fill:#FF0000;}
</style>
<path id="US-AK" class="st0" d="M-126.6-371.1v7.8v7.7v7.6v7.5v7.4v7.4v7.3v7.2v7.1v7v6.9v6.8v6.8v6.7v6.6v6.5v6.5v6.4v6.3v6.3v6.2
	v6.1v6.1v6v5.9v5.9v5.8v5.8v5.7v5.7v5.6v5.6l2.3,0.8l2.2,0.8l0.7-1.5l2.4,1.2l2.1,1l1.3-1.3l1.5-1.4l2-0.1l2.2-0.1l1.5-0.1v1.2
	l-0.5,2l-0.5,1.7l1.2,1.5l0.1,0.2l1.6,0.9l1.5,0.8l0.7,2.3l1.7,1.8l1.3,1.3l1.2,1.3l1.8,1.8l1.2,1.3l1.6,1.7l1,1l0.5,2l0.6,2.3
	l-0.4,1.4l0.8,0.2l1.5-1.5l1.4-1l1.8-1.2l1.2-0.8l2.2,0l1-2.3v-3.3l1.1,0.1l0.7-0.5l0.3-1l-0.7-1.3l2.1-0.6l1.5-0.5l2.2-1.2l2.1-1.2
	l1,0.9l1,0.9l2,2.2l0.1,0.5l-0.1,1l-0.2,1l1.2,2.8l0.3,0.3l1,0.4l1.2,0.9l0.5,0.8l1.7,1.3l0.3,0.5l0.2,0.9l0.3,0.7l0.3,0.5l0.3,0.8
	l0.7,0.9l1.4,1l1,0.7l1.4,1l1.4,2l1.2,1.7l1.4,1.7l-0.2,1.3l1.4,2l1.5,2.6l1.1,2.3l0.8,1.3l1,1.8l1.2,2.2l1.3,2.5l1,1.6l1.3,2.3
	l0.6,1.4l-0.4,0.9l-0.5,1.1l1.7,0.5l1.2,0.4l-0.3,1.3l-0.4,1.7l1.3,0.6l0.9,0.4l-0.2,0.9l0.5,1l0.1,1.6l1.6-0.1l0.7,0l1,0.7l1.3,1
	l1.3,0.9l1.1,0.8l1.4,0.5l1.8,0.6l0.9,1.3l1.6,0.6l0.6,1.8l1.9,0.7l1.1-0.5l0.4,0.7l0.3,0.9l0.1,1.1l-0.1,1l-0.5,0.9l-0.4,0.9
	l-0.2,1l-0.1,1.1l0.1,1.2l0.2,1l0.6,1.9l0.2,1.1l0,0.8l-1.3,2.6l-0.4,1.3l0,0.6l-0.9,1.3l-1.7,1.8l-0.8,1l-0.4-0.4l-2.2-0.3
	l-0.8-2.3l-0.4-1.8l-0.6-1.6l0-0.4l0.6-1.1l2.2-0.9l0-0.4l-0.8-0.2l-0.2-0.4l-0.2-1.7l0.1-1.5l-0.1-1l-0.4-2.1l-0.5-1.3l-1.4-2.5
	l-0.1-0.6l0.6-0.8l0.4-0.7l-2.4,1.3l-3.3,1.3l-1.4,0.9l-0.3,0.4l-0.1,0.3l0.3,0.9l0,0.3l-0.3,0.5l-0.3,1.5l-0.7,1.5l-0.4,0.3
	l-1.3-0.6l-0.3-0.5l-0.6-2l0.1-0.5l0.5-0.5l0.6-1l0.8-1.5l1.5-3.9l1,0l1.8-0.8l-2.8-0.4l-0.4-0.2l-0.4-0.5l-0.3-0.9l-0.6-1l-1-0.3
	l-0.5-0.4l-0.7-1.2l-0.5-0.5l-0.3-0.6l0-0.8l-0.2-0.4l-0.7-0.1l-0.4-0.3l-0.1-2l-1.4-0.5l-0.6-0.4l-0.9-1.3l-0.3-0.6l-0.1-0.5
	l0.2-1.4l-0.1-0.3l-0.8,0.1l-5.2-2.2l0.3-2.9l-1-3.8l-1-1.5l0.2-0.6l0.2-0.3l0.5,0l2,1.1l1.9,1.3l0.2-0.2l-3-2.8l-0.8-0.9l-0.2-1
	l0-0.5l0.2-0.3l2.8,0.3l0.2-0.2l-2.9-0.8h-0.6l-0.6,1.2l-0.3,0.3L-58-116l-0.2-0.2l-0.7-1.5l-0.7-1l-1.3-1.4l-0.2-1l-0.1-1.5
	l0.2-1.4l1-3.2l0.4-0.6l0.1-0.3l-0.3,0l-0.3,0.3l-0.9,1.5l-0.9,2.4l-0.7,0.8l-0.5-0.2l-0.7-1l-1.5-1.2l-1.7-0.3l-1.1-1.2l-1.6-3.5
	l-0.2-1.7l-0.2-0.4l-0.9-0.6l-0.5-0.8l-0.8-4.3l-1.1-3l-0.3-1.6l0.1-1.6l-0.1-0.2l-0.4,1.2l-0.1,0.6l-0.7,0.2l0.6,1.2l0.2,0.6
	l-0.3,0l-0.6,0.1l1.1,2.1l0.5,3.3l0.7,2.4l0.5,1.9l0.2,1.5l0.3,1.4l0.9,3.1l0.1,0.6l-0.1,0.5l-0.3,0.6l-0.5,0.2l-1.5-0.4l-0.6-0.8
	l-0.8-1.4l-1.1-0.6l-2.8,0.3l-0.2-0.1l0-1.1l0.3-2l-0.3-0.8l-1.5-3l0-0.6l2-1.4l-1-0.1l-0.8,0.5l-0.3-0.4l-0.5-1.9l-0.3-0.7
	l-0.1-0.2l-0.1,1.9l0.3,1l0,0.6l0,0.8l-0.2,0.6l-0.4,0.3l-0.4,0.1l-0.7-0.4l-0.8-0.7l-0.7-0.4l-0.3-0.3l-0.3-0.8l-0.5-0.6l-2.5-0.8
	l-1.5-0.9l-0.1,0.2l0.5,1l0,0.6l-0.4,0.2l-0.7,0.9l0.2,0.1l0.7-0.3l0.8,0l1.3,0.6l1.2,0.7l0.4,0.4l0.2,0.6l0.1,0.2l1.2,0.7l0.1,0.4
	l-0.8,1.1l1.5-0.1l0.9,0.4l1.1,1.7l0.4,1l0,1.2l-0.2,0.4l-0.5,0.3l-3.1,0.4l-1.1,1.5l-0.2,0l-0.9-0.4l-1.6-1.2l-2-1.1l-4.4-3.3
	l-0.1-0.2l-0.1-0.6l-0.3-0.3l-0.6-0.3l-0.8-0.9l-1.1-1.4l-0.7-1.1l-0.3-0.8l-0.6-0.9l-2-1.9l-1-0.7l-0.9-0.4l-0.8-0.1l-0.2-0.3
	l0.4-0.4l0-0.3l-1.8-0.4l-1.7-0.9l-4.3-2.5l-2.2-1.6l-1.3-0.8l-0.5-0.4l-0.2-0.4l0.3-0.4l0.9-0.4l0.6-0.4l0.9-1.6l0.1-0.5l-0.5-1.2
	l-0.2-1.1l0-0.6l0.1-0.6l0.1-0.4l0.4-0.4l0.3-0.2l0.3,0.1l1.1,1.5l0.1,0.5l0,2l0.3,2.4l0.1-0.2l0.1-0.8l0.1-1.5l0.1-0.7l0.2-0.7
	l0.4-0.4l1.2,0.2l0.6-0.1l-2.4-1.1l-1.5-2l-0.3-0.2l-0.8-0.1l-0.9,0.8l-2.3,2.7l-0.6,0.5l-2.8,1.5l-1.9,0.3l-2.1-0.2l-1.8-0.5
	l-4.6-2.3l-0.7-0.5l1.1-1.5l0-0.5l-0.4-1.5l-0.3-0.4l-0.4-0.2l-0.1,0.2v0.4l0.1,0.8l-0.4,0.4l-0.8,0.5l-1.3,0.5l-4.1-1.2l-4.2-1
	l-3.7-0.2l-5.3,0.8l-2.8,0.8l-1.6,0.1l-1.6-0.1l-0.1-0.5l0.7-0.3l0-0.4l-0.9-1.3l-1.4-0.8l-1.9-0.3l-1.1-0.4l-0.3-0.5l-0.7-0.4
	l-1-0.4l-0.5-0.8l0.4-2.4l0.4-1.4l0.4-1l0.9-1.6l-0.3,0.1l-1.3,1.2l-1.1,1.2l-1,1.6l-0.6,0.7l-0.8,0.7l-1.3-0.2l-1.7-1l-1.5-0.5
	l-1.2,0l-0.5-0.2l0.8-0.9l0.5-0.7l0.7-1.1l0.1-0.6l-4.5-0.2l-0.2-0.6l0-0.4l-0.1-0.4l-0.6-0.3l-0.9,0.2l-1.5,0.7l-0.6-0.6l0.2-0.3
	l0.5-0.2l1-1l-1.3-0.5l-0.7-0.6l-0.3-0.5l0-1.8l0.4-1.2l3-1.1l-0.9-0.4l-1.9,0.2l-1.3,1l-1.5,1.4l-1,0.5l-0.5-0.4l-0.7-0.1l-0.8,0.1
	l-0.6,0.4l-0.3,0.6l-0.3,0.4l-0.4,0.2l-0.3-0.1l-0.4-0.6l-0.9-0.4l-0.4-0.5l-0.2,0.3l-0.3,0.9l-0.3,0.5l-1.4,0.5l-0.8-0.1l-0.9-1.1
	l-0.1-0.4l0.3-1l2.1-3.9l-0.2,0l-0.7,0.6l-1.3,1.6l-0.6,0.5l-1,0.1l-0.5-0.2l-0.6,0.1l-0.7,0.4l-0.4,0.5l-0.2,0.5l0.1,0.1l1-0.6
	l0.6-0.1l0.2,0.3l-0.8,1.8l-0.5,1.7l-0.5,0.4l-0.7-0.1l-0.8,0.2l0,0.5l1.5,1.3l0.5,0.2l0.7,0.5l0.1,0.5l-0.3,1.3l-0.2,0.5l-0.3,0.3
	l-1.2,0l-0.4,0.1l-0.8,0.8l-0.4,0.7l0.1,0.1l0.7-0.5l1-0.3l1.4,0l1-0.3l0.7-0.5l0.6,0.1l0.6,0.8l0.2,0.7l-0.3,0.6l-0.5,0.5l-0.8,0.3
	l-0.5,0.4l-0.2,0.5l-0.1,0.8l0,1l0.2,1.9l-0.1,0.3l-0.3,0.1l-0.4,0l-0.4,0.4l-0.9,2.5l-0.3,0.3l-0.4-0.3l-0.3,0l-0.3,0.3l-0.6,0.3
	l-1,0.2l-0.9-0.1l-1.5-0.5l-0.6-0.4l-0.5-0.6l-1.4,0.7l-0.4-0.3l-0.9-1.7l-0.2,0.1l-0.2,1.9l-0.3,0.6l-0.8,1.4l-0.5,2.3l-0.1,0.1
	l-0.2-0.3l-0.5-2.1l-0.3-0.5l-0.8,1.2l-0.1,0.4l0.2,1.5l-0.2,0.2l-1.5-0.8l-0.4,0l-0.1,0.1l0.5,1.2l-0.1,0.4l-2.2,2.3l-0.6-0.1
	l-0.4-0.2l-0.4,0l-1.4,0.9l-0.4,0l-0.5-0.5l-0.2,0l-0.1,0.5l0,1l-0.5,1l-1.6,1.6l-0.4,0.7l-0.3,1l-0.3,0.1l-1-0.6l-1.1-0.4l-0.2,0.2
	l0.3,0.6l-0.1,0.4l-0.5,0.1l-0.6,0l-0.7-0.2l-1,0.3l-1.3,0.8l-1.1,0l-1.6-1.3l-0.4-0.1l-0.1-0.4l0.3-1.1l0.4-0.8l0.3-0.4l1.5-1
	l1.7-0.4l1.1-0.6l1.3-1.3l0.7-1l1.4-2.5l-0.1-0.2l-0.3-0.1l-3,2.4l-0.4,0.2l-0.6,0l-2.4-0.9l-0.5-0.4l-0.3-1.1l0.7-2.6l0.5-1.3
	l1.1-2l1.5-2.1l0.5-1.4l0.8-3.6l-0.1-1.7l-0.4-2l0-1.2l0.3-0.4l3.5-1.9l1.6-1.4l3.2-2.1l0.9,0l0.6,0.7l0.7,0.6l0.8,0.4l1.1,0
	l1.3-0.5l2.1,0.2l4.3,1.4l0.9,0.1l0-0.2l-0.7-1l-3-0.6l-1.3-0.6l-3.5-2.5l-0.8-1l0.3-0.4l0.9-0.4l0.3-0.4l0.1-0.6l0.5-0.9l0.9-1.1
	l1.3-1.1l2.5-1.6l-1-0.1l-1.8,0.3l-0.7,0.3l-1.2,1.1l-0.5,0.8l-0.7,1.5l-0.3,0.3l-1.3,0.2l-3.4,0.1l-0.6-0.8l-0.3-0.1l-0.4,0.1
	l-3.1,2l-1.1,1l-0.8,1.2l-1.2,0.9l-1.7,0.5l-1.3,0.7l-1.3,1.3l-0.4,1l0,0.5l0.3,1.5l-0.3,0.3l-0.8,0.1l-1.2,1l-2.6,2.9l-0.3,1.1
	l0,0.4l0.4,0.8l-0.3,0.5l-0.7,0.9l-1.6,1.4l-1.1,0.5l-0.7,0l-0.7-0.2l-1.2-0.9l-1,0l-0.1,0.1l1.3,0.9l1.3,1.2l0.8,1l0.3,0.8l0,0.8
	l-0.3,0.8l-0.9,1.4l-0.9,0.4l-2.4,0.4l-0.8,0.3l-0.2,0.3l1.6,0.6l0.1,0.3l-0.2,1.2l-0.4,0.4l-1.3,0.7l-1.2,0.2l-0.2-0.1l0.2-0.9
	l-0.1-0.2l-0.4-0.2l-0.6,0.4l-1.6,1.4l-0.2,0.2l0.6,0.4l-0.1,0.3l-0.9,1l-0.4,0.7l-0.6,0.7l-2.6,2l0.2,0.5l-0.7,1.8l-0.4,1.5
	l0.5,0.6l2.2,0.8l1.1,0.2l1.2,0.5l2.2,1.4l0.8,0.9l0.1,0.4l-0.1,0.5l-0.3,0.6l-0.7,1.2l-1.7,1.8l-0.8,0.5l-1.2,0.4l-0.4,0.3
	l-1.5,1.7l-0.4,0.9l0.1,0.8l-0.3,0.6l-1.9,1.1l0.1,0.2l0.7,0.1l-0.3,1l-0.1,1.3l-0.3,0.2l-1.2,0l-1.5,0.5l-0.1,0.1l0,1l-4,0.7
	l-0.9,1.8l-0.4,0.6l-1.6,1.3l-1,0.5l-1.1,0.3l-0.6,0.5l-0.1,0.6l-0.3,0.5l-0.9,0.8l-0.5,1l-0.3,0.2l-1.8,0.3l-0.3,0.3l-0.2,1.4
	l-0.3,0l-0.6-0.3l-0.8,0.3l-1.8,1.6l-0.4,0.6l0,0.3l0.3,0.3l0.4,0.9l0,0.6l-0.7,1.7l-0.3,0.3l-0.9,0.4l-0.3,1l-0.8-0.1l-0.6,0.2
	l-0.4,0.6l-0.5,0.4l-0.5,0.1l-0.6,0.5l-0.7,0.9l-0.7,0.6l-0.6,0.3l-0.6,0.1l-0.6-0.1l-0.5,0.1l-0.5,0.3l-0.5,0.5l-0.4,1.5l-0.5,0.7
	l-0.3,0.1l-0.6-0.1l-0.9-0.3l-0.9,0.1l-1.5,0.9l-0.5,0.7l0.9,0.1l0.5,0.2l0,0.2l-0.5,0.2l-0.8,0l-0.5,0.2l-0.6,0.4l-1.5,0.4
	l-0.6,0.3l-1.2,1.7l-0.1,0.4l0.1,0.1l0.6-0.2l0.8,0.3l0.4,0.4l0.3,0.4l0.2,0.9l0.1,0.1l-1.5,1.4l-0.4,0.6l-0.3,0.2l-0.2-0.2
	l-0.2-1.6l-0.1-0.3l-0.3,0l-0.3,0.5l-0.7,1.9l-0.8,0.9l-6,2.4l-0.9,0.5l-0.2,1l-0.3,0.9l-0.4,0.7l-0.5,0.5l-0.1-0.3l0-2.5l-0.1-0.5
	l-0.6-0.3l-0.3,0l-0.4,0.1l-0.6,0.5l-0.4,0.1l-0.5,0l-0.8,0.5l-1.9,1.7l-1.2,0.4l-0.3,0.4l-0.5,0.9l-0.3,0.3l-0.5,0l-0.7-0.3
	l-0.5,0.2l-0.4,0.7l-0.4,0.3l-1.2-0.5l-0.5,0.3l-0.7,0.9l-0.7,0.6l-0.7,0.3l-1.9,0.3l-0.8-0.2l-0.2-0.3l0-1.1l0.3-0.8l0.3-0.4
	l0.4-0.3l0.6,0l1.1,0.3l-0.1-0.3l-0.4-0.3l-1-0.5l-1-0.3l-0.5,0.2l-0.8,0.4l-0.5,0.5l-0.3,0.5l-0.4,1.8l-0.2,0.5l-2.3,3.2l-0.9,1
	l-0.9-0.1l-0.4,0.4l-0.6,0.8l-0.6,0.4l-0.5,0l-0.4-0.1l-0.3-0.3l0.1-0.3l0.4-0.2l-0.1-0.6l-0.6-1l-0.4-0.6l-0.8-0.1l-0.1,0.5
	l0.3,2.4l0,0.5l-0.5,0.7l-1.4,0.8l-0.4-0.1l-1.2-1.5l-1.2-0.3l-0.1,0.5l0.3,1l-0.3,0.9l-0.8,0.9l-0.6,0.4l-0.4,0l0-0.6l0.4-1.2
	l0.1-1l-0.2-0.8l0-0.6l0.2-0.4l1.5-1.2l0.6-0.2l0.4,0.3l0.4,0l0.5-0.2l0.3-0.4l0.1-0.6l0.7-0.7l1.2-0.9l1.4-1.6l1.5-2.4l1.8-2.1
	l2.1-1.8l2.3-1.4l4.5-1.9l0.3,0.1l-0.4,0.6l0.3,0.4l0.5,0l1.7-0.3l0.7-0.4l0.2,0.4l-0.2,0.5l-1,0.5l0,0.4l1.5,1.9l0.5,0.3l0.4,0
	l0.2-0.3l-0.1-1.4l0.5-0.3l1-0.1l0.7,0.2l0.3,0.4l0.6,0.4l0.8,0.3l0.5-0.1l0.2-0.5l-0.4-0.5l-1.6-1.2l-0.4-0.5l-0.1-0.7l0.2-0.9
	l0.5-1.3l0.8-1.8l0.7-1.2l1.4-1.4l1-0.7l2.5-2.1l4.7-2.2l1.2-1.4l1.6-1.5l0.7-0.4v0.6l0.2,0.5l1.1,0.4l0.7,0.1l0.3-0.1l0.1-0.6
	l-0.1-1l0-1l0.1-0.9l0.1-0.7l0.7-1.3l1.1-1.5l1.4-1.7l0.9-0.8l0.9-0.4l0.8-0.8l1.4-1.8l0.5-0.3l1-0.4l0.4,0.2l0.2,0.5l0.3,0.3l1,0.3
	l0.7-0.4l-0.1-0.2l-0.6-0.1l-0.4-0.3l-0.3-1.1l-0.7-0.6l-0.2-0.7l0.1-1.1l0.6-2.7l0.1-2.8l0.5-1.6l1.1-0.6l2.3-0.4l-1.4-0.7l-0.5,0
	l-0.9-0.3l-0.3-1.7l0-1.3l0.6-1.5l2.2-2.5l2.4-1.7l-0.3-0.1l-0.3-0.5l1.1-3.5l1.1-3.1l-1.5,2.7l-1.7,2l-4.9,2.3l-3.4,2l-1.6,0.5
	l-1-0.5l-0.8-1.9l-0.5-0.7l-0.6-1.2l0.3-1.6l0.5-1.1l1-0.2l1.2,0.5l1,0l-1.3-1.1l-1.9-1l-0.9,0.3l-0.7,1.5l-0.9,1.1l-0.8-0.4
	l-0.5-0.4l0.3,1.3l-0.6,2l-0.2,1.4l0.8,3.6l-0.2,1.4l-1.5,0.6l-1.2-1.2l-2.6-4.5l-0.9-1.3l-2-2.1l-0.7,0.3l-0.9,1.1l-0.8,0.3
	l-2.2-1.6l-1-1.2l-1-1.5l-1.5,0.8l-1.3,1l-1.5,1.5l-1,0l-2.8,1.3l-0.3,0l-0.4,0.7l-0.4,0.3l-0.3,1.3l-3.7,1l-3.7-0.6l1.3-0.7
	l1.4-0.6l1.2-1.4l-0.5-1.9l-0.1-1l0-1.2l1.4-1.7h-1.4l-0.9,0.6l-0.9-1.3l-0.4-2.5l1-1.5l0.5-1.2l0.4-1.6l0-1.4l-0.8-2.3l-2.2-5
	l-1-3.7l-1.7-2l1.3-3.3l1.4-3l1.8-1.4l-0.1-0.2l-1,0l-0.7,0.2l-0.6,1l-0.6,0.8l-1.9,3.8l-1.2,1.9l-0.8,0.5l1.3,0.7l0.2,0.6l0.3,1.4
	l-0.3,1.7l-0.3,0.9l-1.5-0.1l-1.4,1.3l-3.2,1.5l-4.3,0.8l-2.1-0.1l-2.2-1.7l0-1l0.1-0.9l-3.2-2.9l-1.8-2.9l-1.3-0.1l-1.1-0.8
	l-1.3-1.2l0.1-1l0.2-0.7l-0.8-0.5l-1.1,0.1l-1.2-0.3l3.2-3.8l1.1-2.6l0.9-0.4l1.2,0.4l1.6,1l1.4,0.4l0.5,0.5l0.5,0.9l-0.5,1.5
	l-0.5,1.1l0.6-0.3l1.7-1.6l1.3-1.4l0.6,0.1l0.4,0.3l0.7,1.5l0.9,1.5l1.9-1.4l1-1.8l-0.9-0.8l-1-0.5l-2.7-0.6l0.6-0.5l1.7,0.1
	l0.6-0.5l-0.7-0.7l-0.9-0.6l-2.3,2l-4.2-0.1l-2.9-1.2l-2.9,0.2l-0.5-0.2l-0.6-0.6l1.6-1.5l1.2-0.8l0.1-0.5l-0.7-0.1l-1.3,0.4
	l-0.6-0.7l0.1-1.2l-0.2,0.1l-0.5,0.7l-0.7-0.3l-0.6-0.6l0.3-0.6l0.6-0.8l-0.3-0.1l-0.6,0.2l-0.6,1.1l0.1,0.9l0,1.2l-0.9,0.2
	l-0.8-0.1l-0.6-1.2l-0.6-2.6l-1.6-0.7l-0.4-1.3l1-1.7l-0.5-0.9l-1.1-0.3l-1.3,0.9l-0.5-0.8l-0.1-0.9l0-1.2l0.4-0.1l0.3,0.2l2.5-0.7
	l0.2-0.3l-2-1l-0.6-1.1l0.8-0.6l1.5-0.1l2.1-0.6l-0.9-1.2l-0.2-0.6l-0.2-1.1l0.4-1.8l2.4-4.1l2.4-3.4l0.7-0.8l1.1-0.4l1,0.3l1.1,0.7
	l0.2-0.3l-0.4-0.3l-0.5-1.4l1.5-0.6l0.9-1.6l0.1-0.5l-0.9,0.7l-1,1.1l-0.2-1.1l-0.3-2.5l0.4-2.4l0.3-1.1l0.8-1l2.4-0.4l0.4,0.2
	l0.1-0.5l-1.4-1.5l0.6-1.2l0.5-0.6l2.8-1l1.6,0.3l1.9,1.1l1.1,1.4l-0.2,0.7l-0.3,0.4l-0.6,0.5l-0.2,0.4l0.1,0.3l0.8-0.8l1.4-1
	l0.8,0.4l0.6,0.8l0.7,0l2.1-0.7l1.1-0.7l1.3-1.9l1.8-1.2l2.5-3.9l0.7-1.6l0.8-0.3l0.8,0.1l0.5,1.3l0.8,0.4l4.4-0.3l2.3-0.6l1.6-1.3
	l1.6-2.2l0.9-1.5l0.4-1.9l-0.6-2.5l-0.6-2.1l-0.8-4.7l-2.2-3.1l-1.6-0.9l-1,0.1l0.7-2l2.1,0.2l1.4-0.4l1.1-1l0.4-0.7l0.5-1.5
	l-0.2-1.6l-0.3-0.9l-0.8-1l-0.9-1.4l-0.6-0.5l-0.5,0l-2.6,2.9l-1.6,0.1l-1.2-0.5l-1,1.6l-2.9,1.4l-1.5,1.4l-2.8,3.5l-0.7,1.6
	l-0.9,0.1l-0.7-3.1l-3.1-3l-0.9,1l0.5,0.9l0.7,0.7l1.1,0.3l-0.5,0.9l-0.4,1.2l-1.2-1.1l-2.1-1.6l-2.1-0.8l-5.6,0.1l-3.6,1.7
	l-0.3-0.4l-0.3-0.1l-0.6,0.4l-0.3,0.7l-0.4,0.4l-0.8,0.1l-1.5-0.3l-2.9-1l-6.6-1.5l-1.7-0.9l-1.5-2.3l0-1.5l0.6-0.6l-0.1-2.2
	l-1.3-0.6l-2.6-3.2l-1-1.4l0.2-0.1l0.5,0.4l0.9,0.3l2.2-0.4l0.8-2.1l1.6-0.6l1.5,0.3l-0.3-0.6l-0.4-0.4l-3.9-1.1l-0.5,0.3l-6.9-1.9
	l-5.5-3.3l-0.5-0.6l-0.5-1.4l0.7-1.4l0.7-0.7l0,0.8l0.1,0.8l3.1-1.8l1.6-2.3l3.1-0.4l0.7-0.6l1-1.3l1.4-2.1l2-1.1l1.3-1l1.7-0.6
	l1.5,1l0.5,0.1l2.7,0.2l0.9-0.4l0.4-0.3l0.3-0.5l-2.6-1.8l0.3-1l0.3-0.7l3.1-2.1l2.4-0.7l1.3,0l3.7-2.8l2-0.8l3.8-0.5l3.1-0.1l0.8,1
	l-1.7-0.2l-0.7,0.2l0.5,0.3l0.6,0.7l-0.2,0.9l-1,2.7l0.1,2.1l-0.7,0.7l-0.6,1l3.2,3.1l4.9,0.2l2.7-0.5l1.5,0.9l1.3,0.2l3.5-0.5
	l2.6,0.6l1.1-0.3l2.4-4.6l1-0.7l1,0.8l1.4,0.6l0.9-0.5l0.7,1.2l-0.3-2.5l-0.5-0.9l-4-1.7l-2.7,0.9l-0.8-1l0.3-1.9l-2.9-4.7l-1.2-1
	l-1.4-0.1l-0.7-1.7l-0.6-2.1l1.2-0.9l1.1-0.4l1,0.7l1.1,2.8l1.1,0.4l-0.3,2.8l1.3,2.6l3,2.4l2.4-0.9l1.7,0l1,0.5l2.5,2.1l1.3,0.3
	l3.9-1.1l0-2.1l-0.3-1.5l-0.9-1l-2.7,0.2l-2.1-1.6l-1.8,0.4l-3.3,2.4l-1.6-0.9l-1-1.3l-1.6-1.3l-0.2-2.5l1.4-2.8l1-1.4l-0.9-1
	l-2.3-0.7l-4,0.7l-0.2-1l0-1.1l-1.6,2.1l-1.7-0.4l-2.3,0.2l-5-1.8l-1.8-2.3l-0.8-1.8l-1.4-5.1l-1.7-3.2l-11.9-10.9l-5.4-2.8
	l-2.6-3.1l-1.6-0.8l-1.6-0.3l-2-1l1.3-1.2l0.9-0.4l-1,1.3l0.7,0.3l1.2-0.7l0.6-0.9l0.9-3.8l0.9-5.8l-0.3-2.3l6.6,0.5l4.4-0.4
	l1.4-0.5l5.5-0.9l1.4-0.6l2.7-2l3.1-3.5l2.7-4.7l0.4-1.3l0.2,0.3l0.2-0.2l0.3-1.8l0.4-4.2l1.3-4l5.7-9.2l2.6-3.7l0.9-1.7l0.9-1.2
	l0.6,1.2l0.3,0.4l0.2,0.5l-0.5,0.3l-0.9,1.2l-1.2,0.8l-0.3,0.4l0.7-0.1l2.2-0.9l1.2-1.1l6.1-1.9l3.3-3.3l0.1-0.7l4.9-4.1l0.7,0.2
	l0.8,0.5l-1.4,2.7l1,0.7l-0.8,3.2l1.8,0l0.4,1.5l0.1-1.3l0-1.8l0.1-1.8l0.3-1.2l1.2,0.6l2.8-1.3l-3.4-0.2l-2-2.9l-1.1,0l3.8-4.3
	l3.5-2.6l0.8,0l0.4,0.5l0.1,0.8l-0.7,0.5l-0.7,0.9l0.3,0.8l0.5,0.1l1.7-0.7l0.7-0.8l3.5,0.1l1-0.6l0.3-0.6l4.6-0.1l0.8-0.4l2.9-2.3
	l2.6-2.8l1.2-1.6l2.1-4l1.8-2.6l2.9-2.7l0.7,0.3l-0.9,0.5l-0.7,1.1l0.9,1.5l6.2,3l1.6,0.2l0.6,1.8l-0.5,1.7l-1.6,1.9l-3.2,1.9l1,0.7
	l0.6,1.7l0.9,0.2l1.6-0.7l1.2-1.1l2.5-3.5l0.8-2l0.6-0.5l2.1,0.5l1.2,1l1.4,1.8l-0.5,1.7l-0.5,1l1.8,1.3l1.9,0.3l1.9,1.1l2.6-2.2
	l2-0.5l1.9,0.1l2.5-1.2l4.2,1.6l1.1-0.4l1.7,0.3l1.8,1l0.6,1l-1.9,2.2l-0.3,2.3l0.7,0.9l1.2,0.2l0.1,1.3l0.8,0.3l3.8-0.1l-0.3,0.6
	l-0.2,0.8l-1.2,1.7l6.8,0.9l0.9-0.9l1.4-0.4l3-1.3l1.1,0.6l1.3,1.3l1.2,0.3l1.1-0.3l2.7-1.9l3.1-0.1l1.3,0.6l1.3-0.3l4,2.1l1.5,0.3
	l2,2.8l1,0.1l1.1-1.2l1,0l1,1.1l1.6,0.3l0.7,1.8l0.8,0.6l6,1.3l3-0.6l4.4,0.1l2.1,0.8l2.2-0.1l3.6,3l1.9,0.5l0.4,0.7l5.4,0.7
	l1.9-1.6l3.3-0.4l3-1.3l1.7,0l2,0.3l0.8-0.2l0.5-0.6l4.8,2.3l2.7,2.6l1.2,1.9l5.6,2.7l1.6,1.5l1.1,1.7l0.6,0.2l0.5-0.5l2,0.1
	L-126.6-371.1L-126.6-371.1z M-362.9-285.2l-0.4,0.1l0-0.4l1.1-1l2-1.2l-0.1,0.3l-1.1,0.9L-362.9-285.2L-362.9-285.2z M-413.3-227.7
	l0.1,0.5l1-0.1l1.4,0.2l1.5,0.5l1.5-0.2l1.9-1.6l1.1-0.4l1.1-0.2l1.2,0.4l1.2,0.8l0.5,0.5l0.4,0.9l0.3,1l0.4,0.8l2.3,0.9l1.4,0.4
	l0.3,0.5l0.3,0.7l1.2,0.5l1.3-0.2l0.7,0.2l2.1,0l2.6,0.8l-0.4,2l-0.9,0.9l-2.4-0.3l-2.4,0.3l-1,1l-0.8,1.3l-0.1,1.3l-0.5,0.6
	l-0.5,0.3l-0.4-0.7l-0.5-2.1l-0.4-0.6l-0.4-0.4l-1.2-0.7l-1.2-0.4l-0.7-0.1l-0.5-0.8l-0.3-1.1l-0.5-0.6l-1-0.8l-1-0.6l-3-1.4l-1-0.2
	l-1,0.1l-1.1,0.6l-1.1,0.9l-1.1,0.7l-1.1,0.1l-1.1-0.4l-1-0.9l-0.5-0.6l-0.3-1.1l0-1.1l0.1-1.1l0.5-2.6l0.9-0.5L-413.3-227.7
	L-413.3-227.7z M-191.8-170.9l-1.2,0.2l-0.5-0.2l-0.1-0.3l0.2-1l0-0.4l0.6-0.1l0.7,0.5l0.2,0.5L-191.8-170.9L-191.8-170.9z
	 M-425.4-163.8l2,1.3l1.3-0.1l1,1l0.4,0.9l-1.5-0.6l-2.3,0l-3-2.5l-1.1-0.6l0.3-1.4l1.2-0.7l0.6,1.9L-425.4-163.8L-425.4-163.8z
	 M-230.3-162l-0.4,0.1l0.6-0.9l0.4-1.8l0.6,0.3l0.1,0.3l-0.9,1.9L-230.3-162L-230.3-162z M-189.2-163.7v0.5l-0.3,0.5l0.3,0.9
	l-0.5,1.5l-0.2,1l-0.3,0.6l-0.3,0.2l-0.3-0.1l0-0.3l0.1-0.5l-0.6,0l-0.2-1.3l0.3-0.4l0.1-0.6l0-0.4l0.4-1.7l0.1-0.1l0,0.4l0.1,0.1
	l0.2-0.2l0.3-0.8l0.1-0.1L-189.2-163.7L-189.2-163.7z M-177.3-163.7l0.2,0.5l1.8-0.1l0.5,0.1l0.2,0.2l-0.3,0.4l-0.7,0.5l-2,0.8
	l-1.7,1.1l-0.2-0.1l-0.3-1.2l-0.3-0.5l-0.2-0.7v-0.3l0.3-0.5l0.6-0.7l0.4-0.2L-177.3-163.7L-177.3-163.7z M-165.3-161.6l-0.3,0.5
	l-0.8-0.2l-0.4-0.3l1.5-1.2l0.2,0.2L-165.3-161.6L-165.3-161.6z M-363.2-162.4l0.9,0.9l0.5,0l1.4-0.3l0.5,0.2l0.5,0.4l0.3,0.6
	l0.1,1.1l-0.2,1l0.1,1.4l-0.1,0.6l0.8,0.8l0.2,1l0.1,1.1l-1.7,0.4l-1.7,0.1l-1.4,0.8l-0.3,0.6l0.2,0.8l-0.4,0.2l-0.4-0.2l-0.7-0.8
	l-0.8-0.4l-2.7-0.6l-3.4-2.2l-1.4-0.5l-1.5-1.6l-1.3-2.1l0.9-0.3l0.9-0.2l3.9,0.3l0.5-1.5l0.5-0.4l1.2-0.4l1.2-0.8l0.5,0l0.5,0.3
	l1.1-0.5l0.6-0.1L-363.2-162.4L-363.2-162.4z M-190-151.7l-1,0.3l-0.3-0.5l0.5-1.4l0.4-0.8l0.3-0.2l1.2-1.6l1.3-1.1l1.2-1.7l1.2-2.4
	l0.2-0.9l0.6-0.1l0.9,0.6l0.6,0.8l-0.3,0.6l-3.1,3.4l-0.3,0.4l-0.3,1.1l-0.3,0.4l-0.4,0.2l-0.3,0.5l-0.2,0.8l-0.4,0.4l-0.6,0
	l-0.4,0.2l-0.2,0.4L-190-151.7z M-192.7-156.4l-0.5,0.6l-1.9-0.4l0.4-1.1l1.4-0.7l1.6,1.1L-192.7-156.4L-192.7-156.4z M-160.1-151.8
	l-0.5,0.1l0.7-1.2l0.9-1.4l0.9-0.9l1.1-0.4l-0.1,0.6l-1.5,1.1L-160.1-151.8L-160.1-151.8z M-314.1-129l-0.7,0.3l-0.7-0.1l-0.6-1.8
	l0.4-0.1l0.9-1.2l2-1l0.5-0.1L-314.1-129L-314.1-129z M-234.7-127.3l-0.3,0.1l-0.7-0.5l-0.4-0.6l0.3-0.4l1.3-0.9l0.6,0l0.3,0.1
	l0.1,0.3l-0.1,0.4l-0.3,0.5L-234.7-127.3L-234.7-127.3z M-234-125.1l0.3,0.1l0.4-1.1l0.3,0l1.1,0.9l0.7-0.2l0.4,1.1l0.4,0.1l0.4-0.1
	l0.2,0.1l-0.1,1.2l-0.8,1.2l-0.4,0.3l-0.5-0.3l-0.2-0.1l-0.4-0.5l-0.3-0.7l-0.2,0l-0.6,0.8l0,0.4l0.3,0.6l0,0.4l-0.7,0.2l-0.7-0.1
	l-0.8,0.5l-0.2-0.3l-0.1-0.9l-0.3,0.1l-0.4,1.1l-0.4,0.7l-0.8,0.6l-0.2,0.3l-0.6,0l-0.8,0.4l-0.5-0.1l-3-1.2l-0.7-0.4l2.5-2.7l1.3-1
	l0.8,0.1l0.8,0.3l0.4,0l0-1.2l-0.7-0.9l0-0.4l1.6-0.6l0.6,0.1l0.6,0.3l0.6,0.5L-234-125.1L-234-125.1z M-67.1-121.6l2.4,0.4l1.8-0.1
	l1.6,2.6l1,2.1l0.6,1.5l0.3,1.4l0.4,1.4l0,0.2l-0.9-0.9l-0.7-1.9l-0.3-0.7l-0.3-0.3l-0.4-0.7l-0.7-1.8l0-0.5l-0.3-0.5l-0.4-0.2
	l-0.4,0.1l-0.1,0.2l0.1,1.3l0.3,1.4l1.7,3l1.1,1.7l0.2,0.6l0.1,1.6l-0.5,0.7l0.6,1.4l0,0.3l-0.1,0.3l-1.6,0.6l-1.5,2.7l-1.6,1.5
	l-0.8,0.3l-0.4-0.3l-0.4-0.6l-0.2-0.8l-0.1-1l0.4-0.6l0.8-3.3l0-1.1l-1-1.5l-0.6-1.2l-0.3-1.7l-0.5-4.6l-0.3-1.5l-0.4-1.2l-0.5-1
	l-0.4-1.1l-0.2-1.2l0.1-0.5l0.8,0.6l1,1.7L-67.1-121.6L-67.1-121.6z M-63.6-122.8l-0.1,0.4l-1.3,0l-1.3-0.6l-0.6-0.9l0.1-0.4
	l1.2-0.4l1.1,0.8L-63.6-122.8z M-76.9-123l1.4,1.7l0,0.4l-0.3,1.2l-0.7,0.3l0.2,0.5l0.5,0.4l0.4-0.3l1.4-1.7l0.4-0.4l0.3,0l1.7,0.5
	l1.5,0.8l0.5,0.6l0.3,1.1l-0.4,2.4L-71-115l-0.6,0l-0.6-0.4l-1,0.8l0.8,0.6l2.5,0.1l0.8,1.3l0.2,1l-0.5,1.9l-1.4-0.5l-1.3-1.1
	l-2.6-1.6l-0.6-0.1l-0.4,0.3l-0.1,0.9l0,2l-0.7,1.1l-2.1-0.5l-0.8-1.5l-0.8-2.5l-2.8-2.9l-0.8-0.6l-1-1.8l0.4-1.4l0.1-0.8l0.5-0.2
	l0.8-0.6l0.5-1.4l0.7,1.1l1,1l0-1l0.5-0.8l0.9,0l0.4-0.2l0.6-0.7l0.9-0.4L-76.9-123L-76.9-123z M-238.6-115.6l0.1,1l0.4-0.1l1.4-1
	l0.8-0.3l1,0l0.8,0.5l0.2,0.4l-0.1,0.4l-0.6,0.8l0,0.5l0.7,1l1.6,0.5l0.2,0.3l0,0.4l-1.1,1.7l-0.4,0.4l-0.3,0.1l-2.1-0.3l-1.9-0.5
	l-0.8-0.1l-0.3,0.2l-0.5,0.5l0.4,0.1l1.6,0.1l0.6,0.7l0.3,0.5l0.1,0.6l-0.3,0.3l-0.7,0.2h-0.9l-1.1,0.7l-0.6,0.8l-2.1,0.2l-1.6,1
	l-0.6,0.5l-0.2,0.6l-0.6,0.4l-1.4,0.4l0.8,0.4l0.1,0.3l0,0.5l-0.1,0.4l-1.1,1.8l-2,1.4l-0.5-0.1l-0.2-0.2l-0.2-0.3l0-0.3l2.6-2.9
	l-0.1-0.1l-0.7-0.1l-1.1-0.8l-0.8,0.5l-0.2,0l0.2-0.7l0.5-0.8l-0.1-0.2l-0.3-0.2l-0.6-0.1l-1,0l-0.8,0.2l-0.5,0.4l0,0.2l1.1,0
	l0.3,0.2l0.3,0.4l0.2,0.5l0.1,0.5l-0.2,0.7l-0.5,0.9l-0.7-0.2l-1.5-2l-0.7-2.9l-1.3-2.3l-0.1-0.5l0.4-1.4l1.3-2l1.4-0.5l1-0.8l1-0.3
	l0.6,0l0.8,0.4l0.3,0.8l-0.2,0.4l0.1,0.2l0.6,0.5l0.6,1.6l0.7,1.4l0.5,0.6l0.6,0.4l-0.6-1.1l-0.4-1.3l-0.2-2.7l-0.2-0.7l0.4-0.2
	l1,0.1l0-0.4l-1.1-0.9l-0.7-0.8l-0.3-0.6l0-0.5l0.6-0.8l0.3-0.2l0.4-0.1l0.7,0.2l0.3,0.2l0.9,1.7l0.4,0.5h0.3l0.3-0.3l0.3-0.6
	l0.3-0.3l0.3-0.1l1,0.3l0.3-0.1l0.2-0.4l0-0.8l0.2-0.3l0.1-0.6l-0.5-0.8l0.6-0.3l2,0.6l0.9,0.7L-238.6-115.6L-238.6-115.6z
	 M-241.8-116l-0.3,0.5l-0.3-0.1l-0.5-0.6l-1.1-0.8l-0.5-0.6l0-0.3l0.4-0.3l1.3,0.7l0.5,0.6L-241.8-116L-241.8-116z M-69.8-107.3
	l0.8,1.9l0.6,1.5l0.5,1.8l0.9,3.6l0.4,1.4l0.1,0.8l0.1,2l-0.1,0.4l-0.3,0.4l0,0.6l0.2,1.5l0,2.3l-0.2,1.3l-0.3,0.2l-0.6-0.4
	l-0.5-0.7l-0.4-0.7l-1-2.3l-0.3-1.1l0-0.8l0.1-0.5l0.3-0.3l0.5-0.9l-0.1-0.1l-0.4,0.2l-0.9,0.1l-0.8-0.7l-0.6-0.4l0.1-1.3l-0.2-0.4
	l-1.1,0.4l-0.4-0.4l-0.1-0.5l0-0.7l0.2-0.6l1.1-1.6l-0.1-0.3l-0.5-0.1l-0.7-0.6l-0.3-1.9l-0.8-1.1l-0.4,0.1l-1,3l-0.5,0.6l-1.4,0.4
	l0.3-0.8l0.1-0.7l-0.5-2.3l0-0.9l0.3-0.6l1-0.3l0.5-0.4l0.4-0.6l0.1-0.6l0.8-1.6l0.4-0.3l1,0l2,1.8l0.6,0.3L-69.8-107.3L-69.8-107.3
	z M-401.1-104.4l-1,0.8l-0.9-0.3l-0.3-0.6l0-0.3l2.6-0.7C-400.6-105.4-401.1-104.4-401.1-104.4z M-239.6-103.4l-1.2,0.6l-0.2,0
	l-0.7,1.1l-0.6,0.5l-0.8-0.9l0.2-1.4l0.6-0.9l3.3,0.3l0.3,0.3l0,0.2l-0.2,0.2L-239.6-103.4L-239.6-103.4z M-54.7-101.3l0.6,0.5
	l0.3-0.6l0.6,0l1.2,0.5l0.7,0.8l0.4,0.9l0,0.5l-0.1,1.2l0.1,1.2l0,0.6l-0.2,0.5l-0.3,0.4l-0.3,0l-0.9-1.1l-1-1.9l-0.8-0.6l0,0.2
	l0.2,0.5l0.6,1l0.1,0.6l0.5,0.8l0.2,0.6l0.1,0.8v0.7l-0.1,0.6l-0.2,0.4l-0.3,0.2l-1.6-0.2l-1,0.4l-1.1-0.2l-0.3-0.3l-0.2-0.6
	l-0.1-1.4l-0.3-1.9l0.1-1.5l-0.7-1.4l-0.6-0.8l-0.9-0.7l-0.6-0.7l0.2-0.6l0.9-0.4l1.5,0.1L-54.7-101.3L-54.7-101.3z M-60.6-98.5
	l0.6,1.2l0.9-0.1l0.5,0.9l0.4,1.3l-0.3,0.9l-0.4-0.2l-0.4,0.5l-0.3,1.6l0.1,1.6l-0.1,1.6l-0.5,1.7l-0.1,1.1l-0.2,0.3l-0.2,0.1
	l-0.3-0.3l-0.4-0.2l-0.5,0.9l-0.6,0l-0.5-2.1l0.5-3.6l1-0.7l-0.6-1l-1.3-1.1l0.1-0.6l-1-1.8l-0.1-0.4l0.2-1.5l0.9-1.4l1.2-0.2
	l0.9,0.6l0.5,0.5L-60.6-98.5L-60.6-98.5z M-48.9-93.1l-0.1,0.3l-1.2,0l-0.4-0.2l-0.2-0.7l0.1-0.7l0.3-0.5l0.3-1l0.3-1.7l1.8,1.9
	l0.5,0.8l0.3,1l-0.6,0.4l-0.8,0.2L-48.9-93.1z M-397.2-94.9l1.2,0.3l0.7-0.2l0.6,0.2l0.1,0.4l-1.1,0.9l-0.4-0.1l-1.3-1.1
	L-397.2-94.9z M-250.9-92.9l-0.5,0l-0.7-0.5l0.1-0.5l1-0.6l1,0.1l0.1,0.4l-0.1,0.4l-0.1,0.2l-0.3,0.2L-250.9-92.9L-250.9-92.9z
	 M-255.4-91.5l-0.6,0.4l-0.2-0.1l0-0.3l0.1-0.5l0.3-0.5l1-1l1-0.7l0.5,0l0.2,0.4l-0.6,0.9L-255.4-91.5L-255.4-91.5z M-42.9-86
	l-0.2,2.8l-0.4-0.2l-0.4,0l-0.7,0.4l-0.8-0.2l-0.4-0.3l-0.1-0.4l0.1-0.8l-0.4-0.5l-1.4-0.2l-0.5-0.2l-0.3-0.9l-0.1-1.1l0.2-0.4
	l0.7-0.3l0.6-1.4l0.3-0.2l1.2-2.8l0.6,0.2l1,1.7l1.3,2.4L-42.9-86L-42.9-86z M-49.2-88.3l-0.5,0l-0.6-0.3l-1.4-1.4l0-0.4l0.2-0.5
	l0.8-0.9l0.3-0.2l1.8,0.1l0.6,0.2l0.1,0.4l0,0.4l-0.2,0.4l0,0.4l0.1,0.4l-0.2,0.4L-49.2-88.3L-49.2-88.3z M-56.6-89.9l1.8,0.4l1.6,0
	l0.6,0.7l0.4,0.7l0.2,0.7l0.1,0.6l0,0.5l-0.2,0.5l0,0.2l3.2,1.6l1.5,1.7l0.6,0.9l0.4,0.7l0.6,1.9l1.3,2.1l0.7,0.6l0.4,0.6l-0.2,0
	l-0.9-0.5l-2-1.4l-0.2,0.1l-0.2,0.8l-0.3,0.7l-0.5,0.5l0.4,0.1l1.6-0.3l1.4,1.4l0.5,0.3l0.5,1l0,0.4l-0.3,0.7l-0.2,0.3l0.1,0.2
	l0.4,0.1l1.5-0.2l0.3,0.4l-0.2,2.9l0.2,1v0.5l-0.2,0.6l0,0.5l0.1,0.5l0,0.5l-0.4,1.3l-0.4,0.2l-0.6,0l-0.5-0.4l-0.7-1.1l-0.7-1.7
	l-0.3-0.2l-0.9-0.3l-0.2-0.2l-0.6,0l-0.4-0.7l0-0.9l-0.4-1l0-0.4l-0.4-0.2l-0.3,0.3l0.2,0.9l-0.2,0.7l-0.7-0.3l-1.2-2.3l-1.4-1.9
	l-0.5-0.4l0.1-0.5l0.7-0.3l0.6,0l0.1-0.3l-1.2-1.8l0-0.5l0.4-0.9l-0.5-0.4l-1.5,0.3l-0.5-0.2l-0.4-0.7l-0.3-0.6l-1.3-0.1l-0.5,0.1
	l-0.8-1l-0.4-0.6l0.1-0.3l0.8-0.5l0.4,0.1l0.9,0.6l0.3,0l0.8-0.8l0.1-0.7l0.6-0.6l-0.1-0.6l-0.4-1l-0.8-0.3l-1.6,0.6l-1.4,1
	l-0.5-0.4l-0.1-0.6l1.5-1.6l0.6-0.9l-0.1-0.5l-0.5-0.7l0-1.7L-56.6-89.9L-56.6-89.9z M-32.2-75.7l-0.3,1.8l-0.6,1.9l-1,1l-0.7-0.2
	l-0.5-0.8l-0.5,0l-0.5-0.2l-0.3-0.7l0.3-0.9l-0.2-0.7l-0.3,0.6l-0.5,0.5l-1.1,0.7l-0.8,1.3l-0.4,0.9l-0.5-0.9l-0.3-2.2l0-1l0.8-1.4
	l1-1.4l0.2-4.1l3.4-2.1l0.3,0.1l1.1,1.5l1.2,2.2l0.3,1l0,1.7L-32.2-75.7L-32.2-75.7z M-263.7-81.2l-0.4,0.5l-0.7,0l-0.4-0.2
	l-0.1-0.5l1.1-1.4l0.3-0.2l0.2,0l0.1,0.6L-263.7-81.2L-263.7-81.2z M-54.1-76.6l0.2,0.5l0,0.3l-1.4,1.1l0,0.2l-0.3,0.7l-0.3,0.3
	l-0.5,0.7l-1,0.8l0.1-2.4l-1-1.4l1-0.7l0.6,0.2l1,0.1l1-0.6L-54.1-76.6L-54.1-76.6z M-311.9-72.8l0.1,0l0.3-0.1l0.6-0.9l0.2,0v0.3
	l-0.3,0.9l0.5,1.2l0.5,0.6l-0.1,0.2l-1.1,0.4l-0.9-0.3l-0.5,0.1l-0.4,0.4l-0.3-0.5l-0.2-2.3l0.1-0.4l0.5-0.8l0.6-0.4l0.3,0.1
	l0.2,0.3l0.1,0.3L-311.9-72.8L-311.9-72.8z M-308.5-73.1l-0.1,1.3l-1.3-0.8l-0.3-0.4l0.2-0.3l1.2-0.1L-308.5-73.1L-308.5-73.1z
	 M-49.9-65.9l0.2,0.2l0.2-0.2l0.4-0.6l0.7,0.1l0.5,0.2l0.3,0.2l-0.2,0.9l-0.1,1.4l-0.3,0.5l-0.3,0.7l-1-0.4l-0.8-0.9l-1.1-1.5
	l-0.6-1.1l0-0.5l-0.4-0.3l-0.8-1.9l-0.4-1.5l-0.7-0.2l-0.9-0.4l-0.3-0.8l0.2-0.7L-54-73l1.9,1.9l0.3,0.8l0.7,0.9l0.1,1.3l0.3,0.5
	L-49.9-65.9L-49.9-65.9z M-304.2-69.7l-0.6,0.4l-0.2,0.5l-0.4,0.2l-0.4,0.4l-1.2,1.7l-0.5,0.3l0.6-1.4l0.1-0.5l0-0.3l-0.2-1.1l0.4,0
	l0.3-0.2l0.6-1l0.5-0.1l0.6-1.1l0.3-0.1l0.1,0.2l-0.3,0.7l0.5,0.6L-304-70L-304.2-69.7L-304.2-69.7z M-35.6-68.9l1,2.1l0,0.8
	l-0.9,0.3l-0.7-0.1l-0.4-0.3l-0.1-0.4l0.2-1.1l-0.5-0.6l-0.5-0.2L-38-68l0-1.1l0.4-0.8l-0.2-1l0-0.8l0.1-0.3l0.5,0l1,0.8L-35.6-68.9
	L-35.6-68.9z M-300.8-70.1l-0.1,1.3l-0.1,0.2l-0.3-0.4l-0.5,0.4l-0.3-0.3l0.1-0.5l0-0.4l0.4,0l0.1-0.6l-0.1-0.3l0.2-0.6l0.3-0.1
	L-300.8-70.1L-300.8-70.1z M-299.4-67.1l-0.3,0.1l-0.3-0.2l-0.4-0.9l0-0.4l0.7,0.3l0.3,0.7L-299.4-67.1L-299.4-67.1z M-338.1-67.3
	l0.9,2.7l0.4,0.5l0.6,0.3l0.8,0.3l0.5,0.4l0.4,0.6l0.1,0.3l-2.6-1.1l-1.6,1.6l-0.5,0.2l-4.6,0.1l-0.9,0.3l-0.6,0.5l-1.1,1.4
	l-0.5,0.6l-0.6,0.3l-1.2,0.4l-1.4,0l-0.8-0.2l-0.4-0.7l-0.4-1.4v-0.4l0.1-0.6l1.3-0.9l0.4-0.5l1.7-3.1l0.5-0.4l0.5-0.1l1.4,0.2
	l1.2-0.9l2.6-1.4l0.6-0.2l1.9,0l0.5,0.2l0.4,0.4L-338.1-67.3L-338.1-67.3z M-327-65.1l-0.2,0.1l-0.6-0.5l-0.2-0.4l-0.2-0.6l1.3-0.8
	l0.3,0l0.3,0.5l0,0.4l-0.4,1.1L-327-65.1L-327-65.1z M-329.5-57.9l-0.8,0.4l-0.9-0.4l-0.7-0.7l-0.1-0.8l1.7,0.5l0.3,0.3L-329.5-57.9
	L-329.5-57.9z M-357.8-53.6l-0.4,0.1l-0.1-0.2l-0.1-0.7l-0.3-1.1l0.6-0.4l0.4-0.1l0.2,0.2l0.4,0.8l0.4,0.2l0.3,0.2l-0.6,0.3
	L-357.8-53.6z M-360.4-52.5l-0.4,0.3l-0.3,0.1l-0.2-0.2l-1,0.2l-0.2-0.1l-0.4-1l0-0.5l0.2-0.4l0.4-0.4l0.7-0.3l0.7,0.1l1.2,0.9
	l0.6,0.5l0.1,0.3l-0.4,0.3L-360.4-52.5L-360.4-52.5z M-367.7-49.8l0.4,0.8l0.7-0.5l0.5-0.7l0.4-0.9l0.3-0.3l0.4,0.5l1,0.6l-0.8,0.9
	l-1.6,1.4l-0.5,0.9l0,0.4l1.5-0.3l0.4,0l0.3,0.3l-0.4,0.4l-0.8,0.3l-0.7,0.7l-1.7,1.1l-0.6,1l-0.8,0.4l-1,0.1l-1.8,0.6l-1.1,0.6
	l-0.3,0.3l-0.4,0.1l-0.4,0l-0.4,0.3l-0.5,0.5l-0.4,0.3l-0.7,0.1l-0.3,0.2l-0.4,0l-1.1-0.6l-0.3-0.4l0.9-0.7l0.7-0.3l1-0.1l1-0.7
	l2.1-0.9l0.6-0.5l0.4-1.7l0.5-0.3l0.3-0.7l1.1,0l0.5,0.8l0.2,0.1l0.1-0.1l0-0.6l0.6-0.4l-0.3-0.3l-1.1-0.4l-0.8-0.2l-0.5,0l-0.4-0.2
	l-0.3-0.5l-0.1-0.5l0-0.5l0.3-0.5l0.5-0.6l0.6-0.3l1.2-0.2l1.1-0.4l0.6-0.1l0.4,0.2L-367.7-49.8L-367.7-49.8z M-363.9-47l-0.1,0
	l-0.2-0.4l0-0.4l0.1-0.3l0.4-0.6l0.3-0.2l0.4-0.1l0.1,0.2l-0.3,0.7l-0.4,0.5L-363.9-47L-363.9-47z M-380.4-41l-2.9,1.7l-0.9,1.2
	l-0.7,1.2l-0.6,0.6l-0.4,0.1l-0.5,0.3l-0.9,0.8l-0.4,0.1l-3.1,1.9l-0.2,0l0.1-0.5l0.9-0.7l0.6-0.6l0.7-1.1l0.4-0.4l0.1-0.5l0-1.1
	l0.2-0.4l0.7-0.8l0.5-0.5l0.6-0.1l1.3,0.1l0.5-0.4l0.2-0.3l-0.3-0.3l-0.1-0.5l0.1-0.9l0.4-0.8l0.6-0.7l0.9-0.5l1.1-0.4l0.8,0
	l1.5,0.8l0.2,0.4l-0.4,0.8l-0.2,0.7L-380.4-41L-380.4-41z M-396.6-33.2l-0.1,0.6l-0.1,0.2l-1.5-0.3l-1,0.1l-0.1-0.4l0.1-0.3l1.5-0.5
	h0.6l0.4,0.3L-396.6-33.2L-396.6-33.2z M-406.4-29.1l-0.6,0.5l-0.2-0.2l-0.1-0.6l0.3-0.5l1-1l0.7,0.2l0.2,0.3l0,0.4l-0.3,0.5
	l-0.3,0.3h-0.4L-406.4-29.1L-406.4-29.1z M-443.6-20.7l-5,0.6l-0.8-0.4l0.8-0.3l0.9-0.1l1.9-0.7l2.3-0.6l1.8-0.8l1.6-0.5l0.5-0.8
	l-1.4-0.4l-0.3-0.3l0.7-0.4l0.5-0.5l1.3-0.6l1.2,0.8l0.3,0.5l-0.1,0.6l-0.2,0.7l-1,0.4l-0.1,0.4l0.5,1l-2.1,0.9L-443.6-20.7
	L-443.6-20.7z M-422.7-24.4l-0.7,0.2l-0.8-0.2l0.4-0.8l0.4-0.4l0.7-0.5l0.8,0.2l0.7,0.7L-422.7-24.4L-422.7-24.4z M-433-22.3
	l1.8,0.6l2.3-0.1l0.8,0.1l0,0.2l-1.5,0.3l-0.5-0.1l-1.3,0.3l-0.9,0.1l-2-0.3l-1.5,0.2l-0.4-0.1l-0.5-0.3l-0.6-0.5l0-0.3l0.5-0.1
	l1.4,0.4l0.1-0.2l1.1-0.4C-434-22.4-433-22.3-433-22.3z M-456.2-20.2l-0.2,0.5l-0.9-0.5l-0.3-0.4l-0.1-0.4l0.3-0.7l0.7,0l0.4,0.3
	l0.4,0.5l0.1,0.3L-456.2-20.2L-456.2-20.2z M-461.6-18.2l0,0.5l1.1-0.1l0.3,0.3v1l-0.1,0.3l-0.2,0.1l-0.4-0.2l-0.4,0.5l-2,1.2
	l-0.6-0.7l-1.2,1.1l0.8-2.8l1-0.4l0.4-0.3l-0.1-0.8l0.4-1.4l1,0.1l0.4,0.6l0,0.4C-461.2-19-461.6-18.2-461.6-18.2z M-466.8-15.9
	l-0.3,0.2l-0.5,0.1l-1.4-0.2l-0.9,0l-1,0.1l-0.7,0.3l-0.1-0.4l0-0.3l3.1-0.8l0.7-0.4l0.5-0.5l0.4-1l0.3-0.3l0.2,0l0.4,0.4l-0.2,0.5
	l-0.4,0.5l-0.1,0.4C-466.7-17.3-466.8-15.9-466.8-15.9z M-473.7-14.9l-0.2,0.5l-0.2,0l-1.3-0.8l-0.2-0.3l0.7-0.4l0.2-0.3l-0.1-0.4
	l-0.5-0.6l-1-0.7l-0.4-0.5l0.3-0.3l0.5-0.2l1.5,0l0.8,0.9l0.6,0.3l1.5,0.2l-0.8,0.4l-0.4,0.4l-0.5,1.4L-473.7-14.9L-473.7-14.9z
	 M-456.1-17.3l-0.8,0.3l-1.1-0.7l0.1-0.8l1.1,0.6L-456.1-17.3L-456.1-17.3z M-458.7-17l-0.6,0.9l-0.4-0.4l-0.2-1.2l0.3-0.3l0.9,0.9
	L-458.7-17L-458.7-17z"/>
<path id="US-AL" class="st1" d="M394.7,201.9l0.3,1.5l0.3,1.5l0.3,1.5l0.3,1.5l0.3,1.5l0.3,1.5l0.3,1.5l0.3,1.5l0.3,1.4l0.3,1.4
	l0.3,1.4l0.3,1.4l0.3,1.4l0.3,1.4l0.3,1.4l0.3,1.4l0.2,0.7l0.2,1l1.3,3.1l0.4,1.3l-0.1,0.5l0.2,0.5l0.4,0.4l-0.1,0.4l-0.6,0.5
	l-0.4,0.6l-0.3,1.1l0,0l-0.6,1.9l0,1.1l0.5,1.6l0,0l0.1,0.7l-0.4,3l0.2,2l0.6,1.3l-3,0h-3h-3h-3h-3h-3h-3h-3l-0.1,0.8l0.1,0.8
	l0.3,0.7l1.4,1.3l0.1,0.3l-0.2,1l0,0.7l-0.2,0.4l-0.3,0.3l-0.1,0.4l-0.2,0.1l-1,1.1l-3.6,0.4l0.2-0.3l0.8,0l1.1-0.4l-0.2-0.6
	l-0.4-0.7l-0.4-0.1l-0.3-0.4l0-1.2l-0.2-0.7l-0.6-0.7l-0.2,0.1l-0.4,1.3l-0.4,1.6l-0.2,0.5l-1.1,0l-1-0.1l-0.5,0l-0.1-2.2l-0.1-2
	l-0.1-2l-0.1-2l-0.1-2.1L368,241l-0.1-2.1l-0.1-2.1l0.2-2l0.2-2l0.2-2l0.2-2l0.2-2.1l0.2-2.1l0.2-2.1l0.2-2.1l0.2-2.1l0.2-2.1
	l0.2-2.1l0.2-2.1l0.2-2.1l0.2-2.1l0.2-2.1l0.2-2.1l0.1-0.5l0-0.2l0-0.3l-0.8-0.8l-0.2-0.2l-0.1-0.1l0.1,0l1.5,0l1.5,0l1.5,0l1.5,0
	l1.5,0l1.5,0l1.5,0l1.5,0l1.5,0l1.5,0l1.5,0l1.5,0l1.5,0l1.5,0l1.5,0L394.7,201.9L394.7,201.9z M371.7,254.8l-0.8,0.2l-1.2,0
	l-0.3-0.1l0.5-0.2l1.5-0.2L371.7,254.8L371.7,254.8z"/>
<path id="US-AR" class="st1" d="M356.3,190.4l0,0.2l0.2,0.5v0.3l-0.1,0.2l-0.3,0.1l-0.2,0.1l0,0.2l0,0.1l0,0.2l0,0.2l-0.2,0.3
	l-1.1,0.6l-0.5,0.8l0.2,1l-0.4,1l-0.9,1l-0.4,1.1l0.1,1.3l-0.5,1l-1.1,0.8l-0.3,0.5v0v0.4l0.1,0.3l-0.4,0.5l-0.9,0.5l-0.5,0.5
	l-0.1,0.5l-0.2,0.3l-0.4,0.1l-0.2,0.8l-0.2,1.8l-0.5,1l-0.8,0.3l-0.4,0.4l-0.1,0.5l-0.5,0.6l-0.9,0.7l-0.3,0.7l0.3,0.7l-0.1,0.3
	l-0.3,0.2l-0.9,0.3l-0.2,0.2l-0.1,0.2l0.2,0.3l0.1,0.5l-0.1,0.8l-0.2,0.3l-0.2,0.3l-0.8,0.6l-0.2,0.5l0.3,0.3l0,0.3l-0.4,0.4
	l0.1,0.4l0.1,0.3l0.4,0.3l0.1,0.7l-0.3,0.9l0,0.7l0.4,0.6l0.1,0.3l-0.4,2l0,0.3h-1.8l-1.7,0h-1.7h-1.7h-1.7l-1.7,0h-1.7H329h-1.7
	l-1.7,0H324h-1.7h-1.7l-1.7,0h-1.7h-1.7l0-1.5l0-1.5l0-1.5l0-1.5l-0.5-0.3l-0.9-0.1l-0.5,0.1l-0.5-0.1l-0.3,0.3l-0.2,0l-0.2-0.1
	l-0.1-0.2l-0.4-0.2l-0.5-0.5l0-1.2l0-1.2l0-1.2l0-1.2l0-1.2l0-1.2l0-1.2l0-1.2l0-1.2l0-1.2l0-1.2l0-1.2l0-1.2l0-1.3l0-1.3l0-1.2
	l-0.2-1.6l-0.2-1.6l-0.2-1.6l-0.2-1.6l-0.2-1.6l-0.2-1.6l-0.2-1.6l-0.2-1.6h2.6h2.6h2.6h2.6h2.6h2.6h2.6h2.6h2.6h2.6h2.6h2.6h2.6
	h2.6h2.6h2.6l0.4,0.9l0.4,0.6l0.1,0.4l-0.1,0.4l-0.7,0.9l-0.6,0.4l-0.3,0.5l-0.5,0.4l-0.7,1.2l1.5,0l1.5,0l1.5,0L356.3,190.4z"/>
<path id="US-AZ" class="st1" d="M174.2,178.8v4.2l0,4.1v4.1v4.1v4.1v4.1v4v4v4v4v4v4v3.9v3.9v3.9v3.9h-2.1l-3.3,0l-3.3,0l-3.3,0
	h-3.3l-3.3,0l-4.5-1.6l-4.5-1.6l-4.5-1.6l-4.5-1.6l-4.5-1.6l-4.5-1.6l-4.5-1.6l-4.5-1.6l0.5-0.6l0.6-1.7l0-0.1l0,0l1.3-0.1l0.6-0.4
	l0.4-0.8l0.1-0.8l-0.2-0.8l-0.6-0.6l-0.9-0.4l-0.5-1.1l-0.1-1.8l0.2-1l0.5-0.1l0.5-0.4l0.4-0.7l0.3-0.8l0.2-0.9l0-1.1l-0.1-1.3
	l0.8-1.7l0.8-1l1.6-1.3l0.4-0.4v-0.3v0l-0.3-0.4l-1.4-0.9l-0.6-0.6l0-0.6l0,0l-0.2-0.6l-1.5-2.3l-0.5-1.3v-1V202l0.2-4.1l-0.5-1.4
	l-0.1-0.8l0.2-1l0-0.6l-0.3-0.5l-0.1-1l0-1.2l-0.4-0.8l-0.1-0.3l0.2-0.8l0.4-0.4l0.7-0.3l0.8-0.1l0.9,0.1l0.7,0.4l0.5,0.7l0.5,0.3
	l0.5,0l0.6-0.5l0.5-1.2l0.2-0.1l0-5l0-4.6h2.9h2.9h2.9l2.9,0h2.9h2.9h2.9l2.9,0h2.9h2.9h2.9h2.9l2.9,0h2.9h2.9L174.2,178.8z"/>
<path id="US-CA" class="st1" d="M71.1,118v2.4v2.4v2.3v2.3v2.3v2.3v2.3v2.3v2.3v2.3v2.3v2.3v2.3v2.3v2.3v2.3l2.2,2l2.2,2l2.2,2
	l2.2,2l2.2,2l2.2,2l2.2,1.9l2.2,1.9l1.7,1.6l1.7,1.6l1.7,1.6l1.7,1.6l1.7,1.6l1.7,1.6l1.7,1.6l1.7,1.6l2.4,2.3l2.4,2.3l2.4,2.3
	l2.4,2.3l2.4,2.3l2.4,2.3l2.4,2.3l2.6,2.4v1l0.5,1.3l1.5,2.3l0.2,0.6l0,0l0.1,0.6l0.6,0.6l1.4,0.9l0.3,0.4v0l0,0.3l-0.4,0.4
	l-1.6,1.3l-0.8,1l-0.8,1.7l0.1,1.3l0,1.1l-0.2,0.9l-0.3,0.8l-0.4,0.7l-0.5,0.4l-0.5,0.1l-0.2,1l0.1,1.8l0.5,1.1l0.9,0.4l0.6,0.6
	l0.2,0.8l-0.1,0.8l-0.4,0.8l-0.6,0.4l-1.3,0.1l0,0l0,0.1l-1.1,0.1l-2.7,0.2l-2.7,0.2l-2.7,0.2l-2.7,0.2l-2.7,0.2l-2.7,0.2l-2.7,0.2
	l-2.7,0.2l0-0.1l-0.1-1.2l-0.4-0.4l-0.6,0.3l-0.3-1.6L97,226l-0.1-0.7l-0.5-1.8l-1.4-2.2l-3-2.7l-1.5-0.9l-1.2-1.2l-0.8-0.3l-1-0.1
	l-0.3,0.5l-1.1-0.4l0.2-1.3l-1.1-1.8l-0.9-0.2l-2.2,0.1l-2.9-1l-0.9-0.6l-0.3-1.1l-1.4-0.9l-1.8-0.9l-1,0.2l-1.3-0.1l-1.9-0.7
	l-1.1-0.1l-2.1,0.2l-0.8-0.1l-0.7-0.8l-0.8-0.4l0.2-1l-0.1-0.9l0.1-0.7l-0.4-1.6l0.3-1.5l-0.2-0.5l-0.5-0.4l-1.4-0.6l-0.3-0.8l0.2-1
	l-0.4-0.7l-1.2-0.6l-1.1-1.5l-1.4-0.8l-0.6-1.3l-0.8-0.8l-0.3-0.7l-1.9-2.6l-2-2.1l-0.3-1.2l-0.1-1.6l0.8-1l0.4-0.9l0-0.8l-0.1-0.6
	l-0.7-1l-2.7-0.6l-2.2-2.5l-0.1-2l-0.8-2l0-1.3l-0.1-1.4l0.7-0.3l0.6,0.1l-0.1,0.6l0.2,1l0.7,0.8l0.7,0.3l0.6,0.7l0.4,0.2l0.5,0
	l-0.3-0.5l-0.3-0.3l-0.3-1l-0.6-1.3l-0.7-0.7l-0.3-1.3l-0.3-0.3l-0.2-0.5l0.7-0.6l0.9-0.4l1.2-0.1l3.5,0.2l0.7-0.3l0.6,0.1l0.5,0
	l-0.9-0.3l-0.5,0.1l-0.6-0.1l-1.2,0.1l-0.5-0.1l-0.6-0.4l-0.4,0l-1.2,0.7l-0.5-0.1l-1.2-0.8l-0.5-0.1l-0.8,0.4l-0.1,1.8l0.3,1.4
	l-0.5,0.1l-0.6-0.6l-0.9-0.3l-0.8-0.5l-1.1-1l-0.6-0.3l-0.6,0.8l0-0.4l0.3-0.9l-0.1-1.5l1,1.2l-0.3-0.9l-0.7-1l-0.6-0.3l-0.7-1.7
	l-1.6-1l-1.3-1.7l-2.6-2.8l-0.2-2.5l-1-3.1l0.4-1.8l0-1.3l-0.5-1.9l-0.5-1l-2.1-2.9l-2-1.9l-0.3-1.5l-0.1-1.5l0.4-1.3l0.4-1.4
	l0.3-0.4l0.1,0.2l-0.1,0.3l0.3,0.1l0.1-0.6l0.2-0.3l-0.3,0l0-0.2l0.2-0.4l0.6-1.8l-0.1-2.3l0.7-2.8l0-0.9l-0.4-2l-0.4-1.2l-0.8-0.9
	l0.3-1.3l0-1.2l-0.2-0.2h2.6h2.5h2.5h2.5h2.5h2.5h2.5h2.5h2.5h2.5h2.5h2.5h2.5h2.5h2.5L71.1,118L71.1,118z M72.2,212.4l1.9,0.6
	l1-0.3l0.2,0.3l-0.1,0.2l-2.3,0.4l-0.7-0.3l-0.1-0.4l-0.2-0.4L72.2,212.4z M68.2,213l-0.5,0L67,213l0.3-0.3l0.4-0.2l0.1,0.1
	L68.2,213L68.2,213z M70.7,214.2l-0.7,0.2l-0.5-0.2l-0.8-1.1l1.7-0.1l0.7,0.5l0.1,0.1L70.7,214.2L70.7,214.2z M86.7,220.2l0.5,0.8
	l-0.7-0.1l-0.7,0l-0.2-0.5l-0.2-0.6l-0.1-0.2l-0.5-0.1l0-0.1l-0.1-0.3l0.1-0.2l1.5,0.7L86.7,220.2L86.7,220.2z M76.4,222.1l-0.4,0
	l-0.6-0.1l-0.3-0.6l0.5,0l0.4,0.1l0.3,0.5L76.4,222.1L76.4,222.1z M86.7,226.5l-0.5,0.1l-0.6-0.2l-0.5-1.1l-0.6-0.8l0.3-0.2l0.5,0.8
	l1.2,1.2L86.7,226.5L86.7,226.5z"/>
<path id="US-CO" class="st1" d="M240.3,142.8l0,2.3v2.3l0,2.3l0,2.3v2.3l0,2.3l0,2.3v2.3l0,2.2l0,2.2l0,2.2v2.2l0,2.2l0,2.2v2.2
	l0,2.2h-2.3h-2.3h-2.3h-2.3h-3.6H224h-3.5h-3.6h-3.6h-3.5h-3.6h-3.6h-3.5h-3.6H192h-3.6h-3.5h-3.6h-3.6h-3.5v-2.9v-3v-3v-3v-3v-3v-3
	v-3v-3v-3v-3v-3v-3.1v-3.1v-3.1v-3.1h3h3h3h3h3h3h3h3h3h3h3h3h3h3h3h3h2.3h2.3h2.3h2.3h2.3h2.3h2.3h2.3l0,1.5v1.5v1.5v1.5v1.5v1.5
	v1.5L240.3,142.8z"/>
<path id="US-CT" class="st1" d="M524.9,117.8l0,0.7v1l0,0.7l0,0.9v1.1l0,1l0,0.9l0,0.5l0,0.8l-0.2,0.3l-0.1,0.7l-0.8-0.1l-1.4,0.2
	l-1.8,0.4l-1-0.3l-1,0.5l-3.5,0.1l-0.7-0.2l-0.9,0.8l-1.5,0.5l-3.8,1.9l-0.4,0.4l-0.5-0.8l-0.4-0.6l0.8-0.5l0.6-0.4l0.5-0.3l0.4-0.2
	l-0.3-0.5l-0.3-0.5l0.1-1.2l0.1-1.2l0.1-1.2l0.1-1.2l0.1-1.2l0.1-1.2l0.1-1.2l0.1-1.2l0.8,0l0.8,0l0.8,0l0.8,0l0.8,0l0.8,0l0.8,0
	l0.8,0l0,0.3l0.4,0l0-0.3l1.1,0l1.1,0l1.1,0l1.1,0l1.1,0l1.1,0l1.1,0l1.1,0L524.9,117.8z"/>
<path id="US-DC" class="st1" d="M475.6,156.3l-0.2-0.3l-0.5-0.3l-0.2-0.1l0.8-0.8l0.5,0.7l0.5,0.8l-0.8,1L475.6,156.3z"/>
<path id="US-DE" class="st1" d="M490.8,145.1l-0.4,0.4l-0.3,0.8l-0.8,0.9l0.1,0.6l0.1,0.4l-0.1,0.9l0.5,0.9l1,1.5l0.2,2.3l0.8,1.5
	l1.2,1.8l0.9,0.5l0,0.7l-0.4,1.1l-0.6,0.5l0.7-0.1l0.4,0.3l0.3,0.9l0,0.6l-1,0h-2.1h-2.1h-1h0h0h0h0h0h0h0h0l-0.1-1.9l-0.1-1.9
	l-0.1-1.9l-0.1-1.9l-0.1-1.9l-0.1-1.9l-0.1-1.9l-0.1-1.9l0.7-1l0.3-0.3l0.4-0.2l1.2,0L490.8,145.1z"/>
<path id="US-FL" class="st1" d="M433.5,249.6l0.4,1l0.7,4l0.5,1.4l0.8,3.8l1.4,3.6l1.9,4.4l3.2,5.3l0.4,0.8l-0.4,0.6l-0.1,0.7l0,1
	l0.1,1l0.4,1.2l0.7,1.8l-0.4-0.4l-1-2.6l-0.1-1.5l0.2-2.2l-0.2,0l-0.2,0.7l-0.1,0.8l-0.3,0.3l-0.4-1.3l0-0.6l0.4-0.7l-0.1-0.2
	l-0.6-0.3l-0.1-0.5l0.1-0.5l-0.3-0.3l-0.3,0l0.2,1.3l0.3,0.8l0.4,1.9l0.6,1.2l0.3,1l4,10.3l0.9,1.3l0.3,0.9l0.4,2l0.1,2.5l-0.7,4.6
	l-0.2,3.1l-0.1-0.1l-0.1-0.3l-0.2,0l-0.6,1.4l-0.8,1.3l-0.3,2l-0.4,1l-1.1,1l-0.7,0l-1.7,0.8l-1.2-0.2l-1.4,0.4l-0.9,0l-0.5-0.9
	l0.1-0.4l0.2-0.4l0.4-0.1l1.3,1l0.2-0.4l-0.4-0.5l-0.7-0.3l-0.5-0.3l-1.1-2.2l-1.1-1.5l-0.2-1l-1.9-0.6l-1.4-1l-0.9-1.7l-0.5-3
	l-0.6-0.3l-0.3-0.2l0.6-1.1l0.6-0.9l-0.5,0.2l-0.4,0.3l-0.5,0.8l-0.3,0.1l-0.3-0.1l-0.4-1.6l0.1-2l0.5-0.7l-0.8,0l-0.8,0.3l0.1,0.7
	l-0.1,0.4l-0.6-0.1l-0.4-0.2l-0.6-0.7l-0.8-1.3l-1.7-3.6l-0.3-0.5l-0.6-0.5l0.3-0.2l0.5-0.1l1.1-1.6l0.8-1l0.3-0.7l0-0.3l-0.4-0.4
	l-0.5,0.4l-0.2-0.1l-0.6-0.8l-0.5-0.2l-0.4,0.2l0.4,0.7l0.3,0.3l-0.1,1l-0.1,0.3l-0.3,0.3l-0.5-0.2l-0.3,0.3l-0.3-0.3l-0.3-0.5
	l-0.3-0.7l0.9-4.2l0.8-2.7l0.1-3l0.1-0.5l-0.1-0.8l-1.1-1.8l-4.9-4.3l-3.8-5.1l-3.3-1.9l-2.5,0.4l-0.4,0.4l-0.2,0.5l0.2,0.6
	l-0.2,0.2l-0.7,0l-0.9,0.1l-2.4,1.3l-0.8,0l-0.8,0.3l-0.6,0.3l-1.5,0.1l-1.3,0.3l-0.5-0.2l-0.3-0.8v-0.8l0.3,0.6l0.4,0.5l0.2-0.2
	l0.1-0.4l-0.4-0.8l-1.4-1.1l-1.6-1.6l0.5,0l0.1-0.3l-0.5-0.4l0.2-0.5l0.3-0.5l-0.7,0.1l-0.6,0.4l0,0.5l-0.1,0.4l-0.3,0l-0.6-0.5
	l-3-1.3l-2.6-0.7l2-0.3l1.1,0.3l-0.1-0.4l-0.3-0.3l-0.9-0.3l-1.1,0.1l-0.7-0.2l-0.7,0.3l-0.8,0.5l-0.7,0.2l-2.7,0.3l-2.2,0.4
	l0.3-0.4l0.4-0.2l1.3-0.4l0.2-0.8l-0.3-0.7l-0.3,0.2l-0.4,0.6l-0.4-0.4h-0.5l-0.1,0.9l-0.6,0.6l-0.3,0.6l-1.8,0.5l-0.2-0.2l0.5-0.6
	l0-0.3l-0.4,0.2l0.1-0.4l0.3-0.3l0.2-0.4l0-0.7l0.2-1l-0.1-0.3l-1.4-1.3l-0.3-0.7l-0.1-0.8l0.1-0.8h3h3h3h3h3h3h3l3,0l0.4,0.9
	l0.8,1.8l0,0.4l0.9,0.1l1.5,0.1l1.5,0.1l1.5,0.1l1.5,0.1l1.5,0.1l1.5,0.1l1.5,0.1l1.5,0.1l1.5,0.1l1.5,0.1l1.5,0.1l1.5,0.1l1.5,0.1
	l1.5,0.1l1.5,0.1l1.5,0.1l0,0.4l0.3,0.6l0.1,0.6l0.1,0.3l0.3,0.2l0.5,0l0.5-0.4l0.3-0.8l0.1-0.9l-0.2-1l0-0.9l0.2-0.5l0.3-0.1
	l0.2-0.3l0.2-0.1l0.5,0.1l2,0.7L433.5,249.6L433.5,249.6z M401.5,261.4l-1,0.4l-1-0.3l0.6,0l0.5,0.1l1.2-0.6l0.6-0.4l0.7-0.2
	L401.5,261.4z M445.9,286.6l0.2,0.8l-0.9-1.8l-1.1-2.8l-0.6-2.2l0.4,0.6l0.4,1.2L445.9,286.6L445.9,286.6z M428.1,294.2l0,0.6
	l-0.5-1l-0.3-1.1l0.5,0.4L428.1,294.2L428.1,294.2z M428.5,295.2l-0.3,0.3l-0.7-0.2l-0.4-0.4l-0.2-0.7l0.6,0.7l0.2,0.2L428.5,295.2
	L428.5,295.2z M444.1,308.9l-1.9,1.9l0.2-0.5l0.7-1l0.2-0.5l0.5-0.3l0.5-0.6l0-0.7l0.7-0.5l0.2-0.1L444.1,308.9L444.1,308.9z
	 M441.7,311.3l-0.3,0l0.4-0.4l0.1,0L441.7,311.3z M439.9,312.4h-0.2l0.1-0.2l0.4-0.3l0.1,0.1l0,0.2L439.9,312.4z M437.8,313.3
	l-0.4,0.2l-0.5-0.2l0.5-0.2l1.5-0.3l-0.5,0.3L437.8,313.3z M435.1,313.9l-0.3,0.2l-0.1-0.1v-0.3l-0.4-0.7l0-0.2l0.9,0.7l0,0.2
	L435.1,313.9L435.1,313.9z M432.9,314.5l-0.6,0.1l0.5-0.4l0.2-0.6l0.3,0.5l0,0.3L432.9,314.5L432.9,314.5z M430.9,315l-0.2,0l0-0.2
	l0.4-0.2l0.3,0l0,0.2L430.9,315L430.9,315z"/>
<path id="US-GA" class="st1" d="M439.5,235.3l-0.5,0.9l-1.2,0.6l-0.3,0l-0.3,0.2l0.2,0.4l0.3,0.3l0,0.3l-0.3,0.4l-0.6,0.1l-0.3,0.4
	l0.1,0.4l0.2,0.2l0,0.4l-0.7,0.4l-0.2,0.4l0.3,0.1l0.3-0.1l0.2,0.1l-0.4,0.7l-0.4,0.4l-0.3,0.7l-0.8,0.2l0,0.2l0.5,0.2l0.4,0.5
	l-0.7,1l-0.5-0.1l-0.3-0.2l-0.2,0.8l0.1,0.4l-0.2,0.9l-0.3,1l-0.2,0.4l0,0.8l0.1,0.8l-1.6-0.1l-2-0.7l-0.5-0.1l-0.2,0.1L429,249
	l-0.3,0.1l-0.2,0.5l0,0.9l0.2,1l-0.1,0.9l-0.3,0.8l-0.5,0.4l-0.5,0l-0.3-0.2l-0.1-0.3l-0.1-0.6l-0.3-0.6l0-0.4l-1.5-0.1l-1.5-0.1
	l-1.5-0.1l-1.5-0.1l-1.5-0.1l-1.5-0.1l-1.5-0.1l-1.5-0.1l-1.5-0.1l-1.5-0.1l-1.5-0.1l-1.5-0.1l-1.5-0.1l-1.5-0.1l-1.5-0.1l-1.5-0.1
	l-0.9-0.1l0-0.4l-0.8-1.8l-0.4-0.9l-0.6-1.3l-0.2-2l0.4-3l-0.1-0.7l0,0l-0.5-1.6l0-1.1l0.6-1.9l0,0l0.3-1.1l0.4-0.6l0.6-0.5l0.1-0.4
	l-0.4-0.4l-0.2-0.5l0.1-0.5l-0.4-1.3l-1.3-3.1l-0.2-1l-0.2-0.7l-0.3-1.4l-0.3-1.4l-0.3-1.4l-0.3-1.4l-0.3-1.4l-0.3-1.4L397,215
	l-0.3-1.4l-0.3-1.5l-0.3-1.5l-0.3-1.5l-0.3-1.5l-0.3-1.5l-0.3-1.5l-0.3-1.5l-0.3-1.5l3.1,0l3.1,0l3.1,0l3.1,0l2.8,0l2.8,0l2.8,0
	l2.8,0l-0.1,0l-0.5,0.8l-1.4,1.5l-0.4,1.1l1.8,1.2l0,0l1.1,1l0.7,0.4l0.7,0.1l0.5,0.3l0.3,0.8l0,0l2.2,4l0,0l2.2,2l0.9,1l0.5,1
	l1.9,1.6l0.7,0.8l0,0.6l0.2,0.5l0.4,0.3l0.4,0.6l0.4,0.9l0.8,0.8l1.1,0.7l0.8,1.5l0.5,2.3l0.5,1.3l0.8,0.6l1.1,2l0.4,1.2l0,1
	l0.6,0.8L439.5,235.3L439.5,235.3z M434.3,247l-0.4,2.7l-0.2-0.9l0-0.9l0.3-0.5L434.3,247z"/>
<path id="US-HI" class="st0" d="M-468.9,276.8l-0.2,0l0-0.1l0.2-0.1l0.2,0L-468.9,276.8L-468.9,276.8L-468.9,276.8z M-299.5,341.6
	l-0.8,0.6l-0.5-0.2l-0.9-0.1l-0.3-0.4l-1-0.4l-0.4-0.5l0.6-1l1.4-0.8l2.1,0l0.5,0.7l0,0.5l-0.3,0.5l-0.1,0.8L-299.5,341.6
	L-299.5,341.6z M-307.1,342.6l-0.2,0.5l-0.3-0.1l-0.1-0.4l0.2-0.5l0.5-0.5l0.6-0.7l0.5,0.1l-0.3,0.5l0,0.5l-0.7,0.3L-307.1,342.6z
	 M-284.7,346.4l0.3,0.1l0.4-0.1l0.1,0.8l0.5,0.4l0.2,0.3l-0.5,0.3l-1,0.1l-0.5-0.2l-0.5-0.5l-0.5,0.1l-0.1-0.4l-0.1-0.1l-0.4,0.1
	l0.3,0.5l-0.9,0l-0.3-0.1l-0.3-0.6l-1-1.1v-0.4l-0.3-0.5l1.4-0.2l1-0.9l0.5-0.1l1,1.5l0,0.4l0.2,0.4L-284.7,346.4L-284.7,346.4z
	 M-279.2,348.9l2,0.3l0.5-0.1l0.3,0.2l1.6,0.1l0.3,0.1l-0.3,0.5l-1.1,0.5l-1.5-0.4l-2.5-0.2l0.1-0.4l0.2-0.3l0-0.5L-279.2,348.9
	L-279.2,348.9z M-272.3,351.7l0.2,0.2l1-0.3l0.7-0.1l1.2,0.7l0.4,0.5l0.8,0.5l0.3,0.3l-0.2,0.4l-0.9,0.7l-1.2,0.2l-0.7,0.3l-0.9-0.1
	l-0.3-0.1l-0.1-0.9l-0.3-1l-0.6,0.1l-0.7-0.3l-0.7-0.8l-0.1-0.5l0.4-0.8l0.7-0.1l0.5,0.4L-272.3,351.7L-272.3,351.7z M-275.8,353.3
	l-0.6,0.3l-0.6-0.1l-0.1-0.7l-0.6-0.9l1-0.2l0.6,0.3l0.3,0.3l0.4,0.5L-275.8,353.3L-275.8,353.3z M-263.8,370.8l-0.4,0.5l-0.5,0
	l-1.9-1l-0.2-0.5l0.1-2.5l-0.7-2.1l-0.8-1.6l0.6-0.8l0.8-0.6l0.8-1.2l-0.7-1.5l0.2-0.9l0.4-0.2l2,1.1l4,1.7l1.1,1.2l0.2,1.3l0.7,0.2
	l0.3,0.9l1.1,0.8l0.3,0.4l-0.4,0.7l-1.9,1.3l-2.4,0.6l-2.1,1.5L-263.8,370.8L-263.8,370.8z"/>
<path id="US-IA" class="st1" d="M347.4,111.5l0.6,0.9l1,0.8l0.6,0.7l0.1,0.7l0.6,0.7l1.1,0.8l0.6,0.7l0.2,0.6l0,0.9l-0.2,1.2
	l-0.4,0.9l-0.5,0.5l-0.4,0.8l-0.3,1l-0.8,0.9l-1.4,0.8l-1.6,0.6l-1.7,0.3l-1,0.7l-0.3,1.1l0.1,0.9l0.6,0.8l0.3,0.8l0.1,0.8l-0.4,1.4
	l-1,1.9l-1.1,1.2l-1.2,0.6l-0.5,0.8l0.1,1.1l-0.1,0.6l-0.5,0.2l-0.8-0.7l-0.2-0.5l-0.7-0.5l-0.1-0.3l-0.5-0.3l-0.5-0.9l-2.4,0
	l-2.4,0l-2.4,0l-2.4,0l-2.4,0l-2.4,0l-2.4,0l-2.4,0l-2.4,0l-2.4,0l-2.4,0l-2.4,0l-2.4,0l-2.4,0l-2.4,0l-2.3,0l-0.6-0.9l-0.3-0.8
	l0.2-0.4l0-1.4l-0.1-2.4l-0.2-1.3l-0.3-0.3l0-0.4l0.3-0.5l-0.1-0.4l-0.4-0.2l-0.1-0.5l0.2-0.7l-0.1-0.4l-0.4-0.2l-0.1-0.3l0.1-0.3
	l-0.2-0.2l-0.4-0.1l-0.2-0.8l0.1-1.5l-0.2-1.1l-0.4-0.7l-0.2-0.6v-0.6l-0.4-0.9l-0.9-1.2l-0.6-1.6l-0.3-2l-0.6-1.1l-0.3-0.1l-0.2-1
	L292,110l0-0.4l-0.8-0.9l0-0.3l0.1-0.4l0.5-0.9l0.5-1.4l0.1-1l0.4-0.7l0-0.4l-0.1-0.5l-0.2-0.5l-0.6-0.3l-0.1-0.2l-0.1-0.5l0.3-0.3
	l0.1-0.4l-0.1-0.5l-0.4-0.8l-0.2-0.8l1.4,0h3.1h3.1h3.1h3.1l3.1,0h3.1h3.1h3.1h3.1h3.1h3.1h3.1h3.1h3.1h3.1l3.1,0l0.1,0.8l0.2,0.6
	l0.4,0.5l0.6,0.3l0.1,0.7l-0.4,1l-0.1,1.3l0.1,1.5l0.3,1.3l0.5,1.2l1,0.9l1.6,0.6l1,0.8L347.4,111.5L347.4,111.5z"/>
<path id="US-ID" class="st1" d="M155.4,85.8v2l0,2v2v2v2v2v2v2v2v2v2v2v2v2v2v2h-1.8h-1.8h-1.8h-1.8h-1.8h-1.8h-1.8h-1.8h-1.8h-1.8
	H136h-1.8h-1.8h-1.8H129h-1.8h-3.5h-3.5h-3.5h-3.5h-3.5l-3.5,0h-3.5h-3.5v-2.8l0-2.8v-2.8l0-2.8v-2.9v-2.9l0-2.9v-3.2l0-0.1l0.6-2
	l0.1-1l-0.2-0.5l0.1-0.5l0.4-0.5l0-0.6l-0.4-0.6l-0.7-0.4l-1-0.2l-0.5-0.7l0-1.2l0.8-1.9l1.6-2.5l0.9-1.8l0.2-1.1l1-2.4l1.8-3.8
	l0.7-2.5l-0.4-1.1l-0.9-1l-1.4-1l-1-1.2l-0.3-0.6L100,65l-0.2-0.9l0.2-0.5l-0.2-0.9l-0.6-1.3L99,60.4l0.1-0.3l0.1-0.1l0-2.2v-2.2
	l0-2.2l0-2.2l0-2.2l0-2.2v-2.2l0-2.2l0-2.2l0-2.2v-2.3l0-2.3l0-2.3l0-2.3v-2.3l0-2.3h3h4h2.3v3.5v3.5v3.5v3.5l1,1.4l0.8,0.9l0.5,0.9
	l0.7,1l0.1,0.4l0.3,1l-0.2,0.8l0.4,0.8l-0.1,0.4l-0.3,0.2l-0.1,0.1l0,0.1l0.1,0.1l1,0.7l1,1l1.3,0.7l0.4,0.4l1.7,2l0.9,1.3l0.9,0.9
	l0.5,1.1l1,0.9l0.2,0.5l0.1,0.1l0.1,0l0.6-0.2l0.2,0.1l0.3,0.4l0.1,0.6l0.2,0.2l0.4,0.1l0.4,0l1.3-0.3h0.3l0.1,0.1l0.1,0.3l0,0.5
	l-0.1,0.7L124,59l0.1,0.6l-0.3,1.5l-0.3,1l0,1l-0.4,0.6l0.2,0.7l-0.1,1l0.1,0.3l0.5,0.5l0.2,1.2l-0.1,0.2L123,68l-0.3,0.3l-0.1,0.5
	l0.4,1.3l-0.3,0.7l0,0.6l0.1,0.2l0.8,0.3l0.9,0.7l0.3,0.2l0.2,0l0.4-0.2l0.4-0.5l0.9-0.5l1-1.1l0-0.3l0.1-0.2h0.1l0.3,0.1l0.7,0.6
	l0.6,0.4l0.1,0.1l0,0.2l0,0.6l0.3,0.5l0.1,0.8l0.3,0.8l0.2,1l0.8,1.3l0.5,0.9l0.5,0.4l0.3,0.5l0.2,0.6l0.1,0.5l-0.3,0.9l0.1,0.4
	l0.3,0.4l0.9,0.9l0.2,0.1l0.8-0.1l0.4,0.1l0.4,0.4l0.4,0.7l0.3,0.7l0.1,0.8l0.5,0.9L137,86l0.3,0.3l0.6,0.5l0.5,0.3l0.2,0l0.2-0.1
	l0-0.4l0.2-0.3l0.7-0.5l0.6,0l2.4,0.4l0.2,0L143,86l0.4-0.7l0.3-0.3l0.5-0.1l1.5,0.2l1.7-0.1l0.9,0.2l1.3-0.3l1.5,0.2l0.2-0.1l0-0.1
	l-0.1-0.3l0-0.5l0.3-0.6l0.1-0.5l0.3-0.3l0.4-0.2l0.3,0l0.3,0.3l0.4,0.5l0.6,1.3l0.3,0.5l0.4,0.4L155.4,85.8z"/>
<path id="US-IL" class="st1" d="M374.1,111.7l0,2l0.2,1.6l0.3,0.7l0.3,0.5l0.3,0.3l0.4,1.1l0.5,1.8l0.4,1.2l0.3,0.5l0,3.3l0,3.7
	l0,3.7l0,3.7l0,3.7l0,3.7l0,3.7l0,3.4v0.1l-0.4,0.4l-0.3,0.6l0.1,0.7l-0.1,0.5l-0.3,0.3l0.2,0.8l0.6,1.2l0.4,1.2l0.1,1.2l-0.1,0.8
	l-0.5,0.8l-0.5,1.6l-0.4,0.7l-0.5,0.2l-0.5,0.6l-0.4,1l-0.4,0.5l-0.5,0l-0.3,0.2l-0.2,0.4l0,0.4l0.3,0.4l-0.1,0.4l-0.5,0.4l0,0.2
	l0.1,0.1l0,0.2l-0.3,0.2l-0.2,0.5l0,0.9l-0.2,0.5l-0.3,0l0,0.3l0.5,1l-0.3,0.2l-0.5,0.8l-0.1,0.9l0.3,1l-0.8,0.8l-1.9,0.6l-1,0.6
	l-0.1,0.5l0.1,0.7l0.4,1l0.1,0.7l-0.2,0.4l-1.3-0.3l-2.4-0.9l-1.6,0l-0.8,1l-0.3,0.7l0.1,0.6l-0.7-0.7l-0.5-0.3l-0.1,0l-0.1,0.1
	l0,0.2l0,0.2l0.1,0.2l0,0.1l-0.1,0l-0.5-0.3l-0.6-0.8l-0.7-1.3l-0.2-1l0.4-0.8v-0.8l-0.4-0.8L358,172v-0.8l-0.9-1.2l-1.9-1.6l-1.4-1
	l-0.9-0.4l-1-0.8l-1.2-1.3l-0.6-1l-0.1-0.7l0.5-1.8l1.6-3.9l0.2-0.5l0-0.2l-0.1-0.2l-0.2-0.2l-0.7-0.5l-1.3-0.4l-1.2-0.2l-0.9,0.5
	l-0.8-0.9l-0.7-2.3l-1.7-2.5l-2.7-2.6l-1.6-1.8l-0.4-0.9l-0.4-1.4l-0.3-1.9l0-1.6l0.5-1.9l0.5-0.2l0.1-0.6l-0.1-1.1l0.5-0.8l1.2-0.6
	l1.1-1.2l1-1.9l0.4-1.4l-0.1-0.8l-0.3-0.8l-0.6-0.8l-0.1-0.9l0.3-1.1l1-0.7l1.7-0.3l1.6-0.6l1.4-0.8l0.8-0.9l0.3-1l0.4-0.8l0.5-0.5
	l0.4-0.9l0.2-1.2l0-0.9l-0.2-0.6l-0.6-0.7l-1.1-0.8l-0.6-0.7l-0.1-0.7l-0.6-0.7l-1-0.8l-0.6-0.9l4.3,0l4.2,0l4.2,0l4.2,0l4.2,0
	l4.2,0L374.1,111.7z"/>
<path id="US-IN" class="st1" d="M402.5,121.7l0,4.1l0,4.1l0,4l0,4l0,4l0,4l0,4l0,4l-0.2,0.1l-0.2,0.5l0.2,0.5l0,0.4l-0.3,0.3
	l0.1,0.2l0.4,0.2l0.2,0.4l-0.1,0.6l-1,0.6l-1.8,0.7l-0.4,0.2l-0.3,0.1l-0.2,0l0,0l-0.2-0.1l-0.3-0.3l-0.6-0.1l-0.9,0.1l-0.4,0.6
	l0.2,1l-0.3,0.8l-0.8,0.5l-0.6,0.7l-0.3,0.9l-0.6,0.5l-0.8,0.2l-0.6,0.8l-0.5,1.5l-0.5,0.9l-0.6,0.4l-0.8-0.1l-1-0.5l-0.6-0.5
	l-0.2-0.6l-0.3-0.4l-0.3-0.2h-0.2l0,0.1l0.1,0.2l-0.1,0.2l-0.6,0.1l-0.3,0.2l0.1,0.4l-0.1,0.3l-0.3,0.2l-0.2,0.4l0,0.6L386,168
	l-0.5,0.5l-0.7-0.2l-0.9-0.8l-0.9-0.2l-1,0.5l-0.7,0.6l-0.5,0.8l-0.4,0.2l-0.7-0.6l-1.5-0.8l-0.8-0.2l-0.6,0.2l-0.4-0.1l-0.1-0.2
	l-0.1-0.1l-0.1,0.1l0,0.7l-0.1,0.4l-0.3,0.2l-0.2-0.2l-0.1-0.5l-0.3-0.2l-0.5,0.2l-0.5-0.1l-0.5-0.3l-0.2,0l-0.1,0.1l0,0.5l-0.1,0.4
	l-0.2,0.3l-0.3,0.1l-0.5-0.2l-0.2,0.1l-0.5-1l0-0.3l0.3,0l0.2-0.5l0-0.9l0.2-0.5l0.3-0.2l0-0.2l-0.1-0.1l0-0.2l0.5-0.4l0.1-0.4
	l-0.3-0.4l0-0.4l0.2-0.4l0.3-0.2l0.5,0l0.4-0.5l0.4-1l0.5-0.6l0.5-0.2l0.4-0.7l0.5-1.6l0.5-0.8l0.1-0.8l-0.1-1.2l-0.4-1.2l-0.6-1.2
	l-0.2-0.8l0.3-0.3l0.1-0.5l-0.1-0.7l0.3-0.6l0.4-0.4v-0.1l0-3.4l0-3.7l0-3.7l0-3.7l0-3.7l0-3.7l0-3.7l0-3.3l0.1,0.1l0.3,0.3l0.3,0.2
	l0.2,0l0.1,0.3l0.5,0.2l1,0.1l0.9-0.1l0.8-0.3l2-1.1h2.3h2.8l2.8,0h2.9h2.8h2.8h2.9L402.5,121.7z"/>
<path id="US-KS" class="st1" d="M310.1,178.8h-2.2h-2.2h-2.2h-2.2h-2.2H297h-2.2h-2.2h-2.2h-2.2h-2.2H284h-2.2h-2.2h-2.2h-2.2h-2.2
	h-2.2h-2.2h-2.2h-2.2h-2.2H260h-2.2h-2.2h-2.2h-2.2h-2.2H247h-2.2h-2.2h-2.2l0-2.2v-2.2l0-2.2l0-2.2v-2.2l0-2.2l0-2.2l0-2.2v-2.3
	l0-2.3l0-2.3V152l0-2.3l0-2.3v-2.3l0-2.3h2h2h2h2h2h2h2h2h2h2h2h2h2h2h2h2h2h2h2h2h2h2h2h2h2h2h2h2h2h2h2h1.7l2.2,1.6l0.6,0l0.7-0.3
	l0.5,0.4l0.3,1l0,0.5l-0.4,0l-0.6,0.6l-0.7,1.1l0.2,1.1l1,1l0.7,1l0.3,1l0.7,0.8l1.5,0.8l0,0.5v1.6l0,1.6v1.6v1.6l0,1.6v1.5l0,1.6
	v1.5v1.5l0,1.5v1.5l0,1.5v1.5v1.5l0,1.5L310.1,178.8z"/>
<path id="US-KY" class="st1" d="M423.1,161.6l0.2,0.3l0.1,1.8l-0.1,0.3l-0.3,0.7l0,0.4l0.3,0.6l1,1.4l0.1,0.5l0.4,0.5l0.3,0.8
	l1.1,1.7l1.7,1.4l1.3,0.4l-3.6,2.9l-1.6,1l-1.5,0.8l-0.1,0.1l-0.3,0.9L421,179l-0.6,0.8l-1.4,0.7l-1,1l-2.5,1l-1.4,0.3l-1,0.6
	l-0.1,0l-0.1,0l-0.1,0l-0.1,0l-0.1,0l-0.1,0l-0.1,0l-0.1,0l-3.3-0.1l-3.3-0.1l-3.3-0.1l-3.3-0.1l-3.3-0.1l-3.3-0.1l-3.3-0.1
	l-3.3-0.1l-3.1,0.1l-3.1,0.1l-3.1,0.1l-3.1,0.1l-0.3-0.4l-0.8-0.1l-1.3-0.1h0l0.4,1.2l0,1l0,0h-1.5h-1.6h-1.6h-1.6h-1.6h-1.6h-1.6
	h-1.9l0.5-1l0.4-0.3l0.2,0l0.5,0.2l0.2,0.1l0.5-0.4l0.4-1l0.3-1.1l0.1-1.2l-0.3-0.9l-0.1-0.6l0.3-0.7l0.8-1l1.6,0l2.4,0.9l1.3,0.3
	l0.2-0.4l-0.1-0.7l-0.4-1l-0.1-0.7l0.1-0.5l1-0.5l1.9-0.6l0.8-0.8l-0.3-1l0.1-0.9l0.5-0.8l0.3-0.2l0.2-0.1l0.4,0.2l0.3-0.1l0.2-0.3
	l0.1-0.4l0-0.6l0.1-0.1l0.2,0l0.5,0.3l0.5,0.1l0.5-0.2l0.3,0.2l0.1,0.5l0.2,0.2l0.3-0.2l0.1-0.5l0-0.7l0.1-0.1l0.1,0.1l0.1,0.2
	l0.4,0.1l0.6-0.2l0.8,0.2l1.5,0.8l0.6,0.6l0.5-0.2l0.5-0.8l0.7-0.6l0.9-0.5l0.9,0.2l0.9,0.8l0.7,0.2l0.5-0.5l0.3-0.5l0-0.6l0.2-0.4
	l0.3-0.2l0.1-0.3l-0.1-0.4l0.3-0.2l0.6-0.1l0.1-0.2l-0.1-0.2l0-0.1h0.2l0.3,0.2l0.3,0.4l0.2,0.6l0.6,0.5l1,0.5l0.8,0.1l0.6-0.3
	l0.5-0.9l0.5-1.5l0.6-0.8l0.8-0.2l0.6-0.5l0.3-0.9l0.6-0.7l0.8-0.5l0.3-0.8l-0.2-1l0.4-0.6l0.9-0.1l0.6,0.1l0.3,0.3l0.2,0.1l0,0
	l0.2,0l0.3-0.1l0.4-0.2l1.8-0.7l1-0.6l0.1-0.6l-0.2-0.4l-0.4-0.2l-0.1-0.3l0.3-0.3l0-0.4l-0.2-0.5l0.2-0.5l0.2-0.1l0.5-0.4l0.5,0
	l0.4,0.4l0.6,0.1l0.8-0.2l0.7,0.1l0.7,0.5l0.6,0.9l0.6,1.3l1.1,0.8l1.5,0.3l1.1,0.5l0.7,0.7l0.6,0.2l0.7-0.4l0.7-0.2l0.7,0.3l1,0.6
	l1.5-0.1l1.9-0.9l1.1,0l0.3,1l0.8,1l1.3,1.1L423.1,161.6L423.1,161.6z M358.4,184.6l-0.7,0l0-0.1l0-0.3l0-0.1l0.1,0h0.2l0.2,0.3
	L358.4,184.6L358.4,184.6z"/>
<path id="US-LA" class="st1" d="M358,255.4l-0.6,0.3l-3.4-1.1l-0.9-0.9l-0.8-0.2l-0.9-0.1l-1,1.1l-0.8,1.5l1.2,0.8l1,0.4l1.7-0.3
	l0.9-0.7l0.8,0l0.4-0.2l0.3-0.4l0.7,0.3l0,0.3l-0.5,0.4l-0.6,0.3l-0.4,0.4l0.7,0.8l1.1,0.3l0.4-0.1l0.3-0.9l0.7-0.6l0.9,0.1
	l-0.1,0.4l0.1,0.4l0.4,0.6l0,0.9l0.1,0.2l-1,0.4L358,260l-0.6,0.5l0.3,0.3l-0.6,0.3l-0.4-0.1l-0.2,0.1l-0.1,0.3l-0.3,0.3l0.4,0.9
	l0.9,0.6l0.6,0.7l2.5,0.9l0.6,0l0.6,0.9l0.5,0.3l0.5,0.2l0,0.7l-0.8,0.5l-0.2,0.6l-0.2,0.3l-0.4-0.4l-0.4-0.3l-0.9,0.9l-0.4,0.2
	l0.2-1l-0.3-0.4l-0.5-1l-0.7-0.6l-0.5-0.2l-0.4-0.4l-0.5-0.2l-0.4,0l-0.7-0.2l0-0.5l-0.2-0.4l-0.5-0.5l-2.7-0.8l0,0.3l0.2,0.3
	l0.4,0.2l0.5,0.3v1l-0.2,0.4l-0.1,0.6l-0.2,0.6l-0.3,0.5l-0.7,0.3l-0.3-0.3l-0.5-1.3l-0.7-0.4l-1.2,0l-0.8,0.3l-0.9,1.3l-0.7,0.2
	l-2.4-0.7l-2.7-1l0.1-0.3l0.4-0.1l0.8,0.1l0-0.3l-0.8-1.2l-0.2-0.5l0.1-0.6l-0.3,0l-0.5,0.5l-1.7-0.5l-0.5-0.5l-1-1.5l-1.4,0
	l-0.7-0.9l-1.2,0.4l-0.6,0.4l-0.5,0.7l0.2,0.3l0.5,0.5l-0.2,0.3l-1.7,0.4l-3.9-0.4l-1.1-0.4l-1.5-0.9l-2.1-0.7l-1-0.1l-1,0.1
	l-2.9,0.1l-0.7,0.2l-0.6,0.3l-0.4-0.3l-0.2-0.6l0.3-0.1l0.4-0.3l0.3-0.7l0-0.4l-0.2-0.3l0.6-1.1l0.2-0.4l-0.1-1.8l-0.3-0.7l0-0.4
	l0.3-1l0-0.9l0.5-1.1l0.4-0.6l0.4-1.2l0.1-0.8l0.2-0.6l-0.1-0.6l0.3-0.5l-0.2-0.6l-0.1-0.8l-0.4-0.3l-0.7-1.2l0-0.5l-0.7-1.2l0-0.4
	l-0.7-0.6l-0.1-0.4l-0.1-1.6l-0.2-0.5l-0.6-0.9l-1.3-1.3v-1.4v-1.4v-1.4v-1.4v-1.4v-1.4v-1.4v-1.4h1.7h1.7h1.7h1.7h1.7h1.7h1.7h1.7
	h1.7h1.7h1.7h1.7h1.7h1.7h1.7l1.8,0l0,0.5l0.5,0.3l0,0.6l-0.4,0.8v0.6l0.4,0.3l0,0.3l-0.5,0.4l-0.1,0.4l0.3,0.4l0.1,0.5l0,0.6
	l0.4,0.7l0.7,0.5l0.4,0.6l0,0.3l0,0.3l-0.1,0.4l-0.5,0.6l-0.4,0.4l-0.3,0.2l-0.1,0.3l0,0.6l-0.6,0.8l-1.2,1l-0.8,1.2l-0.4,1.5
	l-0.4,0.9l-0.4,0.4l-0.2,0.8v1.1l-0.3,0.6l-0.6,0.1l-0.1,0.7l0.3,1.2l-0.1,0.5l-0.4,0.4l0,0.3l2.3,0h2.3h2.3h2.3h2.3h2.3h2.3h2.3
	l-0.3,1.3l-0.7,1.7l0,0.4l0.2,0.5v0.3l0.3,0.5l0.5,0.5l0.5,0.7l0.4,1.2l0.1,0.6l0.3,0.8l0.2,0.2l0.3,0.1L358,255.4L358,255.4z
	 M360.8,256.6l0,0.5l-0.5-0.3l-0.7,0l0.3-0.2l0.2-0.2l0.1-0.2l0.9-0.6l-0.3,0.5L360.8,256.6L360.8,256.6z M364.6,259.6l-0.3,0.3
	l0.3-1.7l-0.4-1.4l0.4,0.6l0.1,0.7L364.6,259.6L364.6,259.6z M364,260.6l-0.5,0.6l0-0.2l0.4-0.6l0.3-0.2L364,260.6L364,260.6z
	 M336.7,262.9l-0.3,0.2l-1.6-0.9l-0.1-0.4l0.8-0.4l0.5,0l0.7,0.5l0.3,0.1l0.1,0.2l-0.1,0.3L336.7,262.9L336.7,262.9z"/>
<path id="US-MA" class="st1" d="M534.2,106.8l-0.2,0.7l0.3,0.7l0.2,0.7l0.4,0.7l0.4,0.1l0.4-0.1l0.3,0l0.2,0.3l-0.1,0.3l-0.5,0.1
	l-0.8,0.6L534,111l-0.4,0.7l-0.6,0.8l-1.1,1.3l0.5,0.4l1.7,0.4l0.8,0.5l1.1,2.4l-0.3,0.2l-0.1,0.4l1,0.6l0.3,1.7l0.8,0.6l1.2,0.4
	l1.5-0.5l1.3-0.7l0-0.6l-0.8-1.3l-0.2-0.6l-0.6-0.4l-0.2,0.3l-0.4-0.5l0-0.3l0.3-0.1l0.4,0l0.5,0.2l1.2,1.5l0.3,1.9l0.1,1.2
	l-0.1,0.4l-0.4-0.1l-0.7,0.1l-3.3,0.6l-0.7,0.6l-1.7,0.6l-0.1-0.3l0.1-0.6l-0.1-1.3l-0.3-0.1l-2.6,2.1l-1,0.1l-0.8,0.6l-0.2-0.3
	l-0.2-1.6l0.5-1.3l-0.3,0l-0.5,0.5l-0.3-0.6l-0.3-0.3l-0.3-0.3l0-0.5l0-0.7l-0.4-0.1l0-0.9l0-0.6l-0.7,0l-0.6,0l-0.9,0l-1,0l-0.7,0
	l0-0.1l-1.1,0l-1.1,0l-1.1,0l-1.1,0l-1.1,0l-1.1,0l-1.1,0l-1.1,0l0,0.3l-0.4,0l0-0.3l-0.8,0l-0.8,0l-0.8,0l-0.8,0l-0.8,0l-0.8,0
	l-0.8,0l-0.8,0l-0.3-0.3l0.3-1.1l0.3-1.1l0.3-1.1l0.3-1.1l0.3-1.1l0.3-1.1l0.3-1.1l0.3-1.1l0.9,0l0.9,0l0.9,0l0.9,0l0.9,0l0.9,0
	l0.9,0l0.9,0l1.3,0l1.3,0l1.3,0l1.3,0l1.3,0l1.3,0l1.3,0l1.3,0l0.8-0.3l1-1l0.6-0.2l1-0.6l0.5-0.1L534.2,106.8L534.2,106.8z
	 M537,125.8l-2.6,0.6L534,126l0.7-0.2l0.8-0.9l0.5-0.1l0.8,0.5L537,125.8z M542,127.2l-0.7,0.2l-1.7-0.5l1.4-0.4l0.2-0.1l0.2-0.6
	l0-0.3l0.5,1.2L542,127.2L542,127.2z"/>
<path id="US-MD" class="st1" d="M487.4,146.2l0.1,1.9l0.1,1.9l0.1,1.9l0.1,1.9l0.1,1.9l0.1,1.9l0.1,1.9l0.1,1.9h0h0h0h0h0h0h0h0h1
	h2.1h2.1l1,0l0,0.3l-0.1,0.5l-0.2,0.2l0-0.5l-0.2-0.2l-0.3,0.2l-0.2,0.3l-0.1,1l-0.2,0.5l-0.6,0.2l-0.6,1.3l-0.6,0.8l-0.2,0.5
	l-0.9,0.1l-1.4,0.2l-0.4,0.5l-0.7-0.2l-1.1,0l0.2-0.7l0.3-0.6l-0.6-0.6l-0.3-0.1L486,165l0.4-0.5l0.2-0.6l-0.1-0.7l0.2-0.5l-0.3,0.1
	l-0.5,0.5l-0.3,0.2l-0.2-0.5l-0.2,0.1l-0.1,0.3l-0.3,0.2l-0.6-0.5l-0.9-0.5l-0.5-0.9l-0.3-0.7l0.3-1.3l0.6-0.2l0.8,0.2h1l-0.2-0.3
	l-0.4,0l-1.1-1l-0.4-0.6l-0.6-0.2l-0.3,0.6l-0.3,0.2l0.4-1.3l0.5,0l0.7-0.4l-0.2-0.8l-0.5-0.3l-0.8,0.4l0-0.5l0.2-0.7h0.6l0.6,0.2
	l0.5-1.1l0-0.5l-0.8,0.7l-0.2-1.5l0.8-1.5l0.7-0.7l0.9,0l0.9-0.1l-0.6-0.3l-0.6-0.2l0.5-0.6l0.4-0.1l0.4-0.5l-0.9,0.1l0.1-1
	l-0.5,0.2l-0.5,0.1l-0.2,0.4l0,0.7l-0.2,0.5l-0.4,0.4l-0.7,0.3l-0.1-0.5l-0.2-0.2l-0.1,1l-0.2,0.4l-0.5-1l-0.2,0.2l0,0.3l-0.1,0.5
	l-0.4,0.3l0,0.6l-0.2,0.3l-1.4-0.5l0,0.2l0.8,1.2l0.6,0.4l0.1,0.6l-0.5,0.5l-0.7-0.5l-0.1,0l0.4,0.8l0.2,0.7l-0.2,0.6l0,0.7l0,0.6
	l-0.2,0.5l0.3,2.5l0.4,0.7l0.4,0.7l0.2,0.6l-0.4,0.1l-0.7-0.5l-0.6-0.4l-0.7-1.2l-0.1-0.5l-0.2-0.4l0.1,0.9l0.3,1l2.2,2.2l0.4,0.8
	l0.3,0.7l-0.1,0.6l-0.6-0.5l-0.5-0.6l-1.3-0.7l-1.7-0.4l-0.9-1.5v0.6l-0.2,0.5l-0.6-0.7l-0.4-0.6l-0.1-0.6l-0.7,0l-0.8,0.5l-0.7-0.1
	l-0.1-1l0.2-0.5l0.8-1.3l0.8-0.7l0.3-0.9l-0.1-1.3l0.1,1l0.8-1l-0.5-0.8l-0.5-0.7l-0.8,0.8l-0.6-0.3l-1-1l-1.7-0.7l-0.2-0.4l0-0.4
	l0.2-0.5l-0.5-0.5l-1.3-0.5l-0.5-0.5l-0.1-0.1l0-0.5l-0.2-0.3l-0.3-0.2l0-0.2l0.2-0.3l-0.2-0.3l-0.5-0.4l-0.2-0.3l0.2-0.3l-0.3-0.1
	l-0.7,0l-0.7-0.3l-0.7-0.6l-0.8-0.1l-1.4,0.6l-0.8,0.1l-0.3,0.3l-0.2,0.5l-0.3,0.3l-0.8,0l-0.1,0l-0.8-0.2l-0.6-0.3l-0.1-0.1
	l0.1-0.3l-0.1-0.1l-0.2,0l-0.2,0.2l-0.2,0.5l-1.5,1.4l-0.7-0.3l-0.3,0l-2,2l-0.6,0.3l-1.2,0.9l0-1.5l0-1.5l0-1.6l0-1.6h2.2h2.2h2.2
	h2.2h2.2h2.2h2.2h2.2h2.2h2.2h2.2h2.2h2.2h2.2h2.2L487.4,146.2L487.4,146.2z M492.6,166.5l-0.3,0l0.3-0.4l0.8-2l0.4-0.7l-0.4,1.4
	l-0.6,1.3L492.6,166.5L492.6,166.5z"/>
<path id="US-ME" class="st1" d="M550.7,48.1l0.1,0.3l0.4,0.5l0.6,0.4l0.5,0.1l0.6,0l1.5-0.7l1.8-0.5l1-0.4l0.2-0.4l0.4-0.1l0.7,0.1
	l1.3,1l1.5,1.5l1.2,1.2l0,2l0,2.1l0,2.3l0,1.6l0,2.2l0,1.7l0,2.3l0,1.2l0.2,0.4l-0.1,0.5l0,0.2l0,0.2l0.1,0.2l0,0.3l-0.2,0.3
	l-0.1,0.4l0,0.6l0.2,0.4L563,70h0.2l0.3,0.2l0.4,0.4l0.6,0.3l0.6,0.1l0.4-0.1l0.5,0.2l0.2,0.5l-0.1,0.5l-0.3,0.2l-0.3,0.2l-0.1,0.4
	l0.2,0.4l0.2,0.3l0.2,0.6l-0.1,0.5l-0.2,0.4l-0.1,0.4l0.2,0.4l0.5,0.5l0.3,0.5l0.5,0.3l0.2-0.2l0.2-0.3l0.2-0.2l0.3,0.1l0.4,0.1
	l0.4,0.2l-0.1,0.4l0.3,0.7l0.2,1.3l-0.3,0.6l0.1,0.8l0.9,0.2l0.2,0.2l0,0.3l-1.9,2l-1.6-0.3l-0.9,0.5l-0.9,0.2l-0.4,0.9l-0.5,0.2
	l-0.7,0l-0.6-0.3l-0.5,0.1l-0.6,1.6l-0.5-0.1l-0.2,0.6l-0.3,0.3l-0.4,0.2l-0.3-0.7l-0.2-0.7l-0.3-0.1l-0.4-0.2l-0.4,0l-0.3,0.1
	l-0.4,0.4l-0.5,0.4l-0.4-0.3l-0.3-0.5l-0.3,0.8l-0.4,0.9l0.1,1l-0.2,0.6l-0.4-0.2l-0.4-0.5l-1.1-0.4l-0.8,0l0.2-0.6l0.8-0.8
	l-0.2-0.2l-0.4,0.1l-0.2-0.1l0.3-0.7l0-0.8l-0.3,0.3l-0.4,0.9l-1.1,0.7l0.1,1.1l-1,2.3l-0.1,1l-0.7,0.8l-0.8,0.7l-1.1-0.2l-0.8,0.6
	l-0.4,0.7l-0.4,0.1l-0.2-0.8l-0.1-0.3l-0.3,1.3l-0.3,0.1l-0.1-0.9l-0.2-0.6l-0.4,0.5l-0.3,1.3l-0.3-0.1l-0.1-0.5l-0.2-0.2l-0.1,0.6
	l0.1,0.8l-0.2,0.4l-0.3-0.2l-0.3-0.4l-0.5,0.3l-0.5,0.1v-0.4l0.1-0.5l-0.9,0.3l-1.1,0.9l-0.8,1.2l0.3,0.2l0.3,0.4l-1.5,1.9l-1.5,1.7
	l-1.2,2.8l-0.5,0.3l-0.4,0.5l-0.8-1.2l-0.2-1l-0.8-1.2l-0.3-0.8l-0.1-0.9l0-1l-0.1-1.4l-0.1-1.4l-0.1-1.4l-0.1-1.4l-0.1-1.5
	l-0.1-1.5l-0.1-1.5l-0.1-1.5l-0.1-1.5l-0.1-1.5l-0.1-1.5l-0.1-1.5l-0.1-1.5l-0.1-1.5l-0.1-1.5l-0.1-1.3l0.2-0.2l0.6-0.4l0.4,0
	l0.3,0.6l0.3,0.4l0.3-0.1l0.3-0.5l0-0.7l0.4-0.5l0.4-0.1l0.4,0l0.2-0.3l0-0.4l-0.1-0.6l0-0.7l1-1.2l1.2-0.8l0.4-0.4l0.1-0.9l0.7-0.9
	l0.3-0.5l0.1-0.5l-0.2-0.5l0-1l0.2-1.3l0.3-1.4l0.7-1.2l1.1-1.4l0.3-1.8l0.3-1.9l1.3-1.8l1.5-2.1l0.8-1.2l1.5-2.2l1.1-1.5l0.5-0.7
	l0.6-0.9l0.9,0.3l0.9,0.3l-0.1,1.2L550.7,48.1L550.7,48.1z M558.9,88l-0.6,0.3l-0.6-0.1l0,0.7l-0.1,0.3l-0.7-0.4l-0.2-0.2l0-0.9
	l0.6-0.9l0.4-0.3l0.6,0.2l0.4,1L558.9,88L558.9,88z M554.8,89.8l-0.4,0.3l-0.4-0.1l0-0.6l0.1-0.2l0.1-0.1l0.2,0.2L554.8,89.8z"/>
<path id="US-MI" class="st1" d="M363.4,39.3l0,0.2l0.3,0.1l-0.1,0.1l-0.4,0.2l-1,0.4l-0.7,0.1l-0.4-0.1l0-0.3l0.3-0.4v-0.2h-0.3
	l0.1-0.2l0.4-0.3l3.7-2.1l1.6-0.8l0.8-0.3l0.1,0.1l-0.9,0.8l-0.2,0.3l0,0.2l-0.3,0.4l-2.7,1.5L363.4,39.3L363.4,39.3z M370.3,49.2
	l-0.2,0.5l0,0.3l-1.1,1.2l-0.4,0.8l-0.3,0.1l-0.3-0.5v-0.4l0.3-0.3l0.3-0.4l0-0.6l-0.1-0.2l-0.3,0.5l0.2,0.1l0.1,0.1l-0.1,0.2
	l-1.3-0.3l-0.4-0.4l0.1-0.6l0.4-0.8l1.6-1.6l0.7-0.5l2-0.7l1.1-0.2h1.1l0.8,0.2l0.5,0.5l-0.5,0.3l-2.2,0.3l-0.1,0.1l0.4,0.3l0.1,0.2
	l-0.4,0.5L370.3,49.2L370.3,49.2z M406.6,58.9l0.3,0.2l0.2,0.3l0.5,0.8l0.2,0.6l0.2,0.8l0.1,0.3l0,0.5l-0.3,0.3l-0.1,0.3l0.2,0.3
	l1.1,0.1l0.5,0.3l0.2,0.3l-0.1,0.3l0.1,0.3l0.3,0.4l0.9,0.5l0.2,0.3L411,66l-0.3,0.2l-0.5,0.1l-3.4-0.5l-1-0.1l-0.2,0.2l-0.1,0
	l-0.2,0l-0.3,0l-0.2-0.1l-0.1-0.3l-0.3-0.2l-0.5-0.1l-0.4,0.3l-0.5,1l0.1,0.2l-0.1,0.7l0.1,0.2l0,0.1l-0.1,0.1l-0.3,0l-0.4-0.2
	l-1.6-1.5l-1.2-0.8l-1.5-0.6l-1.2-0.3l-0.9,0l-0.7,0.4l-0.6,0.8l-0.9,0.4l-1.2,0.1l-0.7,0.2l-0.1,0.3l-0.4,0l-0.8-0.3l-0.8-0.1
	l-0.8,0.1l-0.6,0.3l-0.6,1l-0.1,0.5l-0.5,0.4l-1.2,0.6l-0.1,0.2l-0.6,0.7l-0.2,0.4v0.4l-0.2,0l-0.4-0.4l0-0.6l0.4-0.8l0.3-0.4l0.3,0
	l0.2-0.3l0.1-0.7l-0.1-0.3l-0.6,0.1l-0.3,0.3l-0.4,0.1l-0.5-0.2l-0.4,0.4l-0.4,0.9l-0.4,0.6l-0.5,0.3l-0.3-0.3l-0.2-0.9v-0.7
	l0.2-0.9l-0.1-0.2l-0.2,0.3l-0.3,0.7l-0.4,1.5l-0.3,0.5l-0.4,0.2l-0.6,0.9l-0.8,1.6l-0.9,1.6l-1,1.5l-0.6,0.8l-0.2,0.1l-0.1,0.3
	l0,0.6l-0.5-0.2l-0.4-0.5l-0.2-0.5l0-0.5l0.5-1.4l0-0.2l-0.1-0.1l-0.3-0.1l-0.7,0.3l-0.7,0l-0.2-0.1l-0.1-0.2l0-0.4l0.1-0.4l0.4-0.8
	v-0.8l0.2-0.4l-0.2-0.8l0-0.4l-0.3-0.4l-0.8-0.6l-1.8-0.8l0.2-0.8l-0.1-0.4l-0.5-0.5l-1.9-0.6l-1.3-0.3l-1.3,0l-0.9-0.2l-1-0.1
	l-0.7-0.4l-0.7-0.4l-0.7-0.4l-0.7-0.4l-1.2-0.3l-1.2-0.3l-1.2-0.3l-1.2-0.3l-1.2-0.3l-1.2-0.3l-1.2-0.3l-1.2-0.3l-0.3-0.6l-0.3-0.6
	l-0.3-0.6l-0.3-0.6l-0.5-0.2l-0.3-0.1l-0.2-0.3l-0.5,0.1l-0.2-0.5l0-0.1l0.6-0.1l1.8-0.7l1.5-0.9l1.3-1l1.6-0.6l1.9-0.2l1.3-0.4
	l0.8-0.5l1.1-1l0.6-0.3l0.8-0.1l0.6-0.4l0.4-0.7l0.7-0.8l1.1-0.9l0.6-0.3l0.2,0.2l0.1,0.3l0,0.4l0.3,0.4l0.6,0.3l0.3,0.4l0,0.5
	l0.2,0.4l0.4,0.3l0.1,0.7l-0.2,1l0,0.7l0.1,0.3l0.1,0.2l0.2-0.2l0.3-0.4l0.1-0.2l0.1-0.2l1.6-1.1l0.3,0l0.5,0.3l2.4,0.4l0.9,0.3
	l1,0.6l0.3,0.2l1.2,2l0.5,0.8l0.3,0.2l0.2,0.3l0.2,0.7l0.2,0.2l1.8,0.1l0.8-0.1l0.5-0.3l0.5,0.2l0.6,0.6l0.6,0.2l0.6-0.3l0.5,0
	l0.5,0.3l0.2,0.2l0.2,0l1-1l1.2-0.9l1.6-0.9l0.9-0.4l0.3,0.1l1.5-0.3l1.3,0l1.8,0.2l1.6-0.2l1.5-0.6l1.3-0.4l1.2-0.1l0.4,0.2
	l-0.3,0.4l-0.2,0.7l0,1l-0.1,0.6l-0.2,0.3l0,0.3l0.1,0.3l1.1,0.2l0.6,0.3l0.7,0l0.8-0.3l0.6,0.1l0.4,0.5l0.6,0.1l0.6-0.4l0.4-0.4
	l0.3-0.2L406.6,58.9L406.6,58.9z M408.8,60.9v0.3l-0.3-0.1l-0.2-0.2l-0.2-0.3l-0.2-0.8l-0.4-0.6l0.5-0.7l0.3-0.1l0.4,0.1l0,0.4
	l-0.3,0.6l0,0.6L408.8,60.9L408.8,60.9z M408.9,62.5l-0.1,0.1l-0.5-0.5l-0.1-0.3l0.1-0.3l0.2,0l0.3,0.3l0.2,0.3l0,0.3L408.9,62.5z
	 M414.7,65.6l0.1,0.3l-0.2,0.4l-0.7,0.2l-1.3,0l-0.9-0.2l-0.4-0.3l-0.1-0.2l0-0.4l0.2,0l0.3,0.2l0.4-0.1l0.6-0.4L413,65l0-0.2
	l-0.2-0.3l0.2-0.1l0.7,0.1l0.3,0.2l0.5,0.8L414.7,65.6L414.7,65.6z M404.8,68.2l1.2,0.2l0.1-0.1l0.3,0.4l0,0.3l-0.1,0.3l-0.2,0.1
	l-0.3,0l-0.4-0.3l-0.7-0.7L404.8,68.2L404.8,68.2z M402.8,68.6l0.7,0.3l1.2,0.8l1.1,0.5l1.1,0.1l0.8,0.3l0.5,0.5l0.4,0.5l0.2,0.5
	l0.5,0.3l0.8,0.1l0.6,0.2l0.5,0.4l2.6,1l1.1,0.5l0.6,0.5l0.2,0.3l0,0.3l0.1,0.4l0.4,0.7l0.2,0.1l0.1,0.3l0,0.6l0.1,0.4l0.2,0.2
	l-0.1,0.1l-0.8-0.4l-0.5,0.1l-0.2,0.5l0,0.4l0.2,0.4l1,1.2l0.3,1.1l0,1.3l-0.1,0.5l-0.1,1.1l-0.1,1.8l0,0.6L416,88l-0.9,0.9l0-0.2
	l-0.2,0l-0.2,0.1l-0.3,0.7l-0.3,1.3l-0.3,0.7l-0.4,0.1l-0.2,0.2l-0.1,0.3l-0.4,0.2l-0.8,0.1l-0.5,0.4l-0.4,1.1l0,0.5l-0.2,0.7l0,0.6
	l0.2,0.5l0.6,0.5l1.1,0.5l0.6,0.1l0.4-0.2l0.5-0.8l0.4-0.3l0.5-0.1l0.2-0.4l0.9-1.6v-0.3l-0.3-0.1l0-0.1l0.4-0.1l0.4-0.2l0.3-0.4
	l0.5-0.3l1.3-0.4l0.7-0.5l0.5-0.1l0.7,0.3l0.8,0.6l0.7,0.8l0.5,1.1l0.6,2.8l0.8,4.6l0.5,2.5l0.3,0.5l0.1,0.3l-0.7,3.6l-0.5,1.5
	l-0.9,0.8l-0.9,0.8l-1.2,1.4l-1.3,0.7l-0.7,0.4l-0.1,0.3l-0.2-0.1l-0.3,0.8l-0.3,1l-0.1,0.8l0.1,0.4l-0.3,0.3l-0.5,0.5l-0.1,0.2
	l0,0.3l-0.1,0.2l-0.2,0l-0.2,0.2l-0.4,0.5l-0.8,1.4l-0.1,0.3l-0.1,0.1l-3.1,0.1l-3.1,0.1l-3.1,0.1l-3.1,0.1V121h-2.8h-2.8h-2.8h-2.8
	h-2.8h-2.8h-2.3l0.6-0.3l1-0.8l0.6-0.7l0.5-1l0.5-1.2l1.1-1.8l0.5-1.1l0.5-1.4l0.4-1.4l0.3-1.5l0.1-1.6l0-1.6l-0.3-1.6l-0.5-1.7
	l-0.3-0.8l-0.1-0.2l-0.9-2.1l-1-3l0-0.3l0.9-1.8l0-0.2l-0.1-1.5l-0.2-0.7l-0.5-1l0-0.3l1-1.3l0.6-1l0.5-1.2l0.3-1.4l0.2-1.5v-1
	l-0.2-0.5l0-0.4l0.2-0.3l1-0.4l0.3-0.6l0.1-1.1l0.2-0.5l0.3,0l0.3-0.2l0.3-0.5l0.4-0.1l0.5,0.2l0.7-0.7l0.9-1.5l0.7-0.9l0.5-0.2
	l0.1,0.1l-0.3,0.5l-0.1,0.5l0.1,0.5l-0.1,0.5l-0.2,0.7l0.1,0.2l-0.4,1.2l0,0.6l0.2,0.4l0.3-0.1l0.3-0.8l0.1-0.4l-0.1,0l0-0.3
	l0.2-0.6l0.2-0.3l0.2,0l0,0.3l-0.1,0.6l-0.5,1.5l-0.1,0.4l0.1,0.1l0.6-0.9l0.5-1.4l0.4-1.1l0.1-0.6l-0.1-1.6l0-0.6l0.2-0.4l0.5-0.5
	l0.9-0.6l0.9-0.3l0.9,0L401,74l0.3-0.3l-0.1-0.2l-0.6-0.2l-0.5-0.4l-0.3-0.5l-0.1-0.6l0.1-0.7l0.4-0.7l0.7-0.7l0.2-0.5l-0.2-0.3
	l0.3-0.1l0.8,0.1l0.6-0.1L402.8,68.6L402.8,68.6L402.8,68.6z M395.4,71.1l-0.3,0.1l-0.3-0.2l0-0.6l0.3-1.1l0.3-0.5L396,69l-0.1,0.1
	l0.1,1.2l-0.2,0.5L395.4,71.1z M391.4,77.8l-0.1,0.2l-0.3,0l-0.2-0.2l-0.2-0.6l0.1-0.1l0.5,0.1l0.2,0.3L391.4,77.8L391.4,77.8z"/>
<path id="US-MN" class="st1" d="M321.7,29.6l1.1-0.2l1,0l1,0.1l0.5,0.1l1.5,0.6l1,0.5l1.4,1l0.8,0.4l0.4,1l0.4,1.3h0.6l0.5-0.7
	l1.2-0.1l1.6,0.5l1.4,1.5l2,1.3l1.2,0.6h1.2l1.6-0.6l1.7-1.3l1.2-0.2l0.7,0.1l0.4,1l0.5,0.4l1.3-0.1l2.7,0.2l2.2-0.3l0.5,0.6
	l0.4,0.9l0.9,0.3l1.2-0.3l1.9,0.2l-0.3,0.1l-0.3,0l-0.4,0.2l-0.5,0.5l-1,0.6l-1.6,0.8l-1.9,0.8l-3.8,1.4l-2.3,1.4l-1,0.9l-4,4.3
	l-2.4,2.3l-4,3.2l-0.4,0.4l0,0.4l-0.2,0l-0.7,0.8l-0.3,0.5l-0.6,0.1v2v2v2v2l-0.3,0.2l-0.4,0.5l-0.5,0.1l-2.5,1.6l-0.4,0.5l-0.5,1.1
	l-0.8,1.2l-0.2,0.6l0,0.9l1.3,0.7l0.5,0.7l0.2,0.8l0,0.7l-0.6,1.4l-0.1,0.5l0.1,1.7l-0.3,0.5l0.3,1.4l0,0.5l-0.2,1.5l-0.1,0.4
	l0.3,0.8l0,0.1l1.2,1.1l1,0.6l0.9,0.2l0.7,0.5l0.5,0.7l0.7,0.5l0.9,0.2l0.9,0.6l1.3,1.5l0.7,1.2l1.2,0.9l1.9,0.9l1.2,0.8l0.6,0.7
	l0.4,1.8l0.3,3.8l-3.1,0h-3.1h-3.1h-3.1h-3.1h-3.1h-3.1h-3.1h-3.1h-3.1H308H305h-3.1h-3.1h-3.1h-3.1v-2.9V93v-2.9v-2.9v-3v-3v-3v-3
	l-0.7-1l-1.6-0.8l-0.4-0.5l-0.7-1.2l-0.3-0.5l0-0.4l0.3-0.5l1.4-1.3l0.5-0.6l0.2-0.6l0.3-1.3l-0.1-1l0.1-1.6l-0.3-1.2l-0.1-0.6
	l-0.2-0.8l-1.1-2l-0.3-1.6l-0.3-0.8l-0.1-2l0-0.6l0.2-1.1l-0.5-0.8l-0.1-0.6L289,47l-0.1-0.7l0-2.3l-0.8-2.4l-0.4-0.8l-0.2-1l0-0.5
	l-0.7-1.6l-0.5-1.8l0-1.6l-0.1-1.2l0-0.9l-0.1-1.4l0.1-0.8l0-1.3l-0.9-4.5h1.2h4h4h4h4l2.2,0l0-3l0-2.4l2,0.3l0.6,0.4l0.2,0.2
	l-0.1,0.7l0.2,2l0.4,1.7l0.8,2v0l0.1,0.8l0.3,0.5l0.5,0.5l2,0.5l3.4,0.6l1.9,0.7l0.5,0.8l0.9,0.3l1.3-0.2l1-0.4L321.7,29.6
	L321.7,29.6z M321.7,29.6L321.7,29.6L321.7,29.6L321.7,29.6z"/>
<path id="US-MO" class="st1" d="M340,138.2l-0.5,1.9l0,1.6l0.3,1.9l0.4,1.4l0.4,0.9l1.6,1.8l2.7,2.6l1.7,2.5l0.7,2.3l0.8,0.9
	l0.9-0.5l1.2,0.2l1.3,0.4l0.7,0.5l0.2,0.2l0.1,0.2l0,0.2l-0.2,0.5l-1.6,3.9l-0.5,1.8l0.1,0.7l0.6,1l1.2,1.3l1,0.8l0.9,0.4l1.4,1
	l1.9,1.6l0.9,1.2v0.8l0.2,0.8l0.4,0.8v0.8l-0.4,0.8l0.2,1l0.7,1.3l0.6,0.8l0.5,0.3l0.1,0l0-0.1l-0.1-0.2l0-0.2l0-0.2l0.1-0.1l0.1,0
	l0.5,0.3l0.7,0.7l0.3,0.9l-0.1,1.2l-0.3,1.1l-0.4,1l-0.5,0.4l-0.2-0.1l-0.5-0.2l-0.2,0.1l-0.4,0.3l-0.5,1l0,0l-0.2,0.1l-0.1-0.1
	l0-0.1l-0.1-0.3l-0.2-0.3h-0.2l-0.1,0l0,0.2l0,0.3l0,0.1l0.2,0.9l-0.1,0.6l-0.5,0.3l-0.1,0.3l0.3,0.4v0.2l-0.1,0.1l-0.3,0l-0.2,0.1
	l-0.2,0.3l0.4,0.6l-0.1,0.7l-0.5,0.9l-0.1,0.3l-1.7,0l-1.5,0l-1.5,0l-1.5,0l0.7-1.2l0.5-0.4l0.3-0.5l0.6-0.4l0.7-0.9l0.1-0.4
	l-0.1-0.4l-0.4-0.6l-0.4-0.9h-2.6h-2.6h-2.6h-2.6h-2.6h-2.6h-2.6H331h-2.6h-2.6h-2.6h-2.6h-2.6h-2.6h-2.6h-2.6v-1.5v-1.5v-1.5v-1.5
	v-1.5l0-1.5v-1.5v-1.5l0-1.5v-1.5l0-1.5v-1.5v-1.5l0-1.6v-1.5l0-1.6v-1.6v-1.6l0-1.6v-1.6l0-0.5l-1.5-0.8l-0.7-0.8l-0.3-1l-0.7-1
	l-1-1l-0.2-1.1l0.7-1.1l0.6-0.6l0.4,0l0-0.5l-0.3-1l-0.5-0.4l-0.7,0.3l-0.6,0l-2.2-1.6l-0.2-0.1l-0.7-1l-0.3-1.3l-0.5-0.8l-0.8-0.4
	l-0.5-0.8l-0.2-1.3l-0.5-1.3l-0.2-0.4l2.3,0l2.4,0l2.4,0l2.4,0l2.4,0l2.4,0l2.4,0l2.4,0l2.4,0l2.4,0l2.4,0l2.4,0l2.4,0l2.4,0l2.4,0
	l2.4,0l0.5,0.9l0.5,0.3l0.1,0.3l0.7,0.5l0.2,0.5L340,138.2z"/>
<path id="US-MS" class="st1" d="M370.7,202l0.8,0.8l0,0.3l0,0.2l-0.1,0.5l-0.2,2.1l-0.2,2.1l-0.2,2.1l-0.2,2.1l-0.2,2.1l-0.2,2.1
	l-0.2,2.1l-0.2,2.1l-0.2,2.1l-0.2,2.1l-0.2,2.1l-0.2,2.1l-0.2,2l-0.2,2l-0.2,2l-0.2,2l0.1,2.1l0.1,2.1l0.1,2.1l0.1,2.1l0.1,2l0.1,2
	l0.1,2l0.1,2.2l-2.8,0.2l-1.2-0.5l-0.5-0.1l-0.3,0l-1.4,0.5l-1.6,0.4l-0.4-0.1l-0.5,0l-1.2,1.3l-0.7,0.3l-0.2-0.1l-0.3-0.1l-0.2-0.2
	l-0.3-0.8l-0.1-0.6l-0.4-1.2l-0.5-0.7l-0.5-0.5l-0.3-0.5v-0.3l-0.2-0.5l0-0.4l0.7-1.7l0.3-1.3h-2.3h-2.3h-2.3H347h-2.3h-2.3h-2.3
	l-2.3,0l0-0.3l0.4-0.4l0.1-0.5l-0.3-1.2l0.1-0.7l0.6-0.1l0.3-0.6v-1.1l0.2-0.8l0.4-0.4l0.4-0.9l0.4-1.5l0.8-1.2l1.2-1l0.6-0.8l0-0.6
	l0.1-0.3l0.3-0.2l0.4-0.4l0.5-0.6l0.1-0.4l0-0.3l0-0.3l-0.4-0.6l-0.7-0.5l-0.4-0.7l0-0.6l-0.1-0.5l-0.3-0.4l0.1-0.4l0.5-0.4l0-0.3
	l-0.4-0.3v-0.6l0.4-0.8l0-0.6l-0.5-0.3l0-0.5l0-0.3l0.4-2l-0.1-0.3l-0.4-0.6l0-0.7l0.3-0.9l-0.1-0.7l-0.4-0.3l-0.1-0.3l-0.1-0.4
	l0.4-0.4l0-0.3l-0.3-0.3l0.2-0.5l0.8-0.6l0.2-0.3l0.2-0.3l0.1-0.8l-0.1-0.5l-0.2-0.3l0.1-0.2l0.2-0.2l0.9-0.3l0.3-0.2l0.1-0.3
	l-0.3-0.6l0.3-0.7l0.9-0.7l0.5-0.6l0-0.5l0.4-0.4l0.8-0.3l0.5-1l0.2-1.8l0.2-0.8l0.4-0.1l0.2-0.3l0.1-0.5l0.5-0.5l0.9-0.5l0.4-0.5
	l-0.1-0.3v-0.4h2.4h2.5h2.5h2.5h2.5h2.5h2.5L370.7,202L370.7,202z M367.1,255.2l-0.1,0.1l-0.8-0.2l-0.5-0.2l-0.1-0.2l1.4,0.4
	L367.1,255.2z"/>
<path id="US-MT" class="st1" d="M221.6,66.6l0,3.1l0,3.1l0,3.1l0,3.1v0l0,0v0v0h-0.1h-0.1h-0.1h-0.1h-2.1h-2.1h-2.1h-2.1h-2.1H209
	H207h-2.1h-2.1h-2.1h-2.1h-2.1h-2.1h-2.1h-2.1h-2.1h-2.1h-2.1h-2.1h-2.1h-2.1H176h-2.1h-2.1h-2.1h-2.1h-2.1h-2.1h-2.1h-2.1h-2.1
	h-2.1v1.7v1.7v1.6l0,1.7l-0.6-0.4l-0.4-0.4l-0.3-0.5l-0.6-1.3l-0.4-0.5l-0.3-0.3l-0.3,0l-0.4,0.2l-0.3,0.3l-0.1,0.5l-0.3,0.6l0,0.5
	l0.1,0.3l0,0.1l-0.2,0.1l-1.5-0.2l-1.3,0.3l-0.9-0.2l-1.7,0.1l-1.5-0.2l-0.5,0.1l-0.3,0.3L143,86l-0.1,0.1l-0.2,0l-2.4-0.4l-0.6,0
	l-0.7,0.5l-0.2,0.3l0,0.4l-0.2,0.1l-0.2,0l-0.5-0.3l-0.6-0.5L137,86l-0.1-0.8l-0.5-0.9l-0.1-0.8l-0.3-0.7l-0.4-0.7l-0.4-0.4
	l-0.4-0.1l-0.8,0.1l-0.2-0.1l-0.9-0.9l-0.3-0.4l-0.1-0.4l0.3-0.9l-0.1-0.5l-0.2-0.6l-0.3-0.5l-0.5-0.4l-0.5-0.9l-0.8-1.3l-0.2-1
	l-0.3-0.8l-0.1-0.8l-0.3-0.5l0-0.6l0-0.2l-0.1-0.1l-0.6-0.4l-0.7-0.6l-0.3-0.1h-0.1l-0.1,0.2l0,0.3l-1,1.1l-0.9,0.5l-0.4,0.5
	l-0.4,0.2l-0.2,0l-0.3-0.2l-0.9-0.7l-0.8-0.3l-0.1-0.2l0-0.6l0.3-0.7l-0.4-1.3l0.1-0.5L123,68l0.8-0.5l0.1-0.2l-0.2-1.2l-0.5-0.5
	l-0.1-0.3l0.1-1l-0.2-0.7l0.4-0.6l0-1l0.3-1l0.3-1.5L124,59l0.4-0.7l0.1-0.7l0-0.5l-0.1-0.3l-0.1-0.1H124l-1.3,0.3l-0.4,0l-0.4-0.1
	l-0.2-0.2l-0.1-0.6l-0.3-0.4l-0.2-0.1l-0.6,0.2l-0.1,0l-0.1-0.1l-0.2-0.5l-1-0.9l-0.5-1.1l-0.9-0.9L117,51l-1.7-2l-0.4-0.4l-1.3-0.7
	l-1-1l-1-0.7l-0.1-0.1l0-0.1l0.1-0.1l0.3-0.2l0.1-0.4l-0.4-0.8l0.2-0.8l-0.3-1l-0.1-0.4l-0.7-1l-0.5-0.9l-0.8-0.9l-1-1.4v-3.5v-3.5
	v-3.5v-3.5h1.7h4h4h4h4h0.9h3.1h4h4h4h4h4h4h4h4h3h1h4h4h4h4h4h4h4h4h4h4h4h4h4h3l0,2.7l0,2.7l0,2.7l0,2.7l0,2.7l0,2.7l0,2.7l0,2.6
	l0,2.6l0,2.6l0,2.6l0,2.6l0,2.6l0,2.6l0,2.6L221.6,66.6z"/>
<path id="US-NC" class="st1" d="M485.6,184l-0.3,0.9l0.1,0.5l0.5,0.5l0.5,1.3l0.4,1.8l-0.6-0.7l-0.6-0.4l-1-0.3l-0.9-0.5l0.1,0.8
	l-0.1,0.8l-0.7-0.3l-0.5-0.3l0.4,0.9l-0.9-0.3l-0.6,0l-0.4,0.8l-0.5,0.5l-0.8,0.2l-1.1-0.7l-0.4-0.8l-0.2-0.9l-0.1,1.1l0.2,1.2
	l-0.1,0.9l1.1,0.2l1-0.1l1.4,0l0.9-0.2l0.5-0.3l1.3,0.2l0.1,1.1l-0.2,1l-0.1,1.1l0.4,0l0.4-0.4l0.2-2l1.2-0.7l0.4,0l0.4,0.7l0.1,0.7
	l0.1,0.9l-0.3,1.4l-1.8,1.6l-1.3,1.5l-0.7,0.3l-1-0.2l-1.1-0.4l-0.5-0.1l-0.4,0.1l-0.3-0.5l-0.2-0.8l-0.4-0.3l-0.3,0l-0.2,0.9
	l-1,0.3l-1.4-0.4l-1.4-0.7l0.6,0.8l3.6,1.5l0.4,0.3l0.4,0.4l-0.5,0.6l-0.4,0.7l-0.1,0.6l-0.1,0.3l-1.4,1l-0.8-0.2l-2-1.7l0.9,1.5
	l0.7,0.6l1.5,0.3l2.7-0.5l0.9,0.6l-0.7,1.1l-0.7,0.8l-1,0.1l-0.8,0.2l-0.3,0.5l-0.6,0l-0.9,0l-1.5,0l-0.8-0.1l-1.1,1l-0.4,0.1
	l-0.6-0.2l-0.3-0.8l-0.3-0.4l0,1.6l0.1,0.4l0.2,0.3l-1.3,0.9l-1.2,1.1l-0.5,0.3l-0.5,0.5l-1,1.5l-0.3,1.1l-0.4,1.3l0-0.6l0.1-1
	l-0.3-1.1l-0.2,2l-0.4,0.9l-3.7-0.1l-1.5,0.5l-1.4-1.4l-1.3-1.3l-1.3-1.3l-1.3-1.3l-1.3-1.3l-1.3-1.3l-1.3-1.3l-1.3-1.3l-1.3,0
	l-1.3,0l-1.3,0l-1.3,0l-1.3,0l-1.3,0l-1.3,0l-1.3,0l0-0.9l0-0.6l-0.8-1.1l-0.5-0.6l-1,0.5l-0.1-0.3l0-0.5l-0.1-0.2l-0.3-0.1
	l-1.5-0.1l-1.5-0.1l-1.5-0.1l-1.5-0.1l-1.5-0.1l-1.5-0.1l-1.5-0.1l-1.5-0.1l-0.3-0.1l-0.7,0.4l-1.8,0.6l-0.9,0.5l-0.3,0l-1.5,0.5
	l-1.5,0.5h-0.2l-2.8,0l-2.8,0l-2.8,0l-2.8,0l0.3-2.4l0.2-0.6l0.3-0.1l1,0l0.6-0.3l0.5-1.5l1.3-1.2l0.6-0.3l0.8-0.2l2-0.3l2.1-1.1
	l1.5-1.1l1.2-0.3l0.4-0.4l0.3-0.5l0.2-0.7l0.1-0.2l0.7,0l0.5-0.6l0.5-0.3l0.5-0.2l0.3,0l0.1,0.2l0.1,0.5l0.1,0.2l0.2,0l0.3-0.1
	l0.4-0.3l1-1l0.7-0.4l1.1-0.2l0.8,0.5l0.5-0.2l1.3-2.1l0.5-0.4l0.4-0.2l0.7,0l0-0.6l0.2-0.9l0-0.6l0.4-0.9l0.2,0.2l3.4,0l3.4,0
	l3.4,0l3.4,0l3.4,0l3.4,0l3.4,0l3.4,0l3.4,0l3.4,0l3.4,0l3.4,0l3.4,0l3.4,0l3.4,0L485.6,184L485.6,184z M486.4,184h0.3l0.9,3.7
	l1.9,4.1l0.2,0.7l-0.4-0.6l-1.4-2.7l-0.8-2L486.4,184L486.4,184z M488.8,192.1l-0.1,0.2l-0.6-1.3l0.6,0.4l0.1,0.3L488.8,192.1
	L488.8,192.1z M489.6,199.2l-1.3,0.3l-0.1-0.1l1.5-0.7l0.5-2.3l0.1-1.1l-0.2-1.9l0-0.4l0.2,0.6l0.2,1.8l-0.1,1.3l-0.4,1.9
	L489.6,199.2L489.6,199.2z M487.4,199.8l-1.7,0.8l-0.2,0l1.1-0.6L487.4,199.8z M480.6,206l-0.2,0.1l0.9-1.4l1.7-1.8l0.5-0.3
	l-1.4,1.5L480.6,206L480.6,206z M480.2,205.9l-0.2,0l-0.4-0.1l-0.5-0.2l-0.1-0.2l0.5,0.1L480.2,205.9L480.2,205.9z"/>
<path id="US-ND" class="st1" d="M291.8,66.6h-2.2h-2.2h-2.2H283h-2.2h-2.2h-2.2h-2.2h-2.2h-2.2h-2.2h-2.2h-2.2h-2.2h-2.2h-2.2h-2.2
	h-2.2h-2.2H248h-2.2h-2.2h-2.2h-2.2H237h-2.2h-2.2h-2.2h-2.2H226h-2.2h-2.2l0-2.6l0-2.6l0-2.6l0-2.6l0-2.6l0-2.6l0-2.6l0-2.6l0-2.6
	l0-2.7l0-2.7l0-2.7l0-2.7l0-2.7l0-2.7l0-2.7h1h4h4h4h4h4h4h4h4h4h4h4h4h4h4h4h2.9l0.9,4.5l0,1.3l-0.1,0.8l0.1,1.4l0,0.9l0.1,1.2
	l0,1.6l0.5,1.8l0.7,1.6l0,0.5l0.2,1l0.4,0.8L289,44l0,2.3l0.1,0.7l0.2,4.9l0.1,0.6l0.5,0.8l-0.2,1.1l0,0.6l0.1,2l0.3,0.8l0.3,1.6
	l1.1,2l0.2,0.8l0.1,0.6l0.3,1.2l-0.1,1.6L291.8,66.6z"/>
<path id="US-NE" class="st1" d="M292.5,111.5l0.3,0.1l0.6,1.1l0.3,2l0.6,1.6l0.9,1.2l0.4,0.9v0.6l0.2,0.6l0.4,0.7l0.2,1.1l-0.1,1.5
	l0.2,0.8l0.4,0.1l0.2,0.2l-0.1,0.3l0.1,0.3l0.4,0.2l0.1,0.4l-0.2,0.7l0.1,0.5l0.4,0.2l0.1,0.4l-0.3,0.5l0,0.4l0.3,0.3l0.2,1.3
	l0.1,2.4l0,1.4l-0.2,0.4l0.3,0.8l0.6,0.9l0.2,0.4l0.5,1.3l0.2,1.3l0.5,0.8l0.8,0.4l0.5,0.8l0.3,1.3l0.7,1l0.2,0.1h-1.7h-2h-2h-2h-2
	h-2h-2h-2h-2h-2h-2h-2h-2h-2h-2h-2h-2h-2h-2h-2h-2h-2h-2h-2h-2h-2h-2h-2h-2h-2h-2h-2v-1.5v-1.5v-1.5v-1.5v-1.5v-1.5V132l0-1.5H238
	h-2.3h-2.3h-2.3h-2.3h-2.3h-2.3h-2.3l0-3.1l0-3.1l0-3.1V118l0-3.2l0-3.2l0-3.2l0-3.2h3.3h3.3h3.3h3.3h3.3h3.3h3.3h3.3h3.3h3.3h3.3
	h3.3h3.3h3.3h3.3h3.7l2.8,1.9l1.7,0.6l0.8-0.6l1.7-0.3l2.7-0.1l1.7,0.3l0.7,0.6l1.4,0.7l2,0.8l1.2,0.8l0.4,0.9l0.7,0.5L292.5,111.5z
	"/>
<path id="US-NH" class="st1" d="M534.9,104.4l-0.4,1.7l-0.3,0.8l-1.1-0.1l-0.5,0.1l-1,0.6l-0.6,0.2l-1,1l-0.8,0.3l-1.3,0l-1.3,0
	l-1.3,0l-1.3,0l-1.3,0l-1.3,0l-1.3,0l-1.3,0l-0.2-0.5l-0.5-0.8l-0.1-0.3l0-0.4l0.3-1l0.2-0.3l0.2-0.6l0.3-2.4l0.3-1.4l0.2-2.5
	l0.2-0.8l0.2-0.5l0.4-1.2l0.7-1l0.5-1.2l0.5-1.1l0.1-0.6l0.4-1.4l0.3-2.4L523,88l1.3-0.3l0.4-0.3l1.3-1l0.4-0.4l0.3-0.4l0.2-0.7
	l0.2-0.2l0-0.4l-0.5-1.6l0-0.6l1-1.8l-0.2-1l0.2-0.3l0.9-2.6l0.9-1.2l1.2,0.4l0.6,0l0.5-0.4l0.1,1.3l0.1,1.5l0.1,1.5l0.1,1.5
	l0.1,1.5l0.1,1.5l0.1,1.5l0.1,1.5l0.1,1.5l0.1,1.5l0.1,1.4l0.1,1.5l0.1,1.4l0.1,1.4l0.1,1.4l0.1,1.4l0,1l0.1,0.9l0.3,0.8l0.8,1.2
	l0.2,1L534.9,104.4z"/>
<path id="US-NJ" class="st1" d="M505,130.6l-0.2,1l-0.9,2l-0.4,0.5l-0.5,0.4l-0.3,0.2l-0.3,0.3l-0.4,0.5l-0.3,1l0.2,0.9l1.8,0.3
	l0.5-0.3l0.3,0.6l0.1,0.9l-0.1,1l-0.3,1l-0.2,1.2l-0.2,1.8l-0.3,1.7l0-0.5l0.2-2l-0.3,0.2l-0.2,0.5l-0.5,2.6l-0.8,1.4l-0.7,1
	l-0.7-0.2l0.2,0.8l-0.2,0.4l-0.2,0.8l-0.4,0.5l-0.4,0l-0.6,0.4l-0.2,0.3l0,0.5l-0.4,0.5l-1.4,2.5l-1.2,0.7l-0.3-0.1l0.3-1.2l0.2-1.2
	l-0.7-0.5l-0.7-0.3l-0.8,0l-0.9-0.9l-1.2-0.7l-1.6-1.8l0-0.5l0-0.8l0.5-1.3l0.5-0.9l0.7-0.5l1.9-0.5l0.5-0.8l0.3-0.6l0.5-0.4
	l1.1-0.8l1.6-0.9l-2.3-3.1l-0.5-0.2l-0.6-1.5l-0.7-0.4l-0.2-0.2l0-1.2l0.1-0.7l0.1-0.4l0.6-0.3l0.3-0.7l0-0.3l-0.5-1.1v-0.3l0.9-0.7
	l1.1-1.3l0.7-1.4l0.3-0.4l0.3-0.3l0.7-0.4l0.9,0.6l0.9,0.6l0.9,0.6l0.9,0.6l0.9,0.6l0.9,0.6l0.9,0.6L505,130.6L505,130.6z
	 M502.9,146.7l-1.1,1.8l0-0.3l1.4-2.3L502.9,146.7L502.9,146.7z"/>
<path id="US-NM" class="st1" d="M231.2,184.6l-0.4,0l0,3.3l0,3.3l0,3.3l0,3.2l0,3.2l0,3.2l0,3.2l0,3.2l0,3.2l0,3.2l0,3.2l0,3.2
	l0,3.1l0,3.1l0,3.1l0,3.1h-2.1h-2.1h-2.1l-2.1,0H220h-2.1h-2.1h-2.1h-2.1h-2.1h-2.1h-2.1l-2.1,0h-2.1h-2.1h-2.1h0l1,2h0l1.1,0.6
	l-0.1,0l-2.1,0l-2.1,0l-2.1,0l-2.1,0l-2.1,0l-2.1,0l-2.1,0l-2.1,0v1.2l0,1.2v1.2l0,1.2l-3.3,0l-3.3,0h-1.2v-3.9v-3.9v-3.9v-3.9v-4
	v-4v-4v-4v-4v-4v-4.1v-4.1v-4.1v-4.1l0-4.1v-4.2h3.5h3.6h3.6h3.5h3.6h3.6h3.6h3.5h3.6h3.6h3.5h3.6h3.6h3.5h3.6h3.6v1.5v1.5v1.5
	L231.2,184.6z"/>
<path id="US-NV" class="st1" d="M127.2,178.7l0,4.6l0,5l-0.2,0.1l-0.5,1.2l-0.6,0.5l-0.5,0l-0.5-0.3l-0.5-0.7l-0.7-0.4l-0.9-0.1
	l-0.8,0.1l-0.7,0.3l-0.4,0.4l-0.2,0.8l0.1,0.3l0.4,0.8l0,1.2l0.1,1l0.3,0.5l0,0.6l-0.2,1l0.1,0.8l0.5,1.4l-0.2,4.1v0.1l-2.6-2.4
	l-2.4-2.3l-2.4-2.3l-2.4-2.3l-2.4-2.3l-2.4-2.3l-2.4-2.3l-2.4-2.3l-1.7-1.6l-1.7-1.6l-1.7-1.6l-1.7-1.6l-1.7-1.6l-1.7-1.6l-1.7-1.6
	l-1.7-1.6l-2.2-1.9l-2.2-1.9l-2.2-2l-2.2-2l-2.2-2l-2.2-2l-2.2-2l-2.2-2v-2.3l0-2.3v-2.3v-2.3v-2.3v-2.3V139v-2.3v-2.3V132v-2.3
	v-2.3V125v-2.3v-2.4V118h3.5h3.5h3.5h3.5h3.5h3.5h3.5h3.5h3.5h3.5l3.5,0h3.5h3.5h3.5h3.5h3.5v2v2v2v2v2v2v1.9v1.9v1.9v1.9v1.9v1.9
	l0,1.9v1.9v1.9v1.9v1.9v1.9v1.9v1.9v1.9v1.9v1.9v1.9v1.9v1.9l0,1.8v1.8v1.8v1.8v1.8L127.2,178.7z"/>
<path id="US-NY" class="st1" d="M511.2,108.4l-0.3,1.1l-0.3,1.1l-0.3,1.1l-0.3,1.1l-0.3,1.1l-0.3,1.1l-0.3,1.1l-0.3,1.1l0.3,0.3
	l-0.1,1.2l-0.1,1.2l-0.1,1.2l-0.1,1.2l-0.1,1.2l-0.1,1.2l-0.1,1.2l-0.1,1.2l0.3,0.5l0.3,0.5l-0.3,0.2l-0.5,0.3l-0.6,0.4l-0.8,0.5
	l0.4,0.6l0.5,0.8l-0.4,0.3l-1,1.1l-0.7,0.6l-0.6,0.2l-0.3,0.5l-0.4,0.3l0.4-1.1l0.4-0.9l0.3-1.8l-0.1-1.4l-0.4-0.6l-0.4-0.4l0.5,1.4
	l0.1,1.7l0,0l-0.9-0.6l-0.9-0.6l-0.9-0.6l-0.9-0.6l-0.9-0.6l-0.9-0.6l-0.9-0.6l-0.9-0.6l-0.2-0.5l-0.3-0.4l-1.7-0.6l-0.4-0.4
	l-0.4-0.6l-0.3-0.7l-0.1-0.7l0-0.6l0.1-0.7l-0.4-0.4l0-0.4l-0.3-0.3l-1.1-0.5l-0.3-0.7l-0.7-0.7h-1.3h-1.3h-1.3h-1.3h-1.3h-1.3h-1.3
	H481h-1.3h-1.3h-1.3h-1.3h-1.3h-1.3h-1.3h-1.3h-1.3H468h-1.3h-1.3h-1.3h-1.3h-1.3h-1.3h-1.3h-1.3h-1.3H455h-1.3h-1.3h-1.3h-1.3v-1.7
	v-1.7v-0.1l0.5-0.3l1.8-1.2l0.9-0.8l1-0.7l1-0.5l0.8-0.7l0.6-0.9l0.7-0.7l0.7-0.4l0.4-0.5l0-0.5l-0.1-0.6l-0.3-0.8l0-0.6l0.2-0.5
	l0-0.3l-0.1-0.2l-1.5-0.5l0.1-2.2l0-0.1l0.1,0l3.4-1l2.2-0.3l2.7-0.1l3.2,0.5l1.2,0.4l0.8,0.6l0.9,0.2l1-0.3l1.4-0.1l1.8,0.1l1,0.1
	l0.1,0.2l0.1,0l0.1-0.3l0.5-0.3l1.3-0.5l0.2,0.1l0.3-0.2l0.4-0.6l0.7-0.6l1-0.7l0.9-0.4l0.8,0l0.5-0.2l0.3-0.3l0.1-0.3l-0.1-0.2
	l0-0.3l0-0.1l0-0.1l-0.1-0.2l-0.1-1.1L483,95l-0.2-0.4l-0.1-0.3l0-0.3l0.5-0.3l0,0.3l0.1,0.1l0.2-0.1l0.5-0.7L484,93l0.4-0.3
	l0.3-0.4l-0.3-0.1l-0.7,0.1l-0.2-0.1l0.4-0.5l-0.1-0.3l-0.1-0.1l-0.2,0l-0.8,0.5l-0.2,0l0-0.3l-0.4-0.6l1.1-1l3.8-2.8l0.4-0.4
	l0.1-0.4l-0.1-0.3l-0.1-0.1l0.1-0.1l3.7-3.6l2.1-1.7l1.7-0.9l1.3-0.5l0.9,0.1l0.5-0.1h0.4h2.2l3.9,0l3.9,0h2.3l0.1,0.9l-0.2,1
	l0.2,1.1l-0.2,2.4l0.6,1.8l-0.1,1.2l0,1.3l-0.1,0.3l-0.5,0.8l-0.3,0.7l-0.2,0.7l0,0.5L510,94l0.1,0.9l0,0.5l-0.3,1.7l0,0.5l0.1,0.1
	h0.1l0.4-0.5l0.2-0.1l0.2,0.1l0.6,0.8l0,1.5l0,1.1l0,1.2l0,1.8l0,1.3l0,1.2l0,0.9l-0.1,0.7L511.2,108.4L511.2,108.4z M484.3,88.7
	l-0.3,0.1l-0.1-0.1l0-0.1l0.3-0.2h0.4l0,0.1L484.3,88.7L484.3,88.7z M482.9,92.5l-0.1,0l0-0.3l0.1-0.2l0.3-0.1l0,0.1L482.9,92.5
	L482.9,92.5z M457.7,105l-0.3,0.4l-0.3,0l-0.2-0.1l-0.1-0.3l0-0.3l0.3-0.2l0.7,0.1l0,0.1L457.7,105L457.7,105z M518.2,130.7
	l-0.7,0.8l0.6,0.1l0.5-0.2l0.5-0.5l1.1-0.7l1-0.3l0.3-0.1l0.5,0.5l0.9-0.4l0.9-0.2l-4.1,2.1l-0.8,0.2l-1.2,0.6l-1.1,0.4l-0.8,0.2
	l-4.1,1.5l-0.3,0l-0.3-0.2l-3.3,0.8l-1.4,0.1l-1.3,0.3l0.9-0.6l0-0.2l-0.2-0.2l-0.5,0l-0.5,0.7l-0.8,0.2l-0.2-0.7l0.3-0.5l0.4-0.5
	l0.8-0.8l1.2-0.5l0.6-0.5l0.4,0.4l0.1-0.5l0.3-0.3l0.3-0.2h0.8l0.4-0.1l0.3-0.2l0.3,0l0.9,0.2l0.9-0.1l0.7-0.3l0.7-0.1l1.9-0.1
	l1.9-0.3l0.8-0.4l1.6-1.2l0.9-0.3L519,130L518.2,130.7L518.2,130.7z M502.4,136.4l-0.5,0l0.5-1.2l0.8-0.5l0.3,0.1l0,0.4l-0.1,0.4
	l-0.5,0.5L502.4,136.4L502.4,136.4z"/>
<path id="US-OH" class="st1" d="M442.8,134.9l-1.1,0.5l-0.2,0.5l0.3,0.6l0.2,0.8l0,1l-0.6,2.2l-1.3,3.4l-0.6,2.1l0,0.9l-0.8,1.1
	l-1.7,1.4l-1.2,0.8l-0.7,0.3l-0.6,0l-0.4-0.3l-0.5,0.2l-0.6,0.8l-0.5,0.4l-0.5,0l-0.4,0.5l-0.3,1l-0.3,0.6l-0.3,0.2l0,0.5l0.3,0.9
	l0,0.3l-0.1,0l-0.1,0l-0.3,0.2l-0.4,0.5l-0.1,0l-0.1-0.1l-0.1-0.6l-0.3-0.4l-0.5-0.3l-0.7,0.6l-0.9,1.4l-0.4,0.9l0.1,0.6l0.1,0.9
	l-0.2,0.4l-0.5,0.1l-0.4,0.5l-0.3,0.9l-0.7,0.5l-1,0.2l-1.1-0.4l-0.1,0l-1.3-1.1l-0.8-1l-0.3-1l-1.1,0l-1.9,0.9l-1.4,0.1l-1-0.6
	l-0.7-0.3l-0.7,0.2l-0.7,0.4l-0.6-0.2l-0.7-0.7l-1.1-0.5l-1.5-0.3l-1.1-0.8l-0.6-1.3l-0.6-0.9l-0.7-0.5l-0.8-0.1l-0.8,0.2l-0.6-0.1
	l-0.4-0.4l-0.6,0l-0.5,0.4l0-4l0-4l0-4l0-4l0-4l0-4l0-4.1l0-4.1l3.1-0.1l3.1-0.1l3.1-0.1l3.1-0.1l0.1-0.1l0,0l0.1,0.2l0.8,0.1
	l0.6,0.3l0.5,0.4l1.6,0.8l0.5,0.5l0.5,0.3l0.5,0l0.3-0.2l0.2-0.3l0.2,0l0.3,0.3l0.9,0.3l0,0.1l-2.5,0.6l-0.5,0.3l0.6,0.2l0.6,0
	l0.7-0.3l0.8,0l0.7,0.1l0.2-0.1l0.1-0.1l1.1,0.8l0.4,0.1l0.4-0.1l0.5-0.3l1-0.4l1.5-0.5l1.5-0.2l1.4,0.1l0.9-0.1l0.8-0.5l1.8-1.5
	l2-1.2l3.4-1.5l3.3-1.2v1v1.3v1.3v1.3v1.3v1.3v1.3v1.3v1.3v1.3v1.3v1.3L442.8,134.9z"/>
<path id="US-OK" class="st1" d="M310.1,184.6l0.2,1.6l0.2,1.6l0.2,1.6l0.2,1.6l0.2,1.6l0.2,1.6l0.2,1.6l0.2,1.6l0,1.2l0,1.3l0,1.3
	l0,1.2l0,1.2l0,1.2l0,1.2l0,1.2l0,1.2l0,1.2l0,1.2l0,1.2l0,1.2l0,1.2l0,1.2l0,1.2l-2.1-0.6l-0.5-0.4l-1-0.4l-0.9-0.8l-1.7-1.1
	l-0.7-0.3l-0.2,0l-0.3,0.5l-0.9,0.4l-0.5,0l-0.9-0.2l-0.2-0.1l-0.1-0.3l-0.4-0.2l-0.3,0.2l-1.3,0.4l-0.2,0.3l-0.8,0l-0.7-0.2
	l-1.9,0.7l-0.6,0.5l-0.7,0.2l-0.3,0.5l-0.2-0.1l-0.7-0.7l-0.7-0.2l-1-0.6l0-0.6l-0.1-0.1l-0.2-0.1l-0.2,0l-0.4,0.5l-0.3,0.1l-0.2,0
	l-1-0.3l-0.4-0.6l-0.2-0.2l-0.2,0l-0.4,0.2l-0.2,0.6l-0.2,0.2l-0.4,0.1l0,0.3l-0.3,0.9l-0.2,0.2l-0.3,0l-0.3-0.2l-0.2-0.3l-0.1-0.3
	l0.1-0.7l-0.1-0.2l-0.2-0.1l-0.5,0.3l-0.4,0l-0.5,0.3l-0.3,0.1l-0.3-0.1l-0.5-0.5l-0.8-0.3l-0.3-0.6l-0.2-0.2l-0.2,0l-0.2,0
	l-0.3,0.2l-1,0.8l-0.4,0.3l-0.4,0l-0.4-0.1l-0.2-0.2l0-0.8l-0.2-0.3l-0.9-0.5l-0.2-0.5l-0.1-0.7l-1.1,0.1l-1.3-0.1l-0.6,0.6
	l-0.3,0.1l-0.4-0.1l-1.1-0.8l-1.2,0.2l-0.7-0.1l-1.6-0.6l-1.3-0.1l-0.5-0.1l-0.3-0.1l-0.1-0.9l-0.5-0.8l-0.2-0.2l-0.8-0.5l-0.1,0
	l-0.1,0.1l-0.2,0.6l-0.3,0l-1-0.2l-0.9,0.2l-0.5-0.3l-1.7-1.5l-0.7-0.4l-0.6-0.1v-1.4v-1.4v-1.4v-1.4l0-1.4v-1.4v-1.4v-1.4v-1.4
	v-1.4l0-1.4v-1.4v-1.4v-1.4V186l0-1.4h-1.8h-1.8h-1.8h-1.8h-1.8h-1.8H247h-1.8h-1.8h-1.8H240h-1.8h-1.8h-1.8h-1.8h-1.8v-1.5v-1.5
	v-1.5v-1.5h2.3h2.3h2.3h2.3h2.2h2.2h2.2h2.2h2.2h2.2h2.2h2.2h2.2h2.2h2.2h2.2h2.2h2.2h2.2h2.2h2.2h2.2h2.2h2.2h2.2h2.2h2.2h2.2h2.2
	h2.2h2.2h2.2h2.2h2.2h2.2h2.2v1.5v1.5v1.5L310.1,184.6z"/>
<path id="US-OR" class="st1" d="M40.8,63.7l0.9-0.3l0.7,0.3l0.9,0.6l0.9,1.9l0.9,3.1l0.2,1l0.7,0.6l0.8,0l3.4,0.5l0.5,0l0,0l0.6-0.1
	l1.9-1.2l2.1-0.4l2.5,0.1l1.5,0.3l0.5,0.6l1.3,0.1l3.1-0.7l3.4-0.5l1.8-0.5l2.1-1l4.8-1.3l2.4-0.1l1.2-0.5l0.3-0.3l0.2,0H83h2.5
	l2.5,0h2.5H93l2.5,0H98h2.3l0.3,0.6l1,1.2l1.4,1l0.9,1l0.4,1.1l-0.7,2.5l-1.8,3.8l-1,2.4l-0.2,1.1l-0.9,1.8l-1.6,2.5l-0.8,1.9l0,1.2
	l0.5,0.7l1,0.2l0.7,0.4l0.4,0.6l0,0.6l-0.4,0.5l-0.1,0.5l0.2,0.5l-0.1,1l-0.6,2l0,0.1V98l0,2.9v2.9v2.9l0,2.8v2.8l0,2.8v2.8h-3.5
	h-3.5h-3.5h-3.5h-3.5h-3.5h-3.5h-3.5h-2.5h-2.5h-2.5h-2.5h-2.5h-2.5h-2.5h-2.5h-2.5h-2.5h-2.5h-2.5h-2.5h-2.5h-2.5l-2.6,0l-1.2-1.5
	l-0.5-2.3l-0.1-1l0.1-2.6l-0.4-1.1l-0.9-1.8l0.4-1.6l0.4-1l1-4.2l0.2-0.3l0.4,0l0.7-0.7l-0.3-0.2l-0.5,0.3l0.5-1.7l0.5-1.5l0.3-0.5
	l0.2-4.7l0.3-3.6l0.5-1.2l-0.2-1.2l0.2-1.7l-0.1-1.7l1-8.3l-0.1-1l0.3-1.4l-0.3-3.6l0.1-4l-0.3-0.5l-0.1-0.6l0.3-0.1l0.5,0.6l2.2,0
	l1.4-0.5l0.5,0.2l0.6,0.7l0.8,0.1L40.8,63.7z"/>
<path id="US-PA" class="st1" d="M497.6,126l-0.7,0.4l-0.3,0.3l-0.3,0.4l-0.7,1.4l-1.1,1.3l-0.9,0.7v0.3l0.5,1.1l0,0.3l-0.3,0.7
	l-0.6,0.3l-0.1,0.4l-0.1,0.7l0,1.2l0.2,0.2l0.7,0.4l0.6,1.5l0.5,0.2l2.3,3.1l-1.6,0.9l-1.1,0.8L494,143l-0.9,1.1l-1.4,0.4l-0.8,0.4
	l-0.2,0.2l-0.8-0.3l-1.2,0l-0.4,0.2l-0.3,0.3l-0.7,1h-2.2H483h-2.2h-2.2h-2.2h-2.2h-2.2H470h-2.2h-2.2h-2.2h-2.2h-2.2h-2.2l-2.2,0
	h-2.2l-1.2,0h-1.2h-1.2h-1.2h-1.2h-1.2H444h-1.2v-1.4v-1.4l0-1.4v-1.4v-1.4v-1.4v-1.4l0-1.4l0-1.3v-1.3V131v-1.3v-1.3v-1.3v-1.3
	v-1.3v-1.3v-1.3v-1.3v-1.3v-1l1.8-0.7l0.8-0.4l0.8-0.4l0.4-0.3l0.5-0.2l3-1.6v0.1v1.7v1.7h1.3l1.3,0h1.3h1.3h1.3h1.3h1.3h1.3h1.3
	h1.3h1.3l1.3,0h1.3h1.3h1.3h1.3h1.3h1.3h1.3h1.3h1.3l1.3,0h1.3h1.3h1.3h1.3h1.3h1.3h1.3h1.3h1.3l1.3,0l0.7,0.7l0.3,0.7l1.1,0.5
	l0.3,0.3v0.4l0.4,0.4l-0.1,0.7v0.6l0.1,0.7l0.3,0.7l0.4,0.6l0.4,0.4l1.7,0.6l0.3,0.4L497.6,126z"/>
<path id="US-RI" class="st1" d="M530.2,121.7l-0.3,0.3l-0.4-0.5l-0.2-0.5l-0.3-0.3l-0.3-0.1l0.3,1.2l-0.6,0.9l-0.2,2.3l-0.8,0.9
	l-2.3,0.6l-0.7-0.1l0.1-0.7l0.2-0.3l0-0.8l0-0.5l0-0.9l0-1l0-1.1l0-1l0-0.7l0-1v-0.7l0.7,0l1,0l0.9,0l0.6,0l0.7,0l0,0.6l0,0.9
	l0.4,0.1l0,0.7l0,0.5l0.3,0.3l0.3,0.3L530.2,121.7L530.2,121.7z M530.1,124.4l-0.5,0.3l-0.5-0.1l0.3-0.5l0.1-0.7l0.3-0.8l0.2-0.2
	l0.3-0.2L530.1,124.4z M529,124.4l-0.3,0.2l-0.1-0.6l0.2-0.7l0.2,0l0.1,0.4L529,124.4L529,124.4z"/>
<path id="US-SC" class="st1" d="M461.2,214.7l-0.1,0l-2.5,1.7l-0.7,0.7l-2,2.8l-0.5,1.8l-0.4-0.8l0.1-0.6l0-0.5l-0.5,1l0.5,1.5
	l-0.4,0.6l-1.3,1l-0.7,0.2l-0.8,0.3l-0.3,1l-1.1,0.9l-0.7,0.4l-1.2-0.3l0.4,0.9l-0.4,0.7l-0.8,0.5l-1,0.3l-0.5,0l-0.5,0.2l-0.4,0.4
	l-0.9,0.4l-0.9-0.2l-1-0.1l-0.6,0.2l1,0.4l0.5,0.6l-0.1,0.8l-0.3,0.3l-0.6,0.4l-0.3-0.1l-0.2-0.4l-0.2-0.8l-0.3,0.2l0,0.4l-0.3,0.1
	l-0.9-1.2l0,0.9l0.3,0.7l0.3,0.4l0.3,0.2l0.1,0.3l-0.6,0.8l-0.3,0.2l-0.5,0.1l-0.3,0.5l0.1,0.4l-1.9-0.9l-0.6-0.8l0-1l-0.4-1.2
	l-1.1-2l-0.8-0.6l-0.5-1.3l-0.5-2.3l-0.8-1.5l-1.1-0.7l-0.8-0.8l-0.4-0.9l-0.4-0.6l-0.4-0.3l-0.2-0.5l0-0.7l-0.7-0.8l-1.9-1.6
	l-0.5-1l-0.9-1l-2.2-2l0,0l-2.2-4h0l-0.3-0.8l-0.5-0.3l-0.7-0.1l-0.7-0.4l-1.1-1l0,0l-1.8-1.2l0.4-1.1l1.4-1.5l0.5-0.8l0.1,0h0.2
	l1.5-0.5l1.5-0.5l0.3,0l0.9-0.5l1.8-0.6l0.7-0.4l0.3,0.1l1.5,0.1l1.5,0.1l1.5,0.1l1.5,0.1l1.5,0.1l1.5,0.1l1.5,0.1l1.5,0.1l0.3,0.1
	l0.1,0.2l0,0.5l0.1,0.3l1-0.5l0.5,0.6l0.8,1.1l0,0.6l0,0.9l1.3,0l1.3,0l1.3,0l1.3,0l1.3,0l1.3,0l1.3,0l1.3,0l1.3,1.3l1.3,1.3
	l1.3,1.3l1.3,1.3l1.3,1.3l1.3,1.3l1.3,1.3L461.2,214.7z"/>
<path id="US-SD" class="st1" d="M291.8,66.6l-0.3,1.3l-0.2,0.6l-0.5,0.6l-1.4,1.3l-0.3,0.5l0,0.4l0.3,0.5l0.7,1.2l0.4,0.5l1.6,0.8
	l0.7,1v3v3v3v3V90V93v2.9v2.9l-1.4,0l0.2,0.8l0.4,0.8l0.1,0.5l-0.1,0.4l-0.3,0.3l0.1,0.5l0.1,0.2l0.6,0.3l0.2,0.5l0.1,0.5l0,0.4
	l-0.4,0.7l-0.1,1l-0.5,1.4l-0.5,0.9l-0.1,0.4l0,0.3l0.8,0.9l0,0.4l0.3,0.5l0.2,1l-0.7-0.2l-0.7-0.5l-0.4-0.9l-1.2-0.8l-2-0.8
	l-1.4-0.7l-0.7-0.6l-1.7-0.3l-2.7,0.1l-1.7,0.3l-0.8,0.6l-1.7-0.6l-2.8-1.9h-3.7h-3.3h-3.3h-3.3h-3.3h-3.3h-3.3h-3.3h-3.3H241h-3.3
	h-3.3h-3.3H228h-3.3h-3.3l0-3.2l0-3.2l0-3.2l0-3.3l0-3.3l0-3.3l0-3.3l0-3.3h0.1h0.1h0.1h0.1v0v0l0,0v0l0-3.1l0-3.1l0-3.1l0-3.1h2.2
	h2.2h2.2h2.2h2.2h2.2h2.2h2.2h2.2h2.2h2.2h2.2h2.2h2.2h2.2h2.2h2.2h2.2h2.2h2.2h2.2h2.2h2.2h2.2h2.2h2.2h2.2h2.2h2.2h2.2h2.2
	L291.8,66.6z"/>
<path id="US-TN" class="st1" d="M413.1,183.4l2.1,0l4.6,0l3.2,0l2.7,0l1.6,0l2,0l0.4-0.2l1,0l1.3,0l-0.4,0.9l0,0.6l-0.2,0.9l0,0.6
	l-0.7,0l-0.4,0.2l-0.5,0.4l-1.3,2.1l-0.5,0.2l-0.8-0.5l-1.1,0.2l-0.7,0.4l-1,1l-0.4,0.3l-0.3,0.1l-0.2,0l-0.1-0.2l-0.1-0.5l-0.1-0.2
	h-0.3l-0.5,0.2l-0.5,0.3l-0.5,0.6l-0.7,0l-0.1,0.2l-0.2,0.7l-0.3,0.5l-0.4,0.4l-1.2,0.3l-1.5,1.1l-2.1,1.1l-2,0.3l-0.8,0.2l-0.6,0.3
	l-1.3,1.2l-0.5,1.5l-0.6,0.3l-1,0l-0.3,0.1l-0.3,0.6l-0.3,2.4l-3.1,0l-3.1,0l-3,0l-3.1,0l-1.5,0l-1.5,0l-1.5,0l-1.5,0l-1.5,0l-1.5,0
	l-1.5,0l-1.5,0l-1.5,0l-1.5,0l-1.5,0l-1.5,0l-1.5,0l-1.5,0l-1.5,0l-1.5,0l-0.1,0l0.1,0.1l0.2,0.2h-2.6l-2.5,0h-2.5h-2.5l-2.5,0h-2.5
	h-2.5l-2.4,0v0l0.3-0.5l1.1-0.8l0.5-1l-0.1-1.3l0.4-1.1l0.9-1l0.4-1l-0.2-1l0.5-0.8l1.1-0.6l0.2-0.3l0-0.2l0-0.2l0-0.1l0-0.2
	l0.2-0.1l0.3-0.1l0.1-0.2v-0.3l-0.2-0.5l0-0.2l0.1-0.3l0.5-0.9l0.1-0.7l-0.4-0.6l0.2-0.3l0.2-0.1l0.3,0l0.1-0.1v-0.2l-0.3-0.4
	l0.1-0.3l0.5-0.3l0.1-0.6l-0.2-0.9l0.7,0l0,0.1l0.1,0.1l0.2-0.1l0,0h1.9h1.6h1.6l1.6,0h1.6h1.6h1.6h1.5l0,0v-1l-0.4-1.2h0l1.3,0.1
	l0.8,0.1l0.3,0.4l3.1-0.1l3.1-0.1l3.1-0.1l3.1-0.1l3.3,0.1l3.3,0.1l3.3,0.1l3.3,0.1l3.3,0.1l3.3,0.1l3.3,0.1l3.3,0.1l0.1,0l0.1,0
	l0.1,0l0.1,0l0.1,0l0.1,0L413.1,183.4L413.1,183.4z"/>
<path id="US-TX" class="st1" d="M311.3,217.3l0.5,0.5l0.4,0.2l0.1,0.2l0.2,0.1l0.2,0l0.4-0.3l0.5,0.1l0.4-0.1l0.9,0.1l0.5,0.3l0,1.5
	l0,1.5l0,1.5l0,1.5v1.4v1.4v1.4v1.4v1.4v1.4v1.4v1.4l1.3,1.3l0.6,0.9l0.2,0.5l0.1,1.6l0.1,0.4l0.7,0.6l0,0.4l0.7,1.2l0,0.5l0.7,1.2
	l0.4,0.3l0.1,0.8l0.2,0.6l-0.3,0.5l0.1,0.6l-0.2,0.6l-0.1,0.8l-0.4,1.2l-0.4,0.6l-0.5,1.1l0,0.9l-0.3,1l0,0.4l0.3,0.7l0.1,1.8
	l-0.2,0.4l-0.6,1.1l-0.5,0l-1,1.8l0.6,1l0,0.4l-2,0.2l-4.5,2l-1.7,1.1l0.1-0.4l2.1-1.4l-0.7-0.2l-1.2,0.3l-0.4-0.1l0.5-1.2l-0.2-1
	l-0.8,0l-0.5,0.8l-0.4,0l-0.5-0.3l-0.4,0.1l0.3,1.8l0.5,0.8l0.5,1l-1.2,1.2l-1.1,1l-0.1,1l-1.1,1.2l-1.1,0.7l-2.5,1.6l-0.7,0.3
	l-1.1,0.8l-1.6,0.6l-1.5,0.9l-0.5,0.1l1-0.8l1.1-0.8l-1,0.1l-1.5-0.3l-0.9,0l0,0.3l-0.7,0.4l-0.7-0.6l-0.3-0.4l-0.2-0.3l-0.3-0.1
	l-0.3,0.2l1.1,2.3l0.5,0.1l0.5,0.2l-0.6,0.5l-0.7,0.4l-1.1,0.3l-0.9-0.9l-0.2,1.1l-0.1,1.1l-0.3,0.3l-0.5,0.4l-0.3-0.3l-0.1-0.4
	l-0.3,0.4l-0.5,0.3l-0.8,0l-0.6,0.2l0,0.4l0.2,0.4l1-0.3l-0.4,1.1l-0.9,1.1l-0.8,0.3l-1.2-0.2l-0.3,0.1l-0.3,0.2l1.3,1.8l-0.9,2.7
	l-0.5,1l-0.4,0.1l-0.4,0l-1.5-0.8l-0.8-0.7l0.7,1.8l2,0.5l0.1,0.7l0,0.6l-0.4,0.7l-0.4,0.9l0.3,0.6l0.3,1.5l0.3,0.7l0.3,2.2l0.3,0.9
	l1.8,3.4l0.6,0l0.1,0.4l-0.1,0.7l-1.3,0.2l-0.5,0.3l-0.1,0.3l-0.1,0.2l-0.2,0l-0.6-0.2l-1.4-1l-2-0.6l-2.7-0.2l-1.8-0.5l-1-0.7
	l-1-0.4l-1.1-0.1l-0.9-0.4l-0.7-0.7l-1-0.4l-1.3-0.2l-0.9-0.5l-0.6-1.2v0l-0.5-2l-0.7-1.3l-1.3-1.6l-0.1-0.2l0,0l0-0.3l0.2-0.9
	l-0.1-0.7l-0.4-0.5l-0.1-0.6l0.2-0.6l0-0.7l-0.2-0.8l-0.8-0.9l-1.5-1l-1.3-1.5l-1-1.9l-1-1.3l-1-0.7l-0.7-0.9l-0.4-1.1l-0.1-0.6
	l0.2-0.2l-0.6-1.2l-1.4-2.2l-0.8-1.6l-0.2-1l-0.9-1.2l-1.6-1.4l-0.9-0.9l-0.2-0.6l0,0l-2.5-1.9l-0.7-1.2l-0.6-0.4l-0.7,0l-0.3-0.1
	l0-0.3l-0.2,0l-0.4,0.2l-1.3,0l-2.3-0.1l-1.6-0.3l-1-0.5l-0.7,0.1l-0.4,0.6l-0.8,0.4l-1.3,0.2l-1.1,1.2l-0.9,2.2l-0.4,1.4l0.1,0.6
	l-0.3,0.5l-0.6,0.3l-0.6,0.6l-0.6,1l-0.7,0.5l-0.8,0l-1.6-0.8l-2.3-1.5l-1.8-0.9l-1.3-0.3l-1.1-0.7l-1-1l-0.9-0.7l-0.8-0.3l-1-1.1
	l-1.1-1.9l-0.6-1.5v-1.6l-1.5-3.4l-0.8-1.5l-0.6-0.7l-1.1-0.8l-1.7-1l-2.2-1.9l-2.8-2.8l-2-1.7l-1.2-0.6l-1-1l-0.9-1.5l-0.8-0.9
	l-0.1,0l-1.1-0.6l0,0l-1-2h0.1h2.1h2.1h2.1h2.1h2.1h2.1h2.1h2.1h2.1h2.1h2.1h2.1h2.1h2.1h2.1h2.1l0-3.1l0-3.1l0-3.1l0-3.1l0-3.2
	l0-3.2l0-3.2l0-3.2l0-3.2l0-3.2l0-3.2l0-3.2l0-3.2l0-3.3l0-3.3l0-3.3l0.4,0h1.8h1.8h1.8h1.8h1.8h1.8h1.8h1.8h1.8h1.8h1.8h1.8h1.8
	h1.8h1.8h1.8v1.4v1.4v1.4v1.4v1.4v1.4v1.4v1.4v1.4v1.4v1.4v1.4v1.4v1.4v1.4v1.4l0.5,0.1l0.7,0.4l1.7,1.5l0.5,0.3l0.9-0.2l1,0.2
	l0.3,0l0.2-0.6l0.1-0.1l0.1,0l0.8,0.5l0.2,0.2l0.5,0.8l0.1,0.9l0.3,0.1l0.5,0.1l1.3,0.1l1.6,0.6l0.7,0.1l1.2-0.2l1.1,0.8l0.4,0.1
	l0.3-0.1l0.6-0.6l1.3,0.1l1.1-0.1l0.1,0.7l0.2,0.5l0.9,0.5l0.2,0.3l0,0.8l0.2,0.2l0.4,0.1l0.4,0l0.4-0.3l1-0.8l0.3-0.2l0.2,0l0.2,0
	l0.2,0.2l0.3,0.6l0.8,0.3l0.5,0.5l0.3,0.1l0.3-0.1l0.5-0.3l0.4,0l0.5-0.3l0.2,0.1l0.1,0.2l-0.1,0.7l0.1,0.3l0.2,0.3l0.3,0.2l0.3,0
	l0.2-0.2l0.3-0.9l0-0.3l0.4-0.1l0.2-0.2l0.2-0.6l0.4-0.2l0.2,0l0.2,0.2l0.4,0.6l1,0.3l0.3,0l0.3-0.1l0.4-0.5l0.2-0.1l0.2,0.1
	l0.1,0.1l0,0.6l1,0.6l0.7,0.2l0.7,0.7l0.2,0.1l0.3-0.5l0.7-0.2l0.6-0.5l1.9-0.7l0.7,0.2l0.8,0l0.2-0.3l1.3-0.4l0.3-0.2l0.4,0.2
	l0.1,0.3l0.2,0.1l0.9,0.2l0.5,0l0.9-0.4l0.4-0.5l0.2,0l0.7,0.3l1.7,1l0.9,0.8l1,0.4l0.5,0.4L311.3,217.3L311.3,217.3z M306.1,266.7
	l-0.5,0.1l2-1.7l0.4-0.5l0.5,0l-0.9,0.9L306.1,266.7z M289.9,277.3l-0.3,0l0.4-0.6l0.7-0.3l1.5-1.1l0.6-0.1l0.3-0.4l0.1-0.1
	l-0.1,0.5l-1.2,0.7L289.9,277.3L289.9,277.3z M287.5,280l-0.2,0l0.5-0.9l0.1-0.3l0.8-1.1l0.4-0.2l0.2,0.5l-0.8,0.8L287.5,280
	L287.5,280z M284.3,286.3L284,287l0.1-0.9l0.8-2.1l1.5-2.7l0.7-0.5l-1.8,3L284.3,286.3L284.3,286.3z M286,298.3l-0.1,0.5l-0.8-2.3
	l-1.3-5.1l0-2.9l0.2-1l0.3,4.2l1.4,5.3L286,298.3L286,298.3z"/>
<path id="US-UT" class="st1" d="M155.4,118l0,1.6v1.6v1.6v1.6v1.6v1.6v1.6v1.6h2.3h2.4h2.4h2.4h2.4h2.3h2.4h2.4v3.1v3.1v3.1v3.1v3v3
	v3v3v3v3v3v3v3v3v3v2.9h-2.9h-2.9h-2.9l-2.9,0h-2.9h-2.9h-2.9h-2.9l-2.9,0h-2.9h-2.9H139l-2.9,0h-2.9h-2.9h-2.9v-1.8v-1.8v-1.8v-1.8
	v-1.8l0-1.8v-1.9v-1.9v-1.9v-1.9v-1.9v-1.9v-1.9v-1.9v-1.9v-1.9V147v-1.9v-1.9l0-1.9v-1.9v-1.9v-1.9v-1.9v-1.9v-1.9v-2v-2v-2v-2v-2
	v-2h1.8h1.8h1.8h1.8h1.8h1.8h1.8h1.8h1.8h1.8h1.8h1.8h1.8h1.8h1.8L155.4,118z"/>
<path id="US-VA" class="st1" d="M469.1,150.8l0.5,0.5l1.3,0.5l0.5,0.5l-0.2,0.5l0,0.4l0.2,0.4l1.7,0.7l1,1l0.6,0.3l0.2,0.1l0.5,0.3
	l0.2,0.3l-0.1,1.4l-0.4,0.7l-0.7,0.5l-0.9,0.9l-0.2,0.8l-0.3,1.6l0.4,0.5l0.4,0.1l1.2-0.4l0.6,0.2l1.3,1.9l2.5,0.8l0.9,0.5l0.7,1
	l1.1,0.6l0.8,0.8l0,0.5l-0.3,0.6l-0.1,0.9l-0.4,0.5l-0.9,0.1l-0.5-0.1l-2.8-3l-0.3-0.3l-1-1.6l-1.2-0.9l-0.4,0l1.8,1.6l0.7,1.1
	l1.3,1.5l0.9,0.7l0.7,1l0.6,0.5l1.7,0.7l-0.6,0.5l0.9,0.4l0.1,0.8l-0.1,0.9l-1.3-0.3l0,0.6l0.1,0.4l-0.6,0.3l-0.8-0.4l-2.1-2.3
	l0,0.3l0.2,0.4l1.2,1.5l1.1,0.9l0.9,0.4l0.7,0.8l0.3,0.5l0.2,0.7l-0.5,0.5l-0.6,0.3l-0.6-0.5l-0.4-0.5l-0.9-0.8l-0.3-0.9l-0.7,0
	l-2.9-1.2l-2.3-0.1l0.2,0.2l0.3,0.2l1.8,0.3l0.7,0.5l1.5,0.5l0.9,0.1l0.4,1.5l1.2,1l0.2,0.8l0.8,0.1l1.5-0.7l0.9,0.3l1.4,0.2
	l0.3,0.6l0.2,1.1l0.5,1.3l0.3,1.2h-0.3l-0.7,0l-2.3,0l-3.4,0l-3.4,0l-3.4,0l-3.4,0l-3.4,0l-3.4,0l-3.4,0l-3.4,0l-3.4,0l-3.4,0
	l-3.4,0l-3.4,0l-3.4,0l-3.4,0l-3.4,0l-0.2-0.2l-1.3,0l-1,0l-0.4,0.2l-2,0l-1.6,0l-2.7,0l-3.2,0l-4.6,0l-2.1,0l1-0.6l1.4-0.3l2.5-1
	l1-1l1.4-0.7l0.6-0.8l0.9-0.8l0.3-0.9l0.1-0.1l1.5-0.8l1.6-1l3.6-2.9l0.1,0.4l-0.1,0.4l0.3,0.5l0.3,0.8l0.3,0.5l0.4,0.4l0.7,0.3
	l0.9,0.6l0.7,0.2l0.2,0l0.8-0.6l0.6-0.3l0.7-0.6l1.2,0.8h0.5l1.1-0.4l1.1-0.1l0.3-0.1l0.4-0.3l0-0.7l0.1-0.2l0.2-0.1l0.2,0l0.5,0.3
	l0.5,0l2-0.8l0.2,0.1l0.3,0.4l0.9-0.5l0.5-0.4l0.2-0.7l0.4-0.7l-0.1-0.3l-0.3-0.4l0.4-0.9l0.5-0.9l2-2.6l0.7-1.6l0.8-1l0.3-0.8
	l0.6-0.8l0.4-1.7l0.3-0.3l0.4-0.1l0.4,0.2l0.3,0.3l0.2,0.5l1,0.4l0.9,0l0.6-0.3l0.3-0.6l0.5-1.1l0.5-0.7l0.3-0.8l0.3-0.6l0.5-0.4
	l1.2,0l0.6-0.5l0.5-0.6l0.3-0.2l0.3,0l1-0.9l1.4-2l0.3-1.2l0.4-0.9l0.1-0.9l0.3-0.5l1.2,1l0.7,0.6l1.6,1.3l1.1,0.9l0.4-1
	L469.1,150.8L469.1,150.8z M492.4,166.5l0.3,0l0,0l-1,1.8l-0.4,0.2L492.4,166.5z M488.5,167.5l0.4-0.5l1.4-0.2l0.9-0.1l-2.1,4.7
	l0.1,0.9l-0.4,0.3l-0.6,0.2l-0.6,0.5l-0.4,0.6l-0.4,1.5L486,177l-0.5-0.7l-0.1-0.6l0.2-1.6l0.8-2.6l0.9-1.6l0.7-0.8L488.5,167.5
	L488.5,167.5z"/>
<path id="US-VT" class="st1" d="M518.6,108.7l-0.9,0l-0.9,0l-0.9,0l-0.9,0l-0.9,0l-0.9,0l-0.9,0l-0.9,0l-0.3-0.8l0.1-0.7l0-0.9
	l0-1.2l0-1.3l0-1.8l0-1.2l0-1.1l0-1.5l-0.6-0.8l-0.2-0.1l-0.2,0.1l-0.4,0.5l-0.1,0l-0.1-0.1l0-0.5l0.3-1.7l0-0.5l-0.1-0.9l-0.4-2.1
	l0-0.5l0.2-0.7l0.3-0.7l0.5-0.8l0.1-0.3l0-1.3l0.1-1.2l-0.6-1.8l0.2-2.4l-0.2-1.1l0.2-1l-0.1-0.9l1.6,0h3.9l3.9,0l3.9,0h3.9
	l-0.2,0.3l0.2,1l-1,1.8l0,0.6l0.5,1.6l0,0.4l-0.2,0.2l-0.2,0.7l-0.3,0.4l-0.4,0.4l-1.3,1l-0.4,0.3L523,88l-0.3,0.4l-0.3,2.4
	l-0.4,1.3l-0.1,0.6l-0.5,1.1l-0.5,1.2l-0.7,1l-0.4,1.2l-0.2,0.5l-0.2,0.8l-0.2,2.5l-0.3,1.4l-0.3,2.4l-0.2,0.6l-0.2,0.3l-0.3,1
	l0,0.4l0.1,0.3l0.5,0.8L518.6,108.7z"/>
<path id="US-WA" class="st1" d="M100.3,65.8H98h-2.5H93h-2.5H88h-2.5H83h-2.5h-0.2L80.1,66l-1.2,0.5l-2.4,0.1l-4.8,1.3l-2.1,1
	l-1.8,0.5l-3.4,0.5l-3.1,0.7L60,70.6L59.4,70l-1.5-0.3l-2.5-0.1L53.4,70l-1.9,1.2l-0.6,0.1l0,0l-0.5,0L47,70.8l-0.8,0l-0.7-0.6
	l-0.2-1l-0.9-3.1l-0.9-1.9l-0.9-0.6l-0.7-0.3l-0.9,0.3l-0.3-0.2l-0.5,0l-1-0.7l-0.6-0.7l-1.8,0l-0.4-0.4l-2,0.4l-0.6-0.5L32.8,62
	l0.3-1.3l0-1.6l0-1.6l0.3,1.1l0.7,1.2l0.3-1.4l0.2-1.7l-0.6-0.7l-1.1-0.5L32.4,54l2.5-1.4l-1.4-0.3l-0.5-0.6l-0.6-0.1l0,0.5
	l-0.2,0.6L31.9,52l-0.1-1l-0.3-1.7l-1-2.7l-0.6-3.5l-0.8-1.8l-1.5-1.7l-0.4-1l-0.4-2.5l0.2-1.9l-0.3-1.3l0.7,0.1l1.9,1l2.4,0.8
	l0.7,0.6l1.2,0.4l6.4,0.7l0.4-0.1l0.8-0.4l0.3,0l0.9,1l0.5,0.1l0.6,0l0.5-0.2l0.8-0.7l0.1,0.3l0,0.6l0.3,0.9l0.6,1.1l0.2,0.7l-1.2,2
	l-0.2,0l0-0.7l-0.2-0.1l-2.2,3.4l-0.8,1.6l-0.1,0.7l0,0.4l0.3,0.1l0.7-0.2l1-0.7l0-0.1l-1,0.2l-0.5,0l0.1-0.8l0.1-0.4l0.6-1.1
	l0.7-0.7l0.9-0.7l0.5-0.6l0.4-0.9l1-1l0.2-0.3l0-0.9l0.1-0.2l0.5,0.1l0.2,1.5l-0.1,0.6l-0.9,0.8l-0.1,0.3l0.2,1.1l-0.1,0.1L46,43.6
	l-0.1,0.1l0.8,1.2l0.3,0.9l0,0.8l-0.2,1.5l-0.3,0.3l-0.4-0.1l-0.6-0.5L45.5,48L45,49.2l-0.2-0.1l-0.3-1.4l-0.2-0.1l-0.9,0.6
	l-0.3,0.6l-0.3,1l-0.4,0.5l1.1,0.1l1-0.2l0.8,0.5l0.3,0l0.7-0.5l0.2-0.3l0.6-1.5l0.3-0.3l0.4,0l0.4-0.2l0.6-0.8l0-0.3l-0.2-1.9
	l0.1-1l-0.1-0.3l-0.3-0.4l0-0.3l0.2-0.5l0-0.5l-0.2-0.5l0.1-0.5l0.6-1.1l0.1-0.5l0.7-1.1l-0.2-0.4l-0.5-0.5l-0.3-0.5l-0.3-0.7
	l-0.3-0.3l-0.1,0.1l0.4,1.2l-0.1,0.1l-0.9-0.6L47.4,36l-0.1-0.6l0.1-0.4l0.5-0.4l0.6-0.1l0-0.4L47.6,33l-0.5-0.5l-0.4-0.3l-0.5-0.1
	L46,32l-0.1-0.3l0.1-0.4l0.3-0.1l0.8,0.1l0.4-0.3l0-0.5l-0.1-0.3l0-1.6l-0.3-1.3l-0.2-0.2l-0.2,0l-0.2,0.2l-0.5,0L45.8,27l-0.3-0.8
	l-0.6-2h1h4h4h4h4h4h4h4h4h4h4h4h4h4h1l0,2.3l0,2.3l0,2.3l0,2.3l0,2.3l0,2.3l0,2.3l0,2.2l0,2.2l0,2.2l0,2.2l0,2.2l0,2.2l0,2.2l0,2.2
	l0,2.2L99,60.1l-0.1,0.3l0.3,0.9l0.6,1.3l0.2,0.9l-0.2,0.5L100,65L100.3,65.8L100.3,65.8z M44.9,28.8l0.1,0.3l-0.4,0.3l-0.3,0
	L44,28.9l-0.2-0.1l0.2,0.7l0,0.3L43,29.4l-0.2-0.4l0.3-0.4l0.5-0.4l0.2,0L44.9,28.8L44.9,28.8z M42.8,31.2l0.3,0.5l-1-0.3l-0.4-0.3
	l-0.1-0.3L41.3,30l0.1-0.3l0.5-0.1l0.8,1.1L42.8,31.2L42.8,31.2z M44.6,32.2l-0.2,0.1l-0.5-0.2l-0.3-0.3l-0.1-0.4l0.2-0.8l0.3-0.2
	l0.2,0l0.1,0.7l0.5,0.7L44.6,32.2z M46.9,36.1l0.5,1.8l0.2-0.8l1.3,1.3v0.6l-0.2,0.2l-0.3,0.1l-0.3-0.2l-0.2-0.5l-0.3-0.2L47,38.4
	l-0.3-0.5l-0.1-0.4l0-1l-0.2-0.3l-0.3-0.1l-0.3-0.3l-0.5-0.7l-0.1-0.2l0.2-0.6l0.5-1l0.4-0.5l0.2,0l0.3,0.3l0.3,0.5l-0.1,0.4
	l-1.4,0.8l0,0.2l0.7,0.2l0.3,0.2L46.9,36.1L46.9,36.1z M47.6,43.9l0,0.3l-0.5-0.3l-0.2-0.3l0-0.7l0.1-0.4l0.1-0.1l0.3,0.2l0.1,0.1
	L47.6,43.9L47.6,43.9z M48.6,46.7l0,0.3l-0.4,0.3L48,47.2l0-0.4l-0.1-0.1l-0.4,0.5l0-0.9l0.2-0.9l0.2,0l0.3,0.6L48.6,46.7L48.6,46.7
	z M44.3,49.3l-0.1,0.3l-0.1,0L43.8,49l0-0.4l0.3-0.3l0.3,0.8L44.3,49.3L44.3,49.3z"/>
<path id="US-WI" class="st1" d="M349.5,51.8l-0.3,0.2l-0.1-0.1l0.1-0.4l0.2-0.3l0.2-0.1l0.1,0.1v0.3L349.5,51.8L349.5,51.8z
	 M346.9,53.2l-0.1,0.1l-0.4-0.2l0-0.2l0.1-0.2l0.2,0l0.2,0.3L346.9,53.2L346.9,53.2z M349.7,57.7l0,0.1l0.2,0.5l0.5-0.1l0.2,0.3
	l0.3,0.1l0.5,0.2l0.3,0.6l0.3,0.6l0.3,0.6l0.3,0.6l1.2,0.3l1.2,0.3l1.2,0.3l1.2,0.3l1.2,0.3l1.2,0.3l1.2,0.3l1.2,0.3l0.7,0.4
	l0.7,0.4l0.7,0.4l0.7,0.4l1,0.1l0.9,0.2l1.3,0l1.3,0.3l1.9,0.6l0.5,0.5l0.1,0.4l-0.2,0.8l1.8,0.8l0.8,0.6l0.3,0.4l0,0.4l0.2,0.8
	l-0.2,0.4v0.8l-0.4,0.8l-0.1,0.4l0,0.4l0.1,0.2l0.2,0.1l0.7,0l0.7-0.3l0.3,0.1l0.1,0.1l0,0.2L375,76l0,0.5l0.2,0.5l0.4,0.5l0.5,0.2
	l0,0.3l-0.2,0.7l-0.5,0.5L374,80l-0.2,0.5l0,0.4l-0.9,1.5l-0.4,0.9l-0.3,1l0.1,0.6l0.5,0.3L373,85l0.3-0.5l0.4-0.4l0.6-0.4l0.4-0.5
	l0.6-1.3l0.7-0.8l0.4,0l0.1,0l0.7-0.3l0.6,0.1l0.3,0.5l0.3,0.4l0.1,0.3l-0.2,0.7l-0.3,0.8l-0.5,0.8l-0.4,1.2l-0.4,1.6l-0.1,1.2
	l0.2,0.8l-0.2,0.7l-0.6,0.6l-0.5,0.9l-0.4,1.1l-0.2,0.9l0,0.7l0.1,0.5l0.2,0.7l0,0.4l-0.7,1.6l-0.3,0.8l0,0.6l-0.2,0.6l-0.5,1.2
	l-0.2,0.7l0,0.6l0.1,1l-0.1,0.3l0,0.3l0.1,0.2v0.3l-0.1,0.5l0,0.4l0.2,0.3l0.2,0.5l0.1,0.7l0.2,0.6l0.3,0.5l0,0.7l-0.2,0.9l-0.1,1.8
	v0.6l-1.2,0l-4.2,0l-4.2,0l-4.2,0l-4.2,0l-4.2,0l-4.3,0l-0.1-0.1l-0.3-1.1l-1-0.8l-1.6-0.5l-1-0.9l-0.5-1.2l-0.3-1.3l-0.1-1.5
	l0.1-1.3l0.4-1L343,101l-0.6-0.4l-0.4-0.5l-0.2-0.6l-0.1-0.8l-0.3-3.8l-0.4-1.8l-0.6-0.7l-1.2-0.8l-1.9-0.9l-1.2-0.9l-0.7-1.2
	l-1.3-1.5l-0.9-0.6l-0.9-0.2l-0.7-0.5l-0.5-0.7l-0.7-0.5l-0.9-0.2l-1-0.6l-1.2-1.1l0-0.1l-0.3-0.8l0.1-0.4l0.2-1.5l0-0.5l-0.3-1.4
	l0.3-0.5l-0.1-1.7l0.1-0.5l0.6-1.4l0-0.7l-0.2-0.8l-0.5-0.7l-1.3-0.7l0-0.9l0.2-0.6l0.8-1.2l0.5-1.1l0.4-0.5l2.5-1.6l0.5-0.1
	l0.4-0.5l0.3-0.2v-2v-2v-2v-2l0.6-0.1l0.3-0.5l0.7-0.8l0.2,0v0l0.3,0.4l0.8,0.5l0.6,0.1l0.8-0.1l3.2-0.9l1.3-0.6l1.3-1l0.1,0
	l0.5,0.2l0.2,0.1l1.7-1.2l0.6-0.1l0.4,0l0.5,0.5l0.1,0.3l-0.2,0.5l-0.5,0.8l-0.2,0.7l0,0.5l-0.2,0.6l-0.5,0.8l0.2,0.2l1.4-0.6
	l0.2-0.2l0-0.1l-0.1-0.2l0.2-0.1l1.1,0.8l0.8,0.4l0.6,0.2L349.7,57.7L349.7,57.7z M348.4,53.3l-0.3,0.1l-0.7-0.1l0-0.2l0.7-0.3
	l0.3-0.1l0.1,0.1L348.4,53.3L348.4,53.3z M346.8,55.1l-0.5,0.2l-0.2,0l0.1-0.3l0.3-0.3l1.3-0.8l0.2,0l0.1,0.2l-0.6,0.4l-0.2,0.2
	l0,0.2L346.8,55.1L346.8,55.1z M383.1,74.5l-0.3,0.1l-0.5,0l-0.2-0.3l0.3-0.8l0.1,0.1l0.5,0l0.2,0.1l0,0.2L383.1,74.5L383.1,74.5z
	 M381.9,76l-0.2,0.2l-0.3-0.1l-0.1,0.3l0.1,0.6l-0.1,0.3l-0.3,0l0,0.1l0.2,0.3l0,0.3l-0.2,0.3l-0.2,0.1l-0.2,0l-0.3,0.4l-0.3,0.8
	l-0.1,0.4l0.1,0.1l-0.1,0.3l-0.9,1.1l-0.3,0.1l-0.4-0.2l-0.3-0.3l-0.2-0.5l0-0.4l0.1-0.3l0.8-1l0.3-0.7l0.2-0.8l0.3-0.5l0.5-0.2
	l0.4-0.5l0.3-0.7l0.4-0.3l0.4,0.1l0.2,0.3L381.9,76L381.9,76z"/>
<path id="US-WV" class="st1" d="M452.6,146.2l0,1.6l0,1.6l0,1.5l0,1.5l1.2-0.9l0.6-0.3l2-2l0.3,0l0.7,0.3l1.5-1.4l0.2-0.5l0.2-0.2
	l0.2,0l0.1,0.1l-0.1,0.3l0.1,0.1l0.6,0.3l0.8,0.2l0.1,0l0.8,0l0.3-0.3l0.2-0.5l0.3-0.3l0.8-0.1l1.4-0.6l0.8,0.1l0.7,0.6l0.7,0.3
	l0.7,0l0.3,0.1l-0.2,0.3l0.2,0.3l0.5,0.4l0.2,0.3l-0.2,0.3l0.1,0.2l0.3,0.2l0.2,0.3l0,0.5l0.1,0.1l-0.6,1.5l-0.4,1l-1.1-0.9
	l-1.6-1.3l-0.7-0.6l-1.2-1l-0.3,0.5l-0.1,0.9l-0.4,0.9l-0.3,1.2l-1.4,2l-1,0.9l-0.3,0l-0.3,0.2l-0.5,0.6l-0.6,0.5l-1.2,0l-0.5,0.4
	l-0.3,0.6l-0.3,0.8l-0.5,0.7l-0.5,1.1l-0.3,0.6l-0.6,0.3l-0.9,0l-1-0.5l-0.2-0.5l-0.3-0.3l-0.4-0.2l-0.4,0l-0.3,0.3l-0.4,1.7
	l-0.6,0.8l-0.3,0.8l-0.8,1l-0.7,1.6l-2,2.6l-0.5,0.9l-0.4,0.9l0.3,0.4l0.1,0.3l-0.4,0.7l-0.2,0.7l-0.5,0.4l-0.9,0.5l-0.3-0.4
	l-0.2-0.1l-2,0.8l-0.5,0l-0.5-0.3l-0.2,0l-0.2,0.1l-0.1,0.2l0,0.7l-0.4,0.3l-0.3,0.1l-1.1,0.1l-1.1,0.4h-0.5l-1.2-0.8l-0.7,0.6
	l-0.6,0.3l-0.7,0.6l-0.2,0l-0.7-0.2l-0.9-0.6l-0.7-0.3l-0.4-0.4l-0.3-0.5l-0.3-0.8l-0.3-0.5l0.1-0.4l-0.1-0.4l-1.3-0.4l-1.7-1.4
	l-1.1-1.7l-0.3-0.8l-0.4-0.5l-0.1-0.5l-1-1.4l-0.3-0.6l0-0.4l0.3-0.7l0.1-0.3l-0.1-1.8l-0.2-0.3l1.1,0.4l1-0.2l0.7-0.5l0.3-0.9
	l0.4-0.5l0.5-0.1l0.2-0.4l-0.1-0.9l-0.1-0.6l0.4-0.9l0.9-1.4l0.7-0.6l0.5,0.3l0.3,0.4l0.1,0.6l0.1,0.1l0.1,0l0.4-0.5l0.3-0.2l0.1,0
	l0.1,0l0-0.3l-0.3-0.9l0-0.5l0.3-0.2l0.3-0.6l0.3-1l0.4-0.5l0.5,0l0.5-0.4l0.6-0.8l0.5-0.2l0.4,0.3l0.6,0l0.7-0.3l1.2-0.8l1.7-1.4
	l0.8-1.1l0-0.9l0.6-2.1l1.3-3.4l0.6-2.2l0-1l-0.2-0.8l-0.3-0.6l0.2-0.5l1.1-0.5l0,1.4v1.4v1.4v1.4v1.4l0,1.4v1.4v1.4h1.2h1.2h1.2
	h1.2h1.2h1.2h1.2L452.6,146.2z"/>
<path id="US-WY" class="st1" d="M221.5,105.2l0,3.2l0,3.2l0,3.2l0,3.2v3.2l0,3.1l0,3.1l0,3.1h-3h-3h-3h-3h-3h-3h-3h-3h-3h-3h-3h-3
	h-3h-3h-3h-3h-2.4h-2.4h-2.3h-2.4h-2.4h-2.4h-2.4h-2.3v-1.6v-1.6v-1.6v-1.6v-1.6v-1.6v-1.6l0-1.6v-2v-2v-2v-2v-2v-2v-2v-2v-2v-2v-2
	v-2v-2v-2l0-2v-2l0-1.7v-1.6v-1.7v-1.7h2.1h2.1h2.1h2.1h2.1h2.1h2.1h2.1h2.1h2.1h2.1h2.1h2.1h2.1h2.1h2.1h2.1h2.1h2.1h2.1h2.1h2.1
	h2.1h2.1h2.1h2.1h2.1h2.1h2.1h2.1h2.1h2.1l0,3.3l0,3.3l0,3.3l0,3.3l0,3.3l0,3.2l0,3.2L221.5,105.2z"/>
<circle class="st2" cx="376" cy="120" r="1.5"/>
<circle class="st2" cx="302.5" cy="260.2" r="1"/>
</svg>
