<svg width="50" height="100" xmlns="http://www.w3.org/2000/svg">
 <g>
  <path d="m23.18599,6.90138c-2.0713,0.61753 -3.70518,2.13563 -4.51569,4.21979c-0.2959,0.75905 -0.34736,1.08068 -0.34736,2.30287c-0.01287,1.05495 0.05146,1.59529 0.23157,2.12276c0.77191,2.27714 2.56018,3.98822 4.77299,4.56715c0.96489,0.24444 2.6245,0.24444 3.57653,0c3.39642,-0.8877 5.57064,-4.28412 4.97884,-7.77059c-0.39882,-2.39293 -2.14849,-4.47709 -4.4385,-5.31333c-1.06781,-0.38596 -3.16484,-0.45028 -4.25839,-0.12865l0.00001,0z" stroke="null"/>
  <path d="m17.21653,22.76418c-1.05495,0.18011 -2.45726,0.91343 -3.08765,1.62102c-1.145,1.31225 -1.08068,1.02922 -3.28063,13.9073c-1.09354,6.44547 -1.99411,11.93892 -1.99411,12.20909c0,0.8491 0.2573,1.49236 0.82337,2.04557c1.2222,1.23506 3.24203,1.02922 3.93676,-0.38596c0.19298,-0.41169 0.75905,-3.42215 2.04557,-10.97403l1.76253,-10.39509l1.00349,-0.0386l1.00349,-0.0386l-0.07719,0.36023c-0.15438,0.72045 -5.99519,34.19574 -5.99519,34.35012c0,0.12865 0.46315,0.16725 1.86546,0.16725l1.86546,0l0,12.45353c0,13.79151 -0.02573,13.25117 0.83624,14.26752c0.60467,0.70759 1.38944,1.00349 2.58591,0.99062c1.15787,-0.01287 1.98124,-0.38596 2.50872,-1.11927c0.78478,-1.08068 0.75905,-0.6304 0.75905,-14.2032l0,-12.3892l1.35085,0l1.35085,0l0,12.46639c0,13.84297 -0.0386,13.23831 0.86197,14.28039c0.57893,0.68186 1.38944,0.97776 2.56018,0.96489c1.15787,-0.01287 1.98124,-0.38596 2.50872,-1.11927c0.78478,-1.08068 0.75905,-0.6304 0.75905,-14.2032l0,-12.3892l1.86546,0c1.06781,0 1.86546,-0.05146 1.86546,-0.11579c0,-0.06433 -1.36371,-7.89924 -3.02333,-17.39377c-1.65961,-9.50739 -3.02333,-17.30371 -3.02333,-17.32944c0,-0.01287 0.38596,-0.02573 0.86197,0l0.86197,0.0386l1.7754,10.42082c1.96838,11.5401 1.90405,11.32139 2.93327,11.87459c0.47601,0.2573 0.70759,0.2959 1.31225,0.24444c1.56956,-0.14152 2.54731,-1.23506 2.54731,-2.85608c0,-0.28303 -0.90056,-5.78935 -1.99411,-12.22195c-1.78826,-10.49801 -2.0327,-11.78454 -2.38006,-12.47926c-0.70759,-1.45377 -1.59529,-2.25141 -3.10052,-2.79175c-0.82337,-0.2959 -0.83624,-0.2959 -8.2852,-0.32163c-4.104,0 -7.78345,0.0386 -8.16941,0.10292l-0.00003,0z" stroke="null"/>
 </g>
</svg>