<svg width="50" height="100" xmlns="http://www.w3.org/2000/svg">
 <g id="svg_1">
  <path d="m22.82044,6.91889c-4.29466,1.45735 -6.04864,6.44844 -3.59823,10.26592c0.86409,1.35417 2.59227,2.57938 4.16569,2.94049c0.8254,0.19345 2.39882,0.19345 3.22422,0c1.62501,-0.37401 3.26291,-1.54762 4.21728,-3.01787c1.35417,-2.10219 1.40576,-4.9782 0.12897,-7.17067c-1.58632,-2.73414 -5.12006,-4.04962 -8.13793,-3.01787l0,0z" stroke="null"/>
  <path d="m13.23805,22.78206c-1.57342,0.37401 -2.66965,1.26389 -3.36609,2.73414l-0.4127,0.86409l-0.03869,13.47724c-0.03869,14.79272 -0.07738,14.03181 0.72223,14.98618c0.73512,0.86409 2.17957,1.13493 3.25001,0.58036c0.45139,-0.21925 0.65774,-0.43849 0.90278,-0.92857l0.32242,-0.64484l0.03869,-11.90382l0.03869,-11.89092l1.08334,0l1.09624,0l0,30.16581c0,29.04378 0.0129,30.1916 0.24504,30.93962c0.50298,1.61211 1.43155,2.28275 3.17263,2.26985c1.54762,0 2.42461,-0.55457 3.05656,-1.92164l0.29663,-0.64484l0.03869,-17.83639l0.02579,-17.82349l1.28969,0l1.28969,0l0.02579,17.82349c0.03869,20.06755 -0.03869,18.50703 1.01885,19.56457c0.65774,0.65774 1.2252,0.85119 2.43751,0.8383c1.14782,0 1.80556,-0.28373 2.4762,-1.07044c0.87699,-1.01885 0.8125,1.54762 0.85119,-31.90688l0.02579,-30.39795l1.09624,0l1.08334,0l0.03869,11.89092l0.03869,11.90382l0.32242,0.64484c0.24504,0.49008 0.45139,0.70933 0.90278,0.92857c1.07044,0.55457 2.51489,0.28373 3.25001,-0.58036c0.79961,-0.95437 0.76092,-0.19345 0.72223,-14.98618l-0.03869,-13.47724l-0.4127,-0.86409c-0.70933,-1.49604 -1.79267,-2.36013 -3.41767,-2.74704c-1.16072,-0.27083 -22.3374,-0.27083 -23.47232,0.0129l0,0l0.00001,-0.00001z" stroke="null"/>
 </g>
</svg>